<svg class="gridItem__media" version="1.1" id="Layer_1" xmlns="http://www.w3.org/2000/svg" xmlns:xlink="http://www.w3.org/1999/xlink" x="0px" y="0px" width="1600" height="1200" viewBox="0 0 1600 1200" style="enable-background:new 0 0 1600 1200;" xml:space="preserve" fill="none">
<path d="M1379.94 1049.26H220.35L176.07 667.11C174.812 656.3 176.348 645.347 180.53 635.3L330.16 275.42C334.511 264.947 341.577 255.826 350.631 248.996C359.684 242.167 370.396 237.877 381.66 236.57L1116.93 151.17C1128.11 149.868 1139.44 151.553 1149.76 156.051C1160.08 160.55 1169.02 167.702 1175.68 176.78L1413.68 501.25C1422.87 513.786 1427.17 529.249 1425.76 544.73L1379.94 1049.26Z" class="change-color-in-svg-3" fill="#00BC7D" style="fill: rgb(40, 63, 255);"/>
<path opacity="0.9" d="M1379.94 1049.26H220.35L176.07 667.11C174.812 656.3 176.348 645.347 180.53 635.3L330.16 275.42C334.511 264.947 341.577 255.826 350.631 248.996C359.684 242.167 370.396 237.877 381.66 236.57L1116.93 151.17C1128.11 149.868 1139.44 151.553 1149.76 156.051C1160.08 160.55 1169.02 167.702 1175.68 176.78L1413.68 501.25C1422.87 513.786 1427.17 529.249 1425.76 544.73L1379.94 1049.26Z" fill="white"/>
<path d="M1115.42 778.47H1113.27V773.92H1115.42V778.47ZM1115.42 768.31H1113.27V762.7H1115.42V768.31ZM1115.42 757.08H1113.27V751.47H1115.42V757.08ZM1115.42 745.86H1113.27V740.25H1115.42V745.86ZM1115.42 734.64H1113.27V729H1115.42V734.64ZM1115.42 723.42H1113.27V717.81H1115.42V723.42ZM1115.42 712.19H1113.27V706.58H1115.42V712.19ZM1115.42 700.97H1113.27V695.36H1115.42V700.97ZM1115.42 689.75H1113.27V684.14H1115.42V689.75ZM1115.42 678.53H1113.27V672.92H1115.42V678.53ZM1115.42 667.31H1113.27V661.69H1115.42V667.31ZM1115.42 656.08H1113.27V650.47H1115.42V656.08ZM1115.42 644.86H1113.27V639.25H1115.42V644.86ZM1115.42 633.64H1113.27V628H1115.42V633.64ZM1115.42 622.42H1113.27V616.81H1115.42V622.42ZM1115.42 611.19H1113.27V605.58H1115.42V611.19ZM1115.42 599.97H1113.27V594.36H1115.42V599.97ZM1115.42 588.75H1113.27V583.14H1115.42V588.75ZM1115.42 577.53H1113.27V571.92H1115.42V577.53ZM1115.42 566.31H1113.27V560.69H1115.42V566.31ZM1115.42 555.08H1113.27V549.47H1115.42V555.08ZM1115.42 543.86H1113.27V538.25H1115.42V543.86ZM1115.42 532.64H1113.27V527H1115.42V532.64ZM1113.18 521.57C1112.93 519.898 1112.24 518.323 1111.18 517.01L1112.86 515.66C1114.16 517.278 1115 519.216 1115.29 521.27L1113.18 521.57ZM1107.18 514.07C1106.11 513.667 1104.97 513.46 1103.82 513.46H1102V511.31H1103.79C1105.2 511.306 1106.59 511.56 1107.91 512.06L1107.18 514.07ZM1096.42 513.46H1090.81V511.31H1096.42V513.46ZM1085.2 513.46H1079.59V511.31H1085.2V513.46ZM1073.98 513.46H1068.37V511.31H1074L1073.98 513.46ZM1062.75 513.46H1057.14V511.31H1062.75V513.46ZM1051.53 513.46H1045.92V511.31H1051.53V513.46ZM1040.31 513.46H1034.7V511.31H1040.31V513.46ZM1029.09 513.46H1023.48V511.31H1029.09V513.46ZM1017.87 513.46H1012.25V511.31H1017.87V513.46ZM1006.64 513.46H1001V511.31H1006.61L1006.64 513.46ZM995.42 513.46H989.81V511.31H995.42V513.46ZM984.2 513.46H978.59V511.31H984.2V513.46ZM972.98 513.46H967.37V511.31H973L972.98 513.46ZM961.75 513.46H956.14V511.31H961.75V513.46ZM950.53 513.46H944.92V511.31H950.53V513.46ZM939.31 513.46H933.7V511.31H939.31V513.46ZM928.09 513.46H922.48V511.31H928.09V513.46ZM916.87 513.46H911.25V511.31H916.87V513.46ZM905.64 513.46H900V511.31H905.61L905.64 513.46ZM894.42 513.46H888.81V511.31H894.42V513.46ZM883.2 513.46H877.59V511.31H883.2V513.46ZM871.98 513.46H866.37V511.31H872L871.98 513.46ZM860.75 513.46H855.14V511.31H860.75V513.46ZM849.53 513.46H843.92V511.31H849.53V513.46ZM838.31 513.46H832.7V511.31H838.31V513.46ZM827.09 513.46H821.48V511.31H827.09V513.46ZM815.87 513.46H810.25V511.31H815.87V513.46ZM804.64 513.46H799V511.31H804.61L804.64 513.46ZM793.42 513.46H787.81V511.31H793.42V513.46ZM782.2 513.46H776.59V511.31H782.2V513.46Z" class="change-color-in-svg-1" fill="#15247C" style="fill: rgb(52, 2, 132);"/>
<path d="M412.72 614.38H1004.27C1007.49 614.38 1010.57 615.658 1012.85 617.933C1015.12 620.207 1016.4 623.293 1016.4 626.51V1031.39H400.59V626.51C400.59 623.293 401.868 620.207 404.143 617.933C406.417 615.658 409.503 614.38 412.72 614.38V614.38Z" class="change-color-in-svg-3" fill="#00BC7D" style="fill: rgb(40, 63, 255);"/>
<path d="M407.11 614.38H998.66C1001.88 614.38 1004.96 615.658 1007.24 617.933C1009.51 620.207 1010.79 623.293 1010.79 626.51V1023.29H395V626.51C395 623.296 396.275 620.214 398.546 617.94C400.816 615.666 403.896 614.385 407.11 614.38V614.38Z" class="change-color-in-svg-3" fill="#00BC7D" style="fill: rgb(40, 63, 255);"/>
<path opacity="0.2" d="M407.11 614.38H998.66C1001.88 614.38 1004.96 615.658 1007.24 617.933C1009.51 620.207 1010.79 623.293 1010.79 626.51V1023.29H395V626.51C395 623.296 396.275 620.214 398.546 617.94C400.816 615.666 403.896 614.385 407.11 614.38V614.38Z" fill="black"/>
<path d="M989.75 636.05H416.03V1001.61H989.75V636.05Z" fill="white"/>
<path d="M1012.4 1023.27H776.141C775.08 1023.27 774.062 1023.69 773.312 1024.44C772.562 1025.19 772.141 1026.21 772.141 1027.27V1040.07C774.322 1042.91 777.127 1045.21 780.338 1046.79C783.549 1048.37 787.081 1049.19 790.661 1049.19H997.891C1001.11 1049.17 1004.3 1048.49 1007.25 1047.19C1009.99 1045.96 1012.32 1043.96 1013.94 1041.44C1015.57 1038.91 1016.43 1035.96 1016.41 1032.96V1027.22C1016.4 1026.17 1015.97 1025.16 1015.22 1024.42C1014.47 1023.68 1013.45 1023.27 1012.4 1023.27Z" class="change-color-in-svg-3" fill="#00BC7D" style="fill: rgb(40, 63, 255);"/>
<path d="M856.55 1023.27H258.48C257.419 1023.27 256.401 1023.69 255.651 1024.44C254.901 1025.19 254.48 1026.21 254.48 1027.27V1033C254.463 1036 255.32 1038.95 256.946 1041.48C258.573 1044 260.898 1046 263.64 1047.23C266.589 1048.53 269.775 1049.21 273 1049.23H842C845.221 1049.21 848.404 1048.53 851.35 1047.23C854.094 1046 856.422 1044.01 858.051 1041.48C859.679 1038.95 860.537 1036.01 860.52 1033V1027.26C860.517 1026.21 860.099 1025.2 859.355 1024.45C858.612 1023.7 857.604 1023.28 856.55 1023.27V1023.27Z" class="change-color-in-svg-3" fill="#00BC7D" style="fill: rgb(40, 63, 255);"/>
<path opacity="0.1" d="M603.86 1033.75H511.16C507.826 1033.75 504.567 1032.75 501.805 1030.88C499.042 1029.02 496.902 1026.36 495.66 1023.27H619.37C618.125 1026.36 615.983 1029.02 613.219 1030.88C610.455 1032.75 607.196 1033.75 603.86 1033.75Z" fill="black"/>
<path d="M989.75 636.05H416.03V668.67H989.75V636.05Z" class="change-color-in-svg-1" fill="#15247C" style="fill: rgb(52, 2, 132);"/>
<path d="M431.9 658.16C435.711 658.16 438.8 655.071 438.8 651.26C438.8 647.449 435.711 644.36 431.9 644.36C428.089 644.36 425 647.449 425 651.26C425 655.071 428.089 658.16 431.9 658.16Z" class="change-color-in-svg-2" fill="#3562FF" style="fill: rgb(255, 81, 72);"/>
<path d="M456.77 658.16C460.581 658.16 463.67 655.071 463.67 651.26C463.67 647.449 460.581 644.36 456.77 644.36C452.959 644.36 449.87 647.449 449.87 651.26C449.87 655.071 452.959 658.16 456.77 658.16Z" fill="white"/>
<path d="M481.63 658.16C485.441 658.16 488.53 655.071 488.53 651.26C488.53 647.449 485.441 644.36 481.63 644.36C477.82 644.36 474.73 647.449 474.73 651.26C474.73 655.071 477.82 658.16 481.63 658.16Z" class="change-color-in-svg-3" fill="#00BC7D" style="fill: rgb(40, 63, 255);"/>
<path d="M897.891 682.92H553.8C550.724 682.92 548.23 685.414 548.23 688.49V705.09C548.23 708.166 550.724 710.66 553.8 710.66H897.891C900.967 710.66 903.461 708.166 903.461 705.09V688.49C903.461 685.414 900.967 682.92 897.891 682.92Z" class="change-color-in-svg-3" fill="#00BC7D" style="fill: rgb(40, 63, 255);"/>
<path opacity="0.6" d="M897.891 682.92H553.8C550.724 682.92 548.23 685.414 548.23 688.49V705.09C548.23 708.166 550.724 710.66 553.8 710.66H897.891C900.967 710.66 903.461 708.166 903.461 705.09V688.49C903.461 685.414 900.967 682.92 897.891 682.92Z" fill="white"/>
<path d="M889.67 692.93C888.96 692.213 888.059 691.716 887.074 691.499C886.089 691.281 885.062 691.351 884.116 691.702C883.17 692.052 882.345 692.668 881.74 693.475C881.135 694.282 880.775 695.246 880.704 696.253C880.632 697.259 880.852 698.264 881.337 699.149C881.822 700.033 882.552 700.759 883.438 701.24C884.325 701.721 885.332 701.936 886.338 701.86C887.343 701.783 888.306 701.419 889.11 700.81L892.04 703.74L893.04 702.74L890.11 699.82C890.884 698.813 891.266 697.56 891.185 696.292C891.104 695.025 890.566 693.83 889.67 692.93V692.93ZM888.67 699.34C888.136 699.875 887.455 700.239 886.714 700.386C885.973 700.534 885.205 700.459 884.507 700.169C883.809 699.88 883.212 699.391 882.792 698.763C882.372 698.134 882.148 697.396 882.148 696.64C882.148 695.884 882.372 695.146 882.792 694.517C883.212 693.889 883.809 693.399 884.507 693.11C885.205 692.821 885.973 692.746 886.714 692.894C887.455 693.041 888.136 693.405 888.67 693.94C889.382 694.659 889.781 695.63 889.779 696.642C889.777 697.654 889.375 698.624 888.66 699.34H888.67Z" class="change-color-in-svg-1" fill="#15247C" style="fill: rgb(52, 2, 132);"/>
<path d="M935.48 692.22H919.92V693.75H935.48V692.22Z" class="change-color-in-svg-1" fill="#15247C" style="fill: rgb(52, 2, 132);"/>
<path d="M935.48 697.68H919.92V699.21H935.48V697.68Z" class="change-color-in-svg-1" fill="#15247C" style="fill: rgb(52, 2, 132);"/>
<path d="M935.48 703.13H919.92V704.66H935.48V703.13Z" class="change-color-in-svg-1" fill="#15247C" style="fill: rgb(52, 2, 132);"/>
<path d="M455.87 682.92H437.97C435.253 682.92 433.05 685.123 433.05 687.84V705.74C433.05 708.457 435.253 710.66 437.97 710.66H455.87C458.587 710.66 460.79 708.457 460.79 705.74V687.84C460.79 685.123 458.587 682.92 455.87 682.92Z" class="change-color-in-svg-2" fill="#3562FF" style="fill: rgb(255, 81, 72);"/>
<path d="M439.55 693H454.3V693.17C454.3 695.125 453.523 696.999 452.141 698.381C450.759 699.763 448.884 700.54 446.93 700.54V700.54C444.975 700.54 443.101 699.763 441.718 698.381C440.336 696.999 439.56 695.125 439.56 693.17V693H439.55Z" fill="white"/>
<path d="M963.311 708.29C969.662 708.29 974.811 703.141 974.811 696.79C974.811 690.439 969.662 685.29 963.311 685.29C956.959 685.29 951.811 690.439 951.811 696.79C951.811 703.141 956.959 708.29 963.311 708.29Z" class="change-color-in-svg-2" fill="#3562FF" style="fill: rgb(255, 81, 72);"/>
<path d="M963.31 697.05C965.552 697.05 967.37 695.232 967.37 692.99C967.37 690.748 965.552 688.93 963.31 688.93C961.068 688.93 959.25 690.748 959.25 692.99C959.25 695.232 961.068 697.05 963.31 697.05Z" class="change-color-in-svg-2" fill="#3562FF" style="fill: rgb(255, 81, 72);"/>
<path d="M972.63 703.52C971.564 704.995 970.164 706.195 968.544 707.023C966.923 707.851 965.13 708.283 963.31 708.283C961.491 708.283 959.697 707.851 958.077 707.023C956.457 706.195 955.056 704.995 953.99 703.52C954.232 702.032 954.996 700.678 956.145 699.702C957.294 698.725 958.753 698.189 960.26 698.19H966.35C967.86 698.187 969.321 698.722 970.472 699.699C971.623 700.675 972.388 702.03 972.63 703.52V703.52Z" class="change-color-in-svg-2" fill="#3562FF" style="fill: rgb(255, 81, 72);"/>
<path d="M963.31 697.05C965.552 697.05 967.37 695.232 967.37 692.99C967.37 690.748 965.552 688.93 963.31 688.93C961.068 688.93 959.25 690.748 959.25 692.99C959.25 695.232 961.068 697.05 963.31 697.05Z" fill="white"/>
<path d="M972.63 703.52C971.564 704.995 970.164 706.195 968.544 707.023C966.923 707.851 965.13 708.283 963.31 708.283C961.491 708.283 959.697 707.851 958.077 707.023C956.457 706.195 955.056 704.995 953.99 703.52C954.232 702.032 954.996 700.678 956.145 699.702C957.294 698.725 958.753 698.189 960.26 698.19H966.35C967.86 698.187 969.321 698.722 970.472 699.699C971.623 700.675 972.388 702.03 972.63 703.52V703.52Z" fill="white"/>
<path d="M451.45 747.45H437.68C435.349 747.45 433.46 749.339 433.46 751.67V764.84C433.46 767.171 435.349 769.06 437.68 769.06H451.45C453.781 769.06 455.67 767.171 455.67 764.84V751.67C455.67 749.339 453.781 747.45 451.45 747.45Z" class="change-color-in-svg-2" fill="#3562FF" style="fill: rgb(255, 81, 72);"/>
<path d="M532.94 754.07H468.43C467.27 754.07 466.33 755.01 466.33 756.17V760.34C466.33 761.5 467.27 762.44 468.43 762.44H532.94C534.1 762.44 535.04 761.5 535.04 760.34V756.17C535.04 755.01 534.1 754.07 532.94 754.07Z" class="change-color-in-svg-2" fill="#3562FF" style="fill: rgb(255, 81, 72);"/>
<path d="M532.94 803.94H468.43C467.27 803.94 466.33 804.88 466.33 806.04V810.21C466.33 811.37 467.27 812.31 468.43 812.31H532.94C534.1 812.31 535.04 811.37 535.04 810.21V806.04C535.04 804.88 534.1 803.94 532.94 803.94Z" class="change-color-in-svg-2" fill="#3562FF" style="fill: rgb(255, 81, 72);"/>
<path d="M532.94 853.82H468.43C467.27 853.82 466.33 854.76 466.33 855.92V860.09C466.33 861.25 467.27 862.19 468.43 862.19H532.94C534.1 862.19 535.04 861.25 535.04 860.09V855.92C535.04 854.76 534.1 853.82 532.94 853.82Z" class="change-color-in-svg-2" fill="#3562FF" style="fill: rgb(255, 81, 72);"/>
<path d="M532.94 903.69H468.43C467.27 903.69 466.33 904.63 466.33 905.79V909.96C466.33 911.12 467.27 912.06 468.43 912.06H532.94C534.1 912.06 535.04 911.12 535.04 909.96V905.79C535.04 904.63 534.1 903.69 532.94 903.69Z" class="change-color-in-svg-2" fill="#3562FF" style="fill: rgb(255, 81, 72);"/>
<path d="M532.94 953.56H468.43C467.27 953.56 466.33 954.5 466.33 955.66V959.83C466.33 960.99 467.27 961.93 468.43 961.93H532.94C534.1 961.93 535.04 960.99 535.04 959.83V955.66C535.04 954.5 534.1 953.56 532.94 953.56Z" class="change-color-in-svg-2" fill="#3562FF" style="fill: rgb(255, 81, 72);"/>
<path d="M451.45 797.32H437.68C435.349 797.32 433.46 799.209 433.46 801.54V814.71C433.46 817.04 435.349 818.93 437.68 818.93H451.45C453.781 818.93 455.67 817.04 455.67 814.71V801.54C455.67 799.209 453.781 797.32 451.45 797.32Z" class="change-color-in-svg-2" fill="#3562FF" style="fill: rgb(255, 81, 72);"/>
<path d="M451.45 847.2H437.68C435.349 847.2 433.46 849.089 433.46 851.42V864.59C433.46 866.921 435.349 868.81 437.68 868.81H451.45C453.781 868.81 455.67 866.921 455.67 864.59V851.42C455.67 849.089 453.781 847.2 451.45 847.2Z" class="change-color-in-svg-2" fill="#3562FF" style="fill: rgb(255, 81, 72);"/>
<path d="M451.45 897.07H437.68C435.349 897.07 433.46 898.959 433.46 901.29V914.46C433.46 916.79 435.349 918.68 437.68 918.68H451.45C453.781 918.68 455.67 916.79 455.67 914.46V901.29C455.67 898.959 453.781 897.07 451.45 897.07Z" class="change-color-in-svg-2" fill="#3562FF" style="fill: rgb(255, 81, 72);"/>
<path d="M451.45 946.95H437.68C435.349 946.95 433.46 948.839 433.46 951.17V964.34C433.46 966.671 435.349 968.56 437.68 968.56H451.45C453.781 968.56 455.67 966.671 455.67 964.34V951.17C455.67 948.839 453.781 946.95 451.45 946.95Z" class="change-color-in-svg-2" fill="#3562FF" style="fill: rgb(255, 81, 72);"/>
<path opacity="0.6" d="M451.45 747.45H437.68C435.349 747.45 433.46 749.339 433.46 751.67V764.84C433.46 767.171 435.349 769.06 437.68 769.06H451.45C453.781 769.06 455.67 767.171 455.67 764.84V751.67C455.67 749.339 453.781 747.45 451.45 747.45Z" fill="white"/>
<path opacity="0.6" d="M532.94 754.07H468.43C467.27 754.07 466.33 755.01 466.33 756.17V760.34C466.33 761.5 467.27 762.44 468.43 762.44H532.94C534.1 762.44 535.04 761.5 535.04 760.34V756.17C535.04 755.01 534.1 754.07 532.94 754.07Z" fill="white"/>
<path opacity="0.6" d="M532.94 803.94H468.43C467.27 803.94 466.33 804.88 466.33 806.04V810.21C466.33 811.37 467.27 812.31 468.43 812.31H532.94C534.1 812.31 535.04 811.37 535.04 810.21V806.04C535.04 804.88 534.1 803.94 532.94 803.94Z" fill="white"/>
<path opacity="0.6" d="M532.94 853.82H468.43C467.27 853.82 466.33 854.76 466.33 855.92V860.09C466.33 861.25 467.27 862.19 468.43 862.19H532.94C534.1 862.19 535.04 861.25 535.04 860.09V855.92C535.04 854.76 534.1 853.82 532.94 853.82Z" fill="white"/>
<path opacity="0.6" d="M532.94 903.69H468.43C467.27 903.69 466.33 904.63 466.33 905.79V909.96C466.33 911.12 467.27 912.06 468.43 912.06H532.94C534.1 912.06 535.04 911.12 535.04 909.96V905.79C535.04 904.63 534.1 903.69 532.94 903.69Z" fill="white"/>
<path opacity="0.6" d="M532.94 953.56H468.43C467.27 953.56 466.33 954.5 466.33 955.66V959.83C466.33 960.99 467.27 961.93 468.43 961.93H532.94C534.1 961.93 535.04 960.99 535.04 959.83V955.66C535.04 954.5 534.1 953.56 532.94 953.56Z" fill="white"/>
<path opacity="0.6" d="M451.45 797.32H437.68C435.349 797.32 433.46 799.209 433.46 801.54V814.71C433.46 817.04 435.349 818.93 437.68 818.93H451.45C453.781 818.93 455.67 817.04 455.67 814.71V801.54C455.67 799.209 453.781 797.32 451.45 797.32Z" fill="white"/>
<path opacity="0.6" d="M451.45 847.2H437.68C435.349 847.2 433.46 849.089 433.46 851.42V864.59C433.46 866.921 435.349 868.81 437.68 868.81H451.45C453.781 868.81 455.67 866.921 455.67 864.59V851.42C455.67 849.089 453.781 847.2 451.45 847.2Z" fill="white"/>
<path opacity="0.6" d="M451.45 897.07H437.68C435.349 897.07 433.46 898.959 433.46 901.29V914.46C433.46 916.79 435.349 918.68 437.68 918.68H451.45C453.781 918.68 455.67 916.79 455.67 914.46V901.29C455.67 898.959 453.781 897.07 451.45 897.07Z" fill="white"/>
<path opacity="0.6" d="M451.45 946.95H437.68C435.349 946.95 433.46 948.839 433.46 951.17V964.34C433.46 966.671 435.349 968.56 437.68 968.56H451.45C453.781 968.56 455.67 966.671 455.67 964.34V951.17C455.67 948.839 453.781 946.95 451.45 946.95Z" fill="white"/>
<path d="M963.87 737.2H566.86C564.927 737.2 563.36 738.767 563.36 740.7V748.21C563.36 750.143 564.927 751.71 566.86 751.71H963.87C965.803 751.71 967.37 750.143 967.37 748.21V740.7C967.37 738.767 965.803 737.2 963.87 737.2Z" class="change-color-in-svg-3" fill="#00BC7D" style="fill: rgb(40, 63, 255);"/>
<path opacity="0.3" d="M963.87 737.2H566.86C564.927 737.2 563.36 738.767 563.36 740.7V748.21C563.36 750.143 564.927 751.71 566.86 751.71H963.87C965.803 751.71 967.37 750.143 967.37 748.21V740.7C967.37 738.767 965.803 737.2 963.87 737.2Z" fill="white"/>
<path d="M837.74 984H565.62C564.372 984 563.36 985.012 563.36 986.26C563.36 987.508 564.372 988.52 565.62 988.52H837.74C838.989 988.52 840 987.508 840 986.26C840 985.012 838.989 984 837.74 984Z" class="change-color-in-svg-2" fill="#3562FF" style="fill: rgb(255, 81, 72);"/>
<path d="M837.74 964.03H565.62C564.372 964.03 563.36 965.042 563.36 966.29C563.36 967.538 564.372 968.55 565.62 968.55H837.74C838.989 968.55 840 967.538 840 966.29C840 965.042 838.989 964.03 837.74 964.03Z" class="change-color-in-svg-2" fill="#3562FF" style="fill: rgb(255, 81, 72);"/>
<path d="M837.74 944.07H565.62C564.372 944.07 563.36 945.082 563.36 946.33C563.36 947.578 564.372 948.59 565.62 948.59H837.74C838.989 948.59 840 947.578 840 946.33C840 945.082 838.989 944.07 837.74 944.07Z" class="change-color-in-svg-2" fill="#3562FF" style="fill: rgb(255, 81, 72);"/>
<path d="M837.74 924.1H565.62C564.372 924.1 563.36 925.112 563.36 926.36C563.36 927.608 564.372 928.62 565.62 928.62H837.74C838.989 928.62 840 927.608 840 926.36C840 925.112 838.989 924.1 837.74 924.1Z" class="change-color-in-svg-2" fill="#3562FF" style="fill: rgb(255, 81, 72);"/>
<path d="M837.74 904.13H565.62C564.372 904.13 563.36 905.142 563.36 906.39C563.36 907.638 564.372 908.65 565.62 908.65H837.74C838.989 908.65 840 907.638 840 906.39C840 905.142 838.989 904.13 837.74 904.13Z" class="change-color-in-svg-2" fill="#3562FF" style="fill: rgb(255, 81, 72);"/>
<path d="M837.74 884.16H565.62C564.372 884.16 563.36 885.172 563.36 886.42C563.36 887.668 564.372 888.68 565.62 888.68H837.74C838.989 888.68 840 887.668 840 886.42C840 885.172 838.989 884.16 837.74 884.16Z" class="change-color-in-svg-2" fill="#3562FF" style="fill: rgb(255, 81, 72);"/>
<path d="M965.101 864.2H743.611C742.362 864.2 741.351 865.212 741.351 866.46C741.351 867.708 742.362 868.72 743.611 868.72H965.101C966.349 868.72 967.361 867.708 967.361 866.46C967.361 865.212 966.349 864.2 965.101 864.2Z" class="change-color-in-svg-2" fill="#3562FF" style="fill: rgb(255, 81, 72);"/>
<path d="M965.101 844.23H743.611C742.362 844.23 741.351 845.242 741.351 846.49C741.351 847.738 742.362 848.75 743.611 848.75H965.101C966.349 848.75 967.361 847.738 967.361 846.49C967.361 845.242 966.349 844.23 965.101 844.23Z" class="change-color-in-svg-2" fill="#3562FF" style="fill: rgb(255, 81, 72);"/>
<path d="M965.101 824.26H743.611C742.362 824.26 741.351 825.272 741.351 826.52C741.351 827.768 742.362 828.78 743.611 828.78H965.101C966.349 828.78 967.361 827.768 967.361 826.52C967.361 825.272 966.349 824.26 965.101 824.26Z" class="change-color-in-svg-2" fill="#3562FF" style="fill: rgb(255, 81, 72);"/>
<path d="M965.101 804.29H743.611C742.362 804.29 741.351 805.302 741.351 806.55C741.351 807.798 742.362 808.81 743.611 808.81H965.101C966.349 808.81 967.361 807.798 967.361 806.55C967.361 805.302 966.349 804.29 965.101 804.29Z" class="change-color-in-svg-2" fill="#3562FF" style="fill: rgb(255, 81, 72);"/>
<path d="M965.101 784.33H743.611C742.362 784.33 741.351 785.342 741.351 786.59C741.351 787.838 742.362 788.85 743.611 788.85H965.101C966.349 788.85 967.361 787.838 967.361 786.59C967.361 785.342 966.349 784.33 965.101 784.33Z" class="change-color-in-svg-2" fill="#3562FF" style="fill: rgb(255, 81, 72);"/>
<path d="M965.101 764.36H743.611C742.362 764.36 741.351 765.372 741.351 766.62C741.351 767.868 742.362 768.88 743.611 768.88H965.101C966.349 768.88 967.361 767.868 967.361 766.62C967.361 765.372 966.349 764.36 965.101 764.36Z" class="change-color-in-svg-2" fill="#3562FF" style="fill: rgb(255, 81, 72);"/>
<g opacity="0.6">
<path opacity="0.6" d="M837.74 984H565.62C564.372 984 563.36 985.012 563.36 986.26C563.36 987.508 564.372 988.52 565.62 988.52H837.74C838.989 988.52 840 987.508 840 986.26C840 985.012 838.989 984 837.74 984Z" fill="white"/>
<path opacity="0.6" d="M837.74 964.03H565.62C564.372 964.03 563.36 965.042 563.36 966.29C563.36 967.538 564.372 968.55 565.62 968.55H837.74C838.989 968.55 840 967.538 840 966.29C840 965.042 838.989 964.03 837.74 964.03Z" fill="white"/>
<path opacity="0.6" d="M837.74 944.07H565.62C564.372 944.07 563.36 945.082 563.36 946.33C563.36 947.578 564.372 948.59 565.62 948.59H837.74C838.989 948.59 840 947.578 840 946.33C840 945.082 838.989 944.07 837.74 944.07Z" fill="white"/>
<path opacity="0.6" d="M837.74 924.1H565.62C564.372 924.1 563.36 925.112 563.36 926.36C563.36 927.608 564.372 928.62 565.62 928.62H837.74C838.989 928.62 840 927.608 840 926.36C840 925.112 838.989 924.1 837.74 924.1Z" fill="white"/>
<path opacity="0.6" d="M837.74 904.13H565.62C564.372 904.13 563.36 905.142 563.36 906.39C563.36 907.638 564.372 908.65 565.62 908.65H837.74C838.989 908.65 840 907.638 840 906.39C840 905.142 838.989 904.13 837.74 904.13Z" fill="white"/>
<path opacity="0.6" d="M837.74 884.16H565.62C564.372 884.16 563.36 885.172 563.36 886.42C563.36 887.668 564.372 888.68 565.62 888.68H837.74C838.989 888.68 840 887.668 840 886.42C840 885.172 838.989 884.16 837.74 884.16Z" fill="white"/>
<path opacity="0.6" d="M965.101 864.2H743.611C742.362 864.2 741.351 865.212 741.351 866.46C741.351 867.708 742.362 868.72 743.611 868.72H965.101C966.349 868.72 967.361 867.708 967.361 866.46C967.361 865.212 966.349 864.2 965.101 864.2Z" fill="white"/>
<path opacity="0.6" d="M965.101 844.23H743.611C742.362 844.23 741.351 845.242 741.351 846.49C741.351 847.738 742.362 848.75 743.611 848.75H965.101C966.349 848.75 967.361 847.738 967.361 846.49C967.361 845.242 966.349 844.23 965.101 844.23Z" fill="white"/>
<path opacity="0.6" d="M965.101 824.26H743.611C742.362 824.26 741.351 825.272 741.351 826.52C741.351 827.768 742.362 828.78 743.611 828.78H965.101C966.349 828.78 967.361 827.768 967.361 826.52C967.361 825.272 966.349 824.26 965.101 824.26Z" fill="white"/>
<path opacity="0.6" d="M965.101 804.29H743.611C742.362 804.29 741.351 805.302 741.351 806.55C741.351 807.798 742.362 808.81 743.611 808.81H965.101C966.349 808.81 967.361 807.798 967.361 806.55C967.361 805.302 966.349 804.29 965.101 804.29Z" fill="white"/>
<path opacity="0.6" d="M965.101 784.33H743.611C742.362 784.33 741.351 785.342 741.351 786.59C741.351 787.838 742.362 788.85 743.611 788.85H965.101C966.349 788.85 967.361 787.838 967.361 786.59C967.361 785.342 966.349 784.33 965.101 784.33Z" fill="white"/>
<path opacity="0.6" d="M965.101 764.36H743.611C742.362 764.36 741.351 765.372 741.351 766.62C741.351 767.868 742.362 768.88 743.611 768.88H965.101C966.349 768.88 967.361 767.868 967.361 766.62C967.361 765.372 966.349 764.36 965.101 764.36Z" fill="white"/>
</g>
<path d="M989.75 724.51H416.03V725.21H547.88V782.84H416.03V783.54H547.88V832.71H416.03V833.41H547.88V882.59H416.03V883.29H547.88V932.46H416.03V933.16H547.88V982.34H416.03V983.04H547.88V1001.61H548.58V725.21H989.75V724.51Z" class="change-color-in-svg-3" fill="#00BC7D" style="fill: rgb(40, 63, 255);"/>
<path d="M563.37 772.68V862.89C563.37 867.656 567.234 871.52 572 871.52H713.1C717.866 871.52 721.73 867.656 721.73 862.89V772.68C721.73 767.914 717.866 764.05 713.1 764.05H572C567.234 764.05 563.37 767.914 563.37 772.68Z" class="change-color-in-svg-2" fill="#3562FF" style="fill: rgb(255, 81, 72);"/>
<path opacity="0.7" d="M563.37 772.68V862.89C563.37 867.656 567.234 871.52 572 871.52H713.1C717.866 871.52 721.73 867.656 721.73 862.89V772.68C721.73 767.914 717.866 764.05 713.1 764.05H572C567.234 764.05 563.37 767.914 563.37 772.68Z" fill="white"/>
<path d="M582.24 864.66L623.2 838.49L582.68 812.31L582.24 864.66Z" class="change-color-in-svg-3" fill="#00BC7D" style="fill: rgb(40, 63, 255);"/>
<path d="M649.061 803.26V860.84H706.641V803.26H649.061Z" fill="white"/>
<path d="M638.61 826.97C653.318 826.97 665.24 815.047 665.24 800.34C665.24 785.633 653.318 773.71 638.61 773.71C623.903 773.71 611.98 785.633 611.98 800.34C611.98 815.047 623.903 826.97 638.61 826.97Z" class="change-color-in-svg-2" fill="#3562FF" style="fill: rgb(255, 81, 72);"/>
<path d="M959.19 878.97H866.901C862.134 878.97 858.271 882.834 858.271 887.6V979.89C858.271 984.656 862.134 988.52 866.901 988.52H959.19C963.957 988.52 967.82 984.656 967.82 979.89V887.6C967.82 882.834 963.957 878.97 959.19 878.97Z" class="change-color-in-svg-2" fill="#3562FF" style="fill: rgb(255, 81, 72);"/>
<path opacity="0.7" d="M959.19 878.97H866.901C862.134 878.97 858.271 882.834 858.271 887.6V979.89C858.271 984.656 862.134 988.52 866.901 988.52H959.19C963.957 988.52 967.82 984.656 967.82 979.89V887.6C967.82 882.834 963.957 878.97 959.19 878.97Z" fill="white"/>
<path d="M882 902.2H944V904.81C944 913.032 940.734 920.917 934.92 926.73C929.107 932.544 921.222 935.81 913 935.81C904.778 935.81 896.893 932.544 891.08 926.73C885.266 920.917 882 913.032 882 904.81V902.2Z" class="change-color-in-svg-3" fill="#00BC7D" style="fill: rgb(40, 63, 255);"/>
<path d="M944.07 947.45H882.03V965.3H944.07V947.45Z" fill="white"/>
<path d="M522.21 688.93H471.62C469.709 688.93 468.16 690.479 468.16 692.39V699.67C468.16 701.581 469.709 703.13 471.62 703.13H522.21C524.121 703.13 525.67 701.581 525.67 699.67V692.39C525.67 690.479 524.121 688.93 522.21 688.93Z" class="change-color-in-svg-2" fill="#3562FF" style="fill: rgb(255, 81, 72);"/>
<path d="M449.34 442L472.22 426.28C472.745 425.923 473.357 425.714 473.99 425.675C474.624 425.637 475.256 425.77 475.82 426.06L484.29 430.4L536.49 394.54C537.264 394.009 538.216 393.806 539.139 393.977C540.061 394.147 540.878 394.677 541.41 395.45L579.66 451.14C579.903 451.491 580.075 451.887 580.164 452.305C580.253 452.723 580.259 453.155 580.181 453.575C580.103 453.995 579.942 454.395 579.709 454.753C579.475 455.111 579.173 455.419 578.82 455.66L497 511.84C496.297 512.321 495.432 512.504 494.594 512.349C493.756 512.193 493.014 511.712 492.53 511.01L448.45 446.84C447.942 446.075 447.751 445.143 447.917 444.24C448.083 443.337 448.593 442.534 449.34 442V442Z" class="change-color-in-svg-2" fill="#3562FF" style="fill: rgb(255, 81, 72);"/>
<path d="M581.11 452.49L563.44 393.66C563.336 393.305 563.15 392.98 562.896 392.711C562.642 392.443 562.328 392.238 561.979 392.114C561.631 391.99 561.258 391.951 560.892 391.999C560.525 392.047 560.175 392.181 559.87 392.39L477.24 449.15C476.688 449.52 476.27 450.059 476.049 450.686C475.827 451.313 475.814 451.995 476.01 452.63L493.62 511.22C493.698 511.497 493.841 511.752 494.037 511.963C494.234 512.174 494.477 512.335 494.748 512.432C495.019 512.53 495.309 512.562 495.595 512.525C495.881 512.488 496.153 512.383 496.39 512.22L580.39 454.5C580.712 454.288 580.955 453.977 581.085 453.615C581.215 453.252 581.224 452.858 581.11 452.49V452.49Z" class="change-color-in-svg-2" fill="#3562FF" style="fill: rgb(255, 81, 72);"/>
<path opacity="0.4" d="M581.11 452.49L563.44 393.66C563.336 393.305 563.15 392.98 562.896 392.711C562.642 392.443 562.328 392.238 561.979 392.114C561.631 391.99 561.258 391.951 560.892 391.999C560.525 392.047 560.175 392.181 559.87 392.39L477.24 449.15C476.688 449.52 476.27 450.059 476.049 450.686C475.827 451.313 475.814 451.995 476.01 452.63L493.62 511.22C493.698 511.497 493.841 511.752 494.037 511.963C494.234 512.174 494.477 512.335 494.748 512.432C495.019 512.53 495.309 512.562 495.595 512.525C495.881 512.488 496.153 512.383 496.39 512.22L580.39 454.5C580.712 454.288 580.955 453.977 581.085 453.615C581.215 453.252 581.224 452.858 581.11 452.49V452.49Z" fill="white"/>
<path opacity="0.6" d="M581.11 452.49L563.44 393.66Z" fill="white"/>
<path d="M840.74 350L774.8 341.4C774.276 341.335 773.77 341.166 773.311 340.904C772.852 340.642 772.45 340.292 772.127 339.873C771.805 339.455 771.568 338.977 771.431 338.466C771.295 337.956 771.26 337.424 771.33 336.9L782.33 252.15C782.396 251.626 782.564 251.119 782.826 250.661C783.088 250.202 783.439 249.8 783.857 249.477C784.275 249.154 784.754 248.918 785.264 248.781C785.774 248.644 786.307 248.61 786.83 248.68L852.58 257.17C853.104 257.235 853.609 257.404 854.067 257.665C854.525 257.926 854.927 258.276 855.249 258.693C855.572 259.11 855.809 259.587 855.946 260.096C856.084 260.606 856.119 261.137 856.05 261.66L845.24 346.49C845.18 347.018 845.015 347.528 844.755 347.992C844.495 348.455 844.145 348.862 843.726 349.189C843.307 349.515 842.828 349.755 842.315 349.895C841.802 350.034 841.267 350.07 840.74 350Z" class="change-color-in-svg-2" fill="#3562FF" style="fill: rgb(255, 81, 72);"/>
<path opacity="0.2" d="M840.74 350L774.8 341.4C774.276 341.335 773.77 341.166 773.311 340.904C772.852 340.642 772.45 340.292 772.127 339.873C771.805 339.455 771.568 338.977 771.431 338.466C771.295 337.956 771.26 337.424 771.33 336.9L782.33 252.15C782.396 251.626 782.564 251.119 782.826 250.661C783.088 250.202 783.439 249.8 783.857 249.477C784.275 249.154 784.754 248.918 785.264 248.781C785.774 248.644 786.307 248.61 786.83 248.68L852.58 257.17C853.104 257.235 853.609 257.404 854.067 257.665C854.525 257.926 854.927 258.276 855.249 258.693C855.572 259.11 855.809 259.587 855.946 260.096C856.084 260.606 856.119 261.137 856.05 261.66L845.24 346.49C845.18 347.018 845.015 347.528 844.755 347.992C844.495 348.455 844.145 348.862 843.726 349.189C843.307 349.515 842.828 349.755 842.315 349.895C841.802 350.034 841.267 350.07 840.74 350Z" fill="white"/>
<path d="M846.7 346.18L782.52 321.71C781.795 321.432 781.21 320.878 780.893 320.17C780.576 319.461 780.553 318.655 780.83 317.93L812.05 236C812.328 235.275 812.881 234.689 813.589 234.371C814.298 234.052 815.103 234.027 815.83 234.3L862.78 252.2L875.05 280L850.48 344.47C850.204 345.197 849.651 345.785 848.943 346.105C848.235 346.426 847.428 346.453 846.7 346.18V346.18Z" class="change-color-in-svg-2" fill="#3562FF" style="fill: rgb(255, 81, 72);"/>
<path opacity="0.6" d="M846.7 346.18L782.52 321.71C781.795 321.432 781.21 320.878 780.893 320.17C780.576 319.461 780.553 318.655 780.83 317.93L812.05 236C812.328 235.275 812.881 234.689 813.589 234.371C814.298 234.052 815.103 234.027 815.83 234.3L862.78 252.2L875.05 280L850.48 344.47C850.204 345.197 849.651 345.785 848.943 346.105C848.235 346.426 847.428 346.453 846.7 346.18V346.18Z" fill="white"/>
<path d="M875.05 280L857.83 273.44C857.105 273.162 856.52 272.608 856.203 271.9C855.887 271.191 855.864 270.385 856.14 269.66L862.78 252.23L875.05 280Z" class="change-color-in-svg-2" fill="#3562FF" style="fill: rgb(255, 81, 72);"/>
<path opacity="0.2" d="M875.05 280L857.83 273.44C857.105 273.162 856.52 272.608 856.203 271.9C855.887 271.191 855.864 270.385 856.14 269.66L862.78 252.23L875.05 280Z" fill="white"/>
<path d="M826.238 248.619L818.427 245.641L811.423 264.011L819.234 266.989L826.238 248.619Z" class="change-color-in-svg-2" fill="#3562FF" style="fill: rgb(255, 81, 72);"/>
<path d="M830.826 260.049L823.015 257.071L819.231 266.994L827.043 269.972L830.826 260.049Z" fill="white"/>
<path d="M860.191 292.645L808.08 272.777L806.477 276.982L858.588 296.85L860.191 292.645Z" fill="white"/>
<path d="M854.035 308.785L801.924 288.917L800.321 293.122L852.432 312.99L854.035 308.785Z" fill="white"/>
<path d="M832.342 318.988L795.779 305.048L794.176 309.253L830.739 323.193L832.342 318.988Z" fill="white"/>
<path d="M993.57 388.712L902.416 370.944L888.849 440.544L980.004 458.312L993.57 388.712Z" fill="white"/>
<path d="M988.061 392.569L906.064 376.586L894.35 436.685L976.347 452.668L988.061 392.569Z" class="change-color-in-svg-2" fill="#3562FF" style="fill: rgb(255, 81, 72);"/>
<path opacity="0.7" d="M988.061 392.569L906.064 376.586L894.35 436.685L976.347 452.668L988.061 392.569Z" fill="white"/>
<path d="M981.9 424.28L965.84 403.68C965.439 403.163 964.865 402.809 964.223 402.684C963.581 402.559 962.916 402.671 962.35 403L937.35 417.44L928.35 405.89C927.949 405.377 927.376 405.027 926.737 404.902C926.098 404.777 925.435 404.886 924.87 405.21L897.41 421.06L894.41 436.63L976.41 452.63L981.9 424.28Z" class="change-color-in-svg-2" fill="#3562FF" style="fill: rgb(255, 81, 72);"/>
<path opacity="0.2" d="M981.9 424.28L965.9 403.72C965.488 403.194 964.9 402.834 964.244 402.707C963.588 402.58 962.908 402.695 962.33 403.03L937.4 417.44L928.4 405.94C927.99 405.412 927.402 405.05 926.746 404.922C926.09 404.793 925.409 404.906 924.83 405.24L897.42 421.06L894.42 436.63L976.42 452.63L981.9 424.28Z" fill="white"/>
<path d="M941.311 400.17C943.984 400.17 946.151 398.003 946.151 395.33C946.151 392.657 943.984 390.49 941.311 390.49C938.638 390.49 936.471 392.657 936.471 395.33C936.471 398.003 938.638 400.17 941.311 400.17Z" fill="white"/>
<path opacity="0.15" d="M937.37 417.44L932.37 420.35C932.158 420.47 931.92 420.538 931.677 420.551C931.434 420.564 931.19 420.52 930.967 420.423C930.743 420.326 930.545 420.179 930.387 419.993C930.23 419.807 930.118 419.587 930.06 419.35L926.21 404.84C926.639 404.835 927.063 404.929 927.45 405.114C927.837 405.3 928.176 405.572 928.44 405.91L937.37 417.44Z" fill="black"/>
<path opacity="0.15" d="M981.91 424.28L977.91 444.81L964.32 402.72C964.938 402.863 965.486 403.216 965.87 403.72L981.91 424.28Z" fill="black"/>
<path d="M667.756 280.094L613.905 284.843C606.566 285.491 601.141 291.965 601.788 299.304L606.537 353.155C607.185 360.494 613.659 365.919 620.998 365.271L674.849 360.522C682.188 359.875 687.612 353.401 686.965 346.062L682.216 292.211C681.569 284.872 675.095 279.447 667.756 280.094Z" class="change-color-in-svg-2" fill="#3562FF" style="fill: rgb(255, 81, 72);"/>
<path opacity="0.2" d="M667.756 280.094L613.905 284.843C606.566 285.491 601.141 291.965 601.788 299.304L606.537 353.155C607.185 360.494 613.659 365.919 620.998 365.271L674.849 360.522C682.188 359.875 687.612 353.401 686.965 346.062L682.216 292.211C681.569 284.872 675.095 279.447 667.756 280.094Z" fill="white"/>
<path d="M661.62 301.08C661.451 300.925 661.248 300.812 661.027 300.751C660.806 300.69 660.574 300.683 660.35 300.73L632.59 308.73C632.172 308.851 631.814 309.123 631.583 309.491C631.353 309.86 631.266 310.301 631.34 310.73L633.2 335.54C631.725 334.67 630.015 334.285 628.31 334.44C626.871 334.664 625.529 335.304 624.448 336.281C623.368 337.258 622.597 338.529 622.23 339.939C621.863 341.348 621.916 342.834 622.383 344.214C622.85 345.594 623.709 346.807 624.857 347.705C626.004 348.602 627.388 349.144 628.84 349.265C630.291 349.386 631.746 349.08 633.026 348.385C634.306 347.689 635.354 346.635 636.042 345.351C636.731 344.068 637.029 342.611 636.9 341.16L635.48 321.4L660.1 314.1L661.44 329.31C659.964 328.443 658.255 328.058 656.55 328.21C655.111 328.434 653.769 329.074 652.688 330.051C651.608 331.028 650.837 332.299 650.47 333.709C650.103 335.118 650.156 336.604 650.623 337.984C651.09 339.364 651.949 340.577 653.097 341.475C654.244 342.372 655.628 342.914 657.08 343.035C658.531 343.156 659.986 342.85 661.266 342.154C662.546 341.459 663.594 340.405 664.283 339.121C664.971 337.838 665.269 336.381 665.14 334.93L662.27 302.47C662.258 302.207 662.195 301.949 662.084 301.71C661.972 301.472 661.814 301.257 661.62 301.08V301.08Z" fill="white"/>
<path d="M629.06 501.14L624.67 499.23L625.531 497.23L629.92 499.15L629.06 501.14ZM619.521 497L614.38 494.76L615.24 492.76L620.38 495L619.521 497ZM609.23 492.52L604.091 490.28L604.951 488.28L610.091 490.52L609.23 492.52ZM599 488L593.85 485.76L594.711 483.76L599.86 486L599 488ZM588.711 483.51L583.56 481.27L584.42 479.27L589.57 481.51L588.711 483.51ZM578.42 479.03L573.271 476.79L574.13 474.79L579.281 477.03L578.42 479.03ZM568.13 474.55L562.98 472.31L563.841 470.31L568.99 472.55L568.13 474.55Z" class="change-color-in-svg-1" fill="#15247C" style="fill: rgb(52, 2, 132);"/>
<path d="M680.19 410.61L677.38 405.76L679.24 404.68L682.05 409.53L680.19 410.61ZM674.56 400.9L671.75 396.05L673.61 394.97L676.42 399.82L674.56 400.9ZM668.93 391.19L666.12 386.34L667.98 385.26L670.79 390.11L668.93 391.19ZM663.3 381.49L660.49 376.63L662.35 375.55L665.16 380.41L663.3 381.49ZM657.67 371.78L654.86 366.92L656.72 365.84L659.54 370.7L657.67 371.78Z" class="change-color-in-svg-1" fill="#15247C" style="fill: rgb(52, 2, 132);"/>
<path d="M788.001 395.46L786.061 394.52L788.491 389.52L790.431 390.45L788.001 395.46ZM792.861 385.34L790.921 384.41L793.351 379.35L795.291 380.28L792.861 385.34ZM797.711 375.22L795.781 374.29L798.211 369.23L800.141 370.17L797.711 375.22ZM802.571 365.11L800.631 364.18L803.061 359.12L805.001 360.05L802.571 365.11ZM807.381 355L805.441 354.07L807.871 349.01L809.811 349.94L807.381 355Z" class="change-color-in-svg-1" fill="#15247C" style="fill: rgb(52, 2, 132);"/>
<path d="M805.62 467.51L804.88 465.51L810.14 463.57L810.89 465.57L805.62 467.51ZM816.15 463.62L815.4 461.62L820.67 459.68L821.41 461.68L816.15 463.62ZM826.68 459.73L825.93 457.73L831.19 455.79L831.94 457.79L826.68 459.73ZM837.2 455.84L836.46 453.84L841.72 451.9L842.46 453.9L837.2 455.84ZM847.73 452L846.98 450L852.24 448.06L852.99 450.06L847.73 452ZM858.25 448.11L857.51 446.11L862.77 444.11L863.52 446.11L858.25 448.11ZM868.78 444.22L868.03 442.22L873.3 440.27L874.04 442.27L868.78 444.22ZM879.31 440.33L878.56 438.33L883.82 436.38L884.57 438.38L879.31 440.33Z" class="change-color-in-svg-1" fill="#15247C" style="fill: rgb(52, 2, 132);"/>
<path d="M727 614.38H724.8V608.76H727V614.38ZM727 603.15H724.8V597.54H727V603.15ZM727 591.93H724.8V586.32H727V591.93ZM727 580.71H724.8V575.1H727V580.71ZM727 569.49H724.8V563.88H727V569.49ZM727 558.26H724.8V552.65H727V558.26ZM727 547H724.8V541.39H727V547ZM727 535.78H724.8V530.17H727V535.78ZM727 524.56H724.8V519H727V524.56ZM727 513.34H724.8V507.72H727V513.34Z" class="change-color-in-svg-1" fill="#15247C" style="fill: rgb(52, 2, 132);"/>
<path d="M727.62 572.71H722.72C721.588 572.71 720.67 573.628 720.67 574.76V579.66C720.67 580.792 721.588 581.71 722.72 581.71H727.62C728.752 581.71 729.67 580.792 729.67 579.66V574.76C729.67 573.628 728.752 572.71 727.62 572.71Z" class="change-color-in-svg-1" fill="#15247C" style="fill: rgb(52, 2, 132);"/>
<path d="M906.641 507.59H901.42C900.211 507.59 899.23 508.57 899.23 509.78V515C899.23 516.209 900.211 517.19 901.42 517.19H906.641C907.85 517.19 908.831 516.209 908.831 515V509.78C908.831 508.57 907.85 507.59 906.641 507.59Z" class="change-color-in-svg-1" fill="#15247C" style="fill: rgb(52, 2, 132);"/>
<path d="M1043.52 507.89H1038.62C1037.49 507.89 1036.57 508.808 1036.57 509.94V514.84C1036.57 515.972 1037.49 516.89 1038.62 516.89H1043.52C1044.65 516.89 1045.57 515.972 1045.57 514.84V509.94C1045.57 508.808 1044.65 507.89 1043.52 507.89Z" class="change-color-in-svg-1" fill="#15247C" style="fill: rgb(52, 2, 132);"/>
<path d="M1116.8 585.16H1111.9C1110.77 585.16 1109.85 586.078 1109.85 587.21V592.11C1109.85 593.242 1110.77 594.16 1111.9 594.16H1116.8C1117.93 594.16 1118.85 593.242 1118.85 592.11V587.21C1118.85 586.078 1117.93 585.16 1116.8 585.16Z" class="change-color-in-svg-1" fill="#15247C" style="fill: rgb(52, 2, 132);"/>
<path d="M1116.72 718.58L1111.82 718.665C1110.69 718.685 1109.79 719.619 1109.81 720.751L1109.89 725.65C1109.91 726.782 1110.85 727.684 1111.98 727.664L1116.88 727.578C1118.01 727.559 1118.91 726.625 1118.89 725.493L1118.81 720.594C1118.79 719.462 1117.85 718.56 1116.72 718.58Z" class="change-color-in-svg-1" fill="#15247C" style="fill: rgb(52, 2, 132);"/>
<path d="M1425.74 1050H185.271C185.048 1050 184.834 1049.91 184.677 1049.75C184.519 1049.6 184.431 1049.38 184.431 1049.16C184.431 1048.94 184.519 1048.72 184.677 1048.57C184.834 1048.41 185.048 1048.32 185.271 1048.32H1425.74C1425.96 1048.32 1426.18 1048.41 1426.33 1048.57C1426.49 1048.72 1426.58 1048.94 1426.58 1049.16C1426.58 1049.38 1426.49 1049.6 1426.33 1049.75C1426.18 1049.91 1425.96 1050 1425.74 1050V1050Z" class="change-color-in-svg-3" fill="#00BC7D" style="fill: rgb(40, 63, 255);"/>
<g opacity="0.6">
<path opacity="0.6" d="M1425.74 1050H185.271C185.048 1050 184.834 1049.91 184.677 1049.75C184.519 1049.6 184.431 1049.38 184.431 1049.16C184.431 1048.94 184.519 1048.72 184.677 1048.57C184.834 1048.41 185.048 1048.32 185.271 1048.32H1425.74C1425.96 1048.32 1426.18 1048.41 1426.33 1048.57C1426.49 1048.72 1426.58 1048.94 1426.58 1049.16C1426.58 1049.38 1426.49 1049.6 1426.33 1049.75C1426.18 1049.91 1425.96 1050 1425.74 1050V1050Z" fill="white"/>
</g>
<path d="M1149 831.47L1148.56 822.29C1148.48 820.653 1147.87 819.085 1146.83 817.82L1143.66 814C1143.25 813.505 1142.71 813.134 1142.11 812.929C1141.5 812.724 1140.84 812.693 1140.22 812.84L1132.83 814.55C1132.66 814.589 1132.5 814.685 1132.38 814.822C1132.27 814.959 1132.2 815.131 1132.19 815.31C1132.24 816.264 1132.65 817.165 1133.32 817.841C1134 818.518 1134.9 818.923 1135.85 818.98L1140.4 819.25L1141.25 820.9C1141.36 821.11 1141.38 821.351 1141.33 821.58L1139.79 824.58C1139.56 825.033 1139.23 825.429 1138.82 825.739C1138.42 826.048 1137.95 826.264 1137.45 826.37C1136.95 826.477 1136.43 826.471 1135.94 826.353C1135.44 826.235 1134.98 826.009 1134.58 825.69L1132 823.63L1127.74 831.63L1130.07 835.93C1130.7 837.102 1131.59 838.115 1132.68 838.894C1133.76 839.674 1135 840.199 1136.31 840.43L1137.31 840.6C1137.57 840.642 1137.81 840.735 1138.03 840.874C1138.25 841.013 1138.44 841.196 1138.59 841.41L1142.75 847.46L1153.82 838.32L1149.43 832.61C1149.17 832.284 1149.02 831.886 1149 831.47Z" fill="#FC9D9D"/>
<g opacity="0.15">
<path opacity="0.15" d="M1144.32 814.91C1145.37 816.173 1145.97 817.742 1146.05 819.38L1146.51 834.14C1146.52 834.53 1146.64 834.908 1146.86 835.23L1150.73 840.81L1153.73 838.31L1149.34 832.6C1149.09 832.275 1148.94 831.881 1148.92 831.47L1148.48 822.29C1148.4 820.652 1147.79 819.085 1146.75 817.82L1143.58 814C1143.47 813.873 1143.36 813.753 1143.24 813.64L1144.32 814.91Z" fill="black"/>
</g>
<path d="M1199.93 868.5L1190.26 877.74L1152.2 836.28L1140.08 843.8L1177.34 902.24C1178.55 904.131 1180.17 905.722 1182.08 906.891C1184 908.059 1186.16 908.776 1188.39 908.985C1190.62 909.194 1192.88 908.891 1194.97 908.098C1197.07 907.305 1198.96 906.044 1200.5 904.41L1221.5 882.04L1199.93 868.5Z" class="change-color-in-svg-3" fill="#00BC7D" style="fill: rgb(40, 63, 255);"/>
<path d="M1127.48 819.27L1126.63 829.87L1114.93 808.2C1114.62 807.635 1114.55 806.973 1114.72 806.354C1114.89 805.735 1115.3 805.206 1115.85 804.88V804.88C1116.41 804.549 1117.08 804.452 1117.71 804.611C1118.35 804.77 1118.89 805.172 1119.23 805.73L1127.48 819.27Z" fill="#FC9D9D"/>
<path opacity="0.15" d="M1119.23 805.73C1118.96 805.296 1118.57 804.954 1118.1 804.752C1117.64 804.549 1117.12 804.496 1116.62 804.6C1116.97 804.804 1117.26 805.089 1117.47 805.43L1122.31 813.43C1122.86 814.344 1123.2 815.369 1123.31 816.43L1124.39 825.83L1126.61 829.96L1127.46 819.36L1119.23 805.73Z" fill="black"/>
<path opacity="0.15" d="M1135.62 829.1L1132.7 826.93L1132.46 826.54L1131.79 832.59L1132.31 832.72L1132.61 830.14C1132.74 830.497 1132.96 830.812 1133.25 831.055C1133.54 831.297 1133.9 831.458 1134.27 831.52L1136.42 831.57L1135.62 829.1Z" fill="black"/>
<path d="M1111 786.38L1110 786.98C1109.79 787.108 1109.61 787.277 1109.46 787.476C1109.32 787.675 1109.21 787.901 1109.15 788.141C1109.1 788.381 1109.09 788.63 1109.13 788.873C1109.16 789.117 1109.25 789.35 1109.38 789.56L1135.52 831.8C1135.65 832.013 1135.83 832.198 1136.03 832.343C1136.24 832.488 1136.47 832.591 1136.71 832.645C1136.96 832.699 1137.21 832.703 1137.46 832.658C1137.71 832.612 1137.94 832.518 1138.15 832.38L1139.59 831.38C1140 831.112 1140.29 830.693 1140.39 830.213C1140.49 829.734 1140.4 829.233 1140.14 828.82L1113.57 787C1113.31 786.577 1112.9 786.274 1112.41 786.158C1111.93 786.042 1111.42 786.121 1111 786.38Z" class="change-color-in-svg-2" fill="#3562FF" style="fill: rgb(255, 81, 72);"/>
<path d="M1123.09 808.85L1125.15 827.01L1130.08 836.01L1130.71 830.35L1127.85 808.3C1127.78 807.712 1127.49 807.173 1127.04 806.787C1126.59 806.401 1126.01 806.195 1125.42 806.21V806.21C1125.09 806.218 1124.76 806.294 1124.46 806.434C1124.17 806.573 1123.9 806.773 1123.68 807.021C1123.46 807.269 1123.29 807.559 1123.19 807.874C1123.09 808.189 1123.06 808.521 1123.09 808.85V808.85Z" fill="#FC9D9D"/>
<path d="M1129.49 818.28L1127.33 829.7L1130.95 835.44L1132.84 818.78C1132.87 818.46 1132.82 818.138 1132.68 817.849C1132.53 817.561 1132.31 817.318 1132.04 817.15V817.15C1131.81 817.006 1131.54 816.92 1131.27 816.902C1130.99 816.883 1130.72 816.931 1130.47 817.043C1130.22 817.154 1130 817.325 1129.83 817.54C1129.66 817.756 1129.54 818.01 1129.49 818.28V818.28Z" fill="#FC9D9D"/>
<path opacity="0.15" d="M1129.29 819.35L1127.81 827.19L1128.37 812.26L1129.29 819.35Z" fill="black"/>
<path opacity="0.6" d="M1152.2 836.28L1154.42 838.7L1141.89 846.64L1140.08 843.8L1152.2 836.28Z" fill="black"/>
<path d="M1185.87 905.86C1186.77 905.86 1187.5 905.13 1187.5 904.23C1187.5 903.33 1186.77 902.6 1185.87 902.6C1184.97 902.6 1184.24 903.33 1184.24 904.23C1184.24 905.13 1184.97 905.86 1185.87 905.86Z" fill="white"/>
<path d="M1206.65 763.73C1216.04 763.73 1223.65 756.119 1223.65 746.73C1223.65 737.341 1216.04 729.73 1206.65 729.73C1197.26 729.73 1189.65 737.341 1189.65 746.73C1189.65 756.119 1197.26 763.73 1206.65 763.73Z" class="change-color-in-svg-2" fill="#3562FF" style="fill: rgb(255, 81, 72);"/>
<path d="M734.101 1001L724.101 998.82C723.705 998.733 723.294 998.736 722.9 998.829C722.505 998.922 722.136 999.102 721.821 999.357C721.505 999.611 721.25 999.933 721.075 1000.3C720.901 1000.66 720.81 1001.06 720.811 1001.47V1001.47C720.811 1002.01 720.972 1002.54 721.273 1002.98C721.574 1003.43 722.001 1003.78 722.501 1003.98L734.691 1008.98L734.101 1001Z" fill="#FC9D9D"/>
<path opacity="0.15" d="M734.101 1001L724.101 998.82C723.705 998.733 723.294 998.736 722.9 998.829C722.505 998.922 722.136 999.102 721.821 999.357C721.505 999.611 721.25 999.933 721.075 1000.3C720.901 1000.66 720.81 1001.06 720.811 1001.47V1001.47C720.811 1002.01 720.972 1002.54 721.273 1002.98C721.574 1003.43 722.001 1003.78 722.501 1003.98L734.691 1008.98L734.101 1001Z" fill="black"/>
<path d="M809.93 1018.59L779.65 1021.75C776.249 1022.1 772.823 1021.4 769.83 1019.75L738 1001.64C734.686 1000.01 731.603 997.942 728.83 995.5L728.7 995.39C728.176 994.921 727.514 994.633 726.813 994.57C726.112 994.507 725.41 994.672 724.81 995.04L724.74 995.09C724.349 995.33 724.011 995.648 723.747 996.023C723.483 996.399 723.298 996.825 723.205 997.274C723.111 997.724 723.11 998.188 723.202 998.637C723.294 999.087 723.477 999.513 723.74 999.89L736.16 1017.71C737.79 1020.04 743.26 1024.23 745.79 1025.51C749.541 1027.4 752.468 1030.61 754.02 1034.51L757.16 1042.51C757.708 1043.9 758.55 1045.16 759.627 1046.2C760.704 1047.24 761.992 1048.04 763.403 1048.54C764.815 1049.04 766.318 1049.23 767.809 1049.1C769.301 1048.97 770.747 1048.52 772.05 1047.78L776.3 1045.37L811.19 1047.59L809.93 1018.59Z" fill="#FC9D9D"/>
<g opacity="0.2">
<path opacity="0.2" d="M774.641 1042.18C774.34 1042.19 774.044 1042.25 773.771 1042.38L770.411 1043.88C766.291 1046.21 760.411 1044.61 756.641 1041.2L757.171 1042.54C757.719 1043.93 758.56 1045.19 759.637 1046.23C760.714 1047.27 762.002 1048.07 763.414 1048.57C764.826 1049.07 766.328 1049.26 767.82 1049.13C769.312 1049 770.758 1048.55 772.061 1047.81L776.311 1045.4L811.201 1047.62L810.911 1040.94L774.641 1042.18Z" fill="black"/>
</g>
<path d="M880.71 1015.8L831.91 1036.39C830.721 1036.91 829.708 1037.76 828.998 1038.84C828.287 1039.93 827.909 1041.19 827.91 1042.49V1042.49C827.91 1044.25 828.608 1045.93 829.849 1047.17C831.091 1048.41 832.774 1049.11 834.53 1049.11H894.32C897.711 1049.11 900.98 1047.85 903.494 1045.58C906.007 1043.3 907.585 1040.17 907.92 1036.8L908.63 1029.74L923.26 1012.93L898.69 997.13L880.71 1015.8Z" fill="#FC9D9D"/>
<path d="M1170.91 932.51L1036.3 868.28C1030.35 865.449 1023.64 864.654 1017.19 866.018C1010.75 867.383 1004.93 870.831 1000.64 875.83L895 999.24L916.42 1018.69L1020.8 923.77L1120.61 987.06L1166.44 967.3L1170.91 932.51Z" class="change-color-in-svg-1" fill="#15247C" style="fill: rgb(52, 2, 132);"/>
<path opacity="0.2" d="M1158 944.23C1157.74 944.073 1157.43 944.013 1157.13 944.061C1156.83 944.108 1156.56 944.26 1156.36 944.49L1141.68 960.36C1141.21 960.87 1140.58 961.211 1139.9 961.331C1139.21 961.45 1138.51 961.341 1137.89 961.02L1032.53 907.61C1029.84 906.243 1026.79 905.743 1023.81 906.178C1020.82 906.613 1018.05 907.962 1015.86 910.04L908.641 1011.72L916.421 1018.72L1020.8 923.8L1120.61 987.09L1157.47 971.2L1142.22 963.29L1158.22 946.16C1158.35 946.028 1158.45 945.868 1158.52 945.692C1158.58 945.515 1158.6 945.327 1158.58 945.142C1158.56 944.956 1158.49 944.778 1158.39 944.62C1158.29 944.462 1158.16 944.329 1158 944.23Z" fill="black"/>
<path d="M1328.34 1035.87C1328.97 1035.96 1329.58 1036.12 1330.18 1036.33L1351.69 1044.21C1352 1044.32 1352.29 1044.51 1352.52 1044.74C1352.76 1044.98 1352.94 1045.26 1353.05 1045.58C1353.17 1045.89 1353.21 1046.23 1353.18 1046.56C1353.15 1046.89 1353.05 1047.21 1352.88 1047.5V1047.5C1352.61 1047.97 1352.18 1048.34 1351.66 1048.52C1351.14 1048.7 1350.58 1048.7 1350.07 1048.5L1330.81 1040.89L1325.2 1035.46L1328.34 1035.87Z" fill="#FC9D9D"/>
<path opacity="0.15" d="M1328.23 1035.84C1328.85 1035.92 1329.45 1036.07 1330.04 1036.28L1351.69 1044.21C1352 1044.32 1352.29 1044.51 1352.52 1044.74C1352.76 1044.98 1352.94 1045.26 1353.05 1045.58C1353.17 1045.89 1353.21 1046.23 1353.18 1046.56C1353.15 1046.89 1353.05 1047.21 1352.88 1047.5V1047.5C1352.61 1047.97 1352.18 1048.34 1351.66 1048.52C1351.14 1048.7 1350.58 1048.7 1350.07 1048.5L1330.81 1040.89L1325.2 1035.46L1328.23 1035.84Z" fill="black"/>
<path opacity="0.15" d="M1199.93 868.5L1194.2 874L1194.79 875.66C1195.38 877.317 1195.29 879.14 1194.54 880.73L1188.16 894.21C1187.7 895.183 1187.01 896.031 1186.16 896.681C1185.3 897.331 1184.3 897.763 1183.24 897.942C1182.17 898.121 1181.09 898.04 1180.06 897.708C1179.04 897.375 1178.11 896.799 1177.36 896.03L1166 884.48L1177.32 902.24C1178.53 904.151 1180.17 905.754 1182.11 906.92V906.92L1182.6 907.18L1183.25 907.53L1183.75 907.75L1184.43 908.04L1184.95 908.22L1185.65 908.44H1185.81C1188.39 909.154 1191.11 909.149 1193.69 908.424C1196.26 907.7 1198.59 906.284 1200.42 904.33L1221.42 881.96L1199.93 868.5Z" fill="black"/>
<path d="M1285.61 1023.58L1304.51 1015.07L1305.62 1030.91C1305.66 1031.51 1305.91 1032.07 1306.32 1032.5C1306.74 1032.93 1307.29 1033.21 1307.88 1033.28L1325.95 1035.52C1327.32 1035.67 1328.67 1036.01 1329.95 1036.52L1347.84 1043.91C1348.15 1044.04 1348.43 1044.23 1348.67 1044.48C1348.9 1044.72 1349.08 1045.01 1349.2 1045.32C1349.31 1045.64 1349.36 1045.98 1349.34 1046.31C1349.32 1046.65 1349.23 1046.98 1349.08 1047.28V1047.33C1348.82 1047.84 1348.39 1048.25 1347.87 1048.48C1347.34 1048.72 1346.75 1048.76 1346.2 1048.61L1325.2 1042.92L1303.72 1048.66C1302.1 1049.13 1300.4 1049.25 1298.73 1049.03C1297.06 1048.8 1295.45 1048.23 1294.02 1047.34C1292.58 1046.46 1291.35 1045.28 1290.4 1043.89C1289.44 1042.5 1288.79 1040.93 1288.48 1039.27L1288.08 1037.09L1285.61 1023.58Z" fill="#FC9D9D"/>
<path d="M1223 989.44L1211.42 1009.44C1204.43 1021.51 1194.4 1031.52 1182.32 1038.49C1170.24 1045.45 1156.54 1049.12 1142.6 1049.12H791.75V1020.22L1125.83 980.77L1171.83 931.7C1183.78 973.39 1211.41 984.5 1223 989.44Z" class="change-color-in-svg-1" fill="#15247C" style="fill: rgb(52, 2, 132);"/>
<path d="M1311.23 1041.87L1322.51 1042.81C1323.81 1042.92 1325.03 1043.51 1325.91 1044.47C1326.8 1045.43 1327.29 1046.69 1327.29 1048V1048C1327.29 1048.16 1327.26 1048.31 1327.2 1048.46C1327.14 1048.6 1327.05 1048.73 1326.94 1048.84C1326.83 1048.96 1326.69 1049.04 1326.55 1049.1C1326.4 1049.16 1326.25 1049.19 1326.09 1049.19H1301.53L1311.23 1041.87Z" fill="#FC9D9D"/>
<g opacity="0.15">
<path opacity="0.15" d="M1324.16 1043.25C1323.74 1043.08 1323.3 1042.97 1322.85 1042.93L1313.56 1042.16C1313.47 1042.15 1313.39 1042.13 1313.31 1042.09C1313.24 1042.05 1313.17 1042 1313.11 1041.93C1313.06 1041.87 1313.02 1041.79 1312.99 1041.71C1312.96 1041.63 1312.95 1041.55 1312.96 1041.46V1041.46C1312.98 1041.29 1313.06 1041.13 1313.19 1041.01C1313.32 1040.9 1313.5 1040.85 1313.67 1040.86L1322.97 1041.64C1323.85 1041.8 1324.64 1042.27 1325.2 1042.97L1324.16 1043.25Z" fill="black"/>
</g>
<path opacity="0.15" d="M1307.91 1033.29L1302.79 1032.98C1302.13 1032.9 1301.51 1032.61 1301.04 1032.14C1300.56 1031.67 1300.26 1031.06 1300.17 1030.4L1299.67 1024.06L1305.3 1023.82L1305.67 1030.97C1305.71 1031.56 1305.95 1032.12 1306.36 1032.54C1306.77 1032.97 1307.32 1033.23 1307.91 1033.29V1033.29Z" fill="black"/>
<path d="M1293.48 820C1293.1 813.425 1290.21 807.245 1285.42 802.724C1280.63 798.204 1274.3 795.684 1267.71 795.68L1236.88 802C1227.22 804 1223.34 812.37 1219.47 820.91L1215.9 829.18C1214.01 833.18 1212.8 836.57 1209.56 838.92L1205.02 842.44C1197.46 847.93 1194.93 857.29 1198.16 866.39L1201.29 876.09C1201.87 877.749 1201.78 879.569 1201.03 881.16L1184.03 917.38C1181.3 923.138 1177.09 928.064 1171.82 931.65V931.65C1169.78 933.043 1168.28 935.092 1167.56 937.457C1166.85 939.822 1166.96 942.36 1167.89 944.65C1179.57 973.5 1209.33 985.59 1221.52 989.87C1222.84 990.336 1224.29 990.311 1225.59 989.798C1226.9 989.286 1227.98 988.321 1228.63 987.08L1269.35 921.7L1285.8 1024.6L1305.33 1023.8L1293.48 820Z" class="change-color-in-svg-3" fill="#00BC7D" style="fill: rgb(40, 63, 255);"/>
<path opacity="0.15" d="M1293.48 820C1293.18 814.773 1291.29 809.762 1288.08 805.63C1284.87 801.498 1280.47 798.439 1275.48 796.86C1281.3 802.23 1283.57 814.32 1284.39 826.41L1299.72 1024.06L1305.35 1023.82L1293.48 820Z" fill="black"/>
<path opacity="0.15" d="M1190.26 877.74L1185.85 882.01C1185.79 882.075 1185.72 882.127 1185.63 882.162C1185.55 882.198 1185.46 882.216 1185.38 882.216C1185.29 882.216 1185.2 882.198 1185.12 882.162C1185.03 882.127 1184.96 882.075 1184.9 882.01V882.01C1184.79 881.888 1184.73 881.729 1184.73 881.565C1184.73 881.4 1184.79 881.241 1184.9 881.12L1189.33 876.82L1190.26 877.74Z" fill="black"/>
<path opacity="0.2" d="M1206.65 763.73C1216.04 763.73 1223.65 756.119 1223.65 746.73C1223.65 737.341 1216.04 729.73 1206.65 729.73C1197.26 729.73 1189.65 737.341 1189.65 746.73C1189.65 756.119 1197.26 763.73 1206.65 763.73Z" fill="black"/>
<path opacity="0.2" d="M1203.38 981.85L1192.81 999.22C1187.71 1007.84 1180.53 1015.05 1171.92 1020.18C1163.32 1025.31 1153.56 1028.19 1143.55 1028.57L791.75 1041.87V1049.11H1142.59C1156.53 1049.11 1170.23 1045.44 1182.31 1038.48C1194.39 1031.51 1204.42 1021.5 1211.41 1009.43L1222.57 990.16C1215.91 988.031 1209.49 985.248 1203.38 981.85V981.85Z" fill="black"/>
<path d="M1205.55 773.92C1205.59 774.122 1205.56 774.333 1205.46 774.515C1205.37 774.698 1205.21 774.841 1205.02 774.92V774.92C1204.34 775.194 1203.78 775.687 1203.42 776.32C1203.06 776.952 1202.92 777.688 1203.02 778.41V778.41C1203.09 778.921 1203.28 779.409 1203.57 779.834C1203.86 780.259 1204.25 780.611 1204.7 780.86L1206.31 781.75L1211.79 791.67C1213.01 793.872 1214.99 795.544 1217.37 796.365C1219.75 797.185 1222.35 797.094 1224.66 796.11L1233.66 792.28L1238.61 804.54C1238.81 805.091 1238.86 805.682 1238.78 806.26C1238.69 806.838 1238.45 807.384 1238.1 807.85L1231.1 817.22C1230.39 818.166 1229.94 819.281 1229.8 820.454C1229.65 821.627 1229.81 822.818 1230.27 823.909C1230.72 825.001 1231.46 825.954 1232.39 826.675C1233.33 827.396 1234.44 827.859 1235.61 828.02V828.02C1238.45 828.404 1241.34 828.107 1244.05 827.152C1246.75 826.198 1249.19 824.613 1251.16 822.53L1275.45 796.77L1260.56 775.16C1258.75 774.849 1257.03 774.18 1255.48 773.192C1253.94 772.205 1252.6 770.919 1251.56 769.41L1237.83 749.59L1201.74 748.51L1205.55 773.92Z" fill="#FC9D9D"/>
<path d="M1238 829.57C1237.13 829.568 1236.26 829.511 1235.4 829.4C1234 829.21 1232.68 828.658 1231.56 827.799C1230.45 826.94 1229.57 825.805 1229.03 824.504C1228.48 823.204 1228.29 821.784 1228.46 820.385C1228.64 818.987 1229.17 817.658 1230.02 816.53L1237.02 807.16C1237.24 806.863 1237.39 806.516 1237.44 806.15C1237.5 805.784 1237.46 805.409 1237.34 805.06L1238.34 804.06C1238.88 805.59 1239.01 806.58 1237.72 808.63L1232.06 818.05C1231.49 818.814 1231.12 819.714 1231 820.661C1230.89 821.608 1231.02 822.57 1231.39 823.451C1231.75 824.333 1232.34 825.102 1233.1 825.684C1233.86 826.266 1234.75 826.641 1235.7 826.77C1238.34 827.129 1241.02 826.854 1243.53 825.969C1246.04 825.084 1248.3 823.614 1250.13 821.68L1274.48 796L1276.38 797.79L1252.08 823.54C1250.27 825.449 1248.08 826.969 1245.66 828.006C1243.24 829.043 1240.63 829.575 1238 829.57V829.57Z" class="change-color-in-svg-3" fill="#00BC7D" style="fill: rgb(40, 63, 255);"/>
<g opacity="0.6">
<path opacity="0.6" d="M1238 829.57C1237.13 829.568 1236.26 829.511 1235.4 829.4C1234 829.21 1232.68 828.658 1231.56 827.799C1230.45 826.94 1229.57 825.805 1229.03 824.504C1228.48 823.204 1228.29 821.784 1228.46 820.385C1228.64 818.987 1229.17 817.658 1230.02 816.53L1237.02 807.16C1237.24 806.863 1237.39 806.516 1237.44 806.15C1237.5 805.784 1237.46 805.409 1237.34 805.06L1238.34 804.06C1238.88 805.59 1239.01 806.58 1237.72 808.63L1232.06 818.05C1231.49 818.814 1231.12 819.714 1231 820.661C1230.89 821.608 1231.02 822.57 1231.39 823.451C1231.75 824.333 1232.34 825.102 1233.1 825.684C1233.86 826.266 1234.75 826.641 1235.7 826.77C1238.34 827.129 1241.02 826.854 1243.53 825.969C1246.04 825.084 1248.3 823.614 1250.13 821.68L1274.48 796L1276.38 797.79L1252.08 823.54C1250.27 825.449 1248.08 826.969 1245.66 828.006C1243.24 829.043 1240.63 829.575 1238 829.57V829.57Z" fill="black"/>
</g>
<path opacity="0.15" d="M1255.18 771.89L1250.45 765.86L1246.34 771.88L1255.18 771.89Z" fill="black"/>
<path opacity="0.15" d="M1233.66 792.37L1238.61 790.25C1238.78 790.177 1238.97 790.155 1239.15 790.188C1239.33 790.221 1239.5 790.307 1239.63 790.435C1239.77 790.563 1239.86 790.728 1239.9 790.908C1239.94 791.089 1239.93 791.277 1239.86 791.45L1236.66 799.78L1233.66 792.37Z" fill="black"/>
<path d="M1272.49 756.3H1272.27C1270.88 756.244 1269.57 755.679 1268.57 754.712C1267.57 753.745 1266.97 752.445 1266.87 751.06C1266.65 747.575 1266.04 744.126 1265.04 740.78C1256.25 711.26 1208.39 710.97 1201.35 745.09C1200.94 746.071 1200.7 747.117 1200.66 748.18C1200.63 748.616 1200.63 749.054 1200.66 749.49L1200.6 749.97H1200.71C1201.03 752.216 1202.15 754.272 1203.86 755.76C1205.57 757.248 1207.76 758.068 1210.03 758.07C1211.75 758.073 1213.44 757.599 1214.91 756.7C1215.8 756.14 1216.87 755.951 1217.89 756.174C1218.92 756.396 1219.82 757.013 1220.39 757.89C1221.68 759.94 1223.37 761.7 1225.38 763.057C1227.38 764.413 1229.65 765.337 1232.03 765.769C1234.41 766.201 1236.85 766.132 1239.21 765.565C1241.56 764.999 1243.77 763.948 1245.69 762.48C1247.57 763.352 1249.1 764.841 1250.02 766.7C1246.54 771.302 1244.7 776.932 1244.78 782.7C1244.84 787.778 1246.39 792.728 1249.23 796.941C1252.06 801.154 1256.07 804.448 1260.75 806.418C1265.43 808.389 1270.58 808.95 1275.58 808.034C1280.57 807.117 1285.19 804.762 1288.87 801.259C1292.54 797.755 1295.12 793.254 1296.27 788.309C1297.43 783.363 1297.12 778.188 1295.37 773.417C1293.63 768.647 1290.53 764.489 1286.46 761.454C1282.39 758.419 1277.52 756.638 1272.45 756.33L1272.49 756.3Z" class="change-color-in-svg-2" fill="#3562FF" style="fill: rgb(255, 81, 72);"/>
<path opacity="0.2" d="M1272.49 756.3H1272.27C1270.88 756.244 1269.57 755.679 1268.57 754.712C1267.57 753.745 1266.97 752.445 1266.87 751.06C1266.65 747.575 1266.04 744.126 1265.04 740.78C1256.25 711.26 1208.39 710.97 1201.35 745.09C1200.94 746.071 1200.7 747.117 1200.66 748.18C1200.63 748.616 1200.63 749.054 1200.66 749.49L1200.6 749.97H1200.71C1201.03 752.216 1202.15 754.272 1203.86 755.76C1205.57 757.248 1207.76 758.068 1210.03 758.07C1211.75 758.073 1213.44 757.599 1214.91 756.7C1215.8 756.14 1216.87 755.951 1217.89 756.174C1218.92 756.396 1219.82 757.013 1220.39 757.89C1221.68 759.94 1223.37 761.7 1225.38 763.057C1227.38 764.413 1229.65 765.337 1232.03 765.769C1234.41 766.201 1236.85 766.132 1239.21 765.565C1241.56 764.999 1243.77 763.948 1245.69 762.48C1247.57 763.352 1249.1 764.841 1250.02 766.7C1246.54 771.302 1244.7 776.932 1244.78 782.7C1244.84 787.778 1246.39 792.728 1249.23 796.941C1252.06 801.154 1256.07 804.448 1260.75 806.418C1265.43 808.389 1270.58 808.95 1275.58 808.034C1280.57 807.117 1285.19 804.762 1288.87 801.259C1292.54 797.755 1295.12 793.254 1296.27 788.309C1297.43 783.363 1297.12 778.188 1295.37 773.417C1293.63 768.647 1290.53 764.489 1286.46 761.454C1282.39 758.419 1277.52 756.638 1272.45 756.33L1272.49 756.3Z" fill="black"/>
<path opacity="0.15" d="M1208.34 785.54C1209.72 784.936 1210.86 783.877 1211.56 782.54C1211.65 782.362 1211.8 782.223 1211.98 782.15C1212.17 782.076 1212.37 782.073 1212.56 782.14V782.14C1212.67 782.181 1212.76 782.244 1212.84 782.324C1212.92 782.405 1212.99 782.501 1213.03 782.608C1213.07 782.714 1213.09 782.828 1213.08 782.942C1213.08 783.056 1213.05 783.168 1213 783.27C1212.16 784.912 1210.79 786.225 1209.11 787L1208.34 785.54Z" fill="black"/>
<path opacity="0.15" d="M1219.47 821L1215.9 829.27C1214.01 833.27 1212.8 836.66 1209.56 839.01L1216.2 834.75C1217.63 833.839 1218.71 832.477 1219.27 830.88L1224.44 812.56L1225.05 810.39C1222.88 813.757 1221.02 817.307 1219.47 821V821Z" fill="black"/>
<path d="M1208.25 770.41C1209.42 770.41 1210.37 769.461 1210.37 768.29C1210.37 767.119 1209.42 766.17 1208.25 766.17C1207.08 766.17 1206.13 767.119 1206.13 768.29C1206.13 769.461 1207.08 770.41 1208.25 770.41Z" fill="black"/>
<path d="M1207.35 769.45C1207.62 769.45 1207.83 769.235 1207.83 768.97C1207.83 768.705 1207.62 768.49 1207.35 768.49C1207.09 768.49 1206.87 768.705 1206.87 768.97C1206.87 769.235 1207.09 769.45 1207.35 769.45Z" fill="white"/>
<path opacity="0.6" d="M1285.77 1024.62L1285.21 1021.11L1305.09 1020.27L1305.3 1023.82L1285.77 1024.62Z" fill="black"/>
<path d="M1281.16 878.4C1282.06 878.4 1282.79 877.67 1282.79 876.77C1282.79 875.87 1282.06 875.14 1281.16 875.14C1280.26 875.14 1279.53 875.87 1279.53 876.77C1279.53 877.67 1280.26 878.4 1281.16 878.4Z" fill="white"/>
<path d="M1225.05 986.94C1225.95 986.94 1226.68 986.21 1226.68 985.31C1226.68 984.41 1225.95 983.68 1225.05 983.68C1224.15 983.68 1223.42 984.41 1223.42 985.31C1223.42 986.21 1224.15 986.94 1225.05 986.94Z" fill="white"/>
<path d="M1225.05 955.48C1225.95 955.48 1226.68 954.75 1226.68 953.85C1226.68 952.95 1225.95 952.22 1225.05 952.22C1224.15 952.22 1223.42 952.95 1223.42 953.85C1223.42 954.75 1224.15 955.48 1225.05 955.48Z" fill="white"/>
<path d="M1204.93 940.39C1205.83 940.39 1206.56 939.66 1206.56 938.76C1206.56 937.86 1205.83 937.13 1204.93 937.13C1204.03 937.13 1203.3 937.86 1203.3 938.76C1203.3 939.66 1204.03 940.39 1204.93 940.39Z" fill="white"/>
<path d="M1185.87 922.04C1186.77 922.04 1187.5 921.31 1187.5 920.41C1187.5 919.51 1186.77 918.78 1185.87 918.78C1184.97 918.78 1184.24 919.51 1184.24 920.41C1184.24 921.31 1184.97 922.04 1185.87 922.04Z" fill="white"/>
<path d="M1276.27 936.72C1277.17 936.72 1277.9 935.99 1277.9 935.09C1277.9 934.19 1277.17 933.46 1276.27 933.46C1275.37 933.46 1274.64 934.19 1274.64 935.09C1274.64 935.99 1275.37 936.72 1276.27 936.72Z" fill="white"/>
<path d="M1258.76 905.79C1259.66 905.79 1260.39 905.06 1260.39 904.16C1260.39 903.26 1259.66 902.53 1258.76 902.53C1257.86 902.53 1257.13 903.26 1257.13 904.16C1257.13 905.06 1257.86 905.79 1258.76 905.79Z" fill="white"/>
<path d="M1301.3 1011.19C1302.2 1011.19 1302.93 1010.46 1302.93 1009.56C1302.93 1008.66 1302.2 1007.93 1301.3 1007.93C1300.4 1007.93 1299.67 1008.66 1299.67 1009.56C1299.67 1010.46 1300.4 1011.19 1301.3 1011.19Z" fill="white"/>
<path d="M1283.58 988.57C1284.48 988.57 1285.21 987.84 1285.21 986.94C1285.21 986.04 1284.48 985.31 1283.58 985.31C1282.68 985.31 1281.95 986.04 1281.95 986.94C1281.95 987.84 1282.68 988.57 1283.58 988.57Z" fill="white"/>
<path d="M1297.01 957.11C1297.91 957.11 1298.64 956.38 1298.64 955.48C1298.64 954.58 1297.91 953.85 1297.01 953.85C1296.11 953.85 1295.38 954.58 1295.38 955.48C1295.38 956.38 1296.11 957.11 1297.01 957.11Z" fill="white"/>
<path d="M1295.38 909.05C1296.28 909.05 1297.01 908.32 1297.01 907.42C1297.01 906.52 1296.28 905.79 1295.38 905.79C1294.48 905.79 1293.75 906.52 1293.75 907.42C1293.75 908.32 1294.48 909.05 1295.38 909.05Z" fill="white"/>
<path d="M1199.01 965.62C1199.91 965.62 1200.64 964.89 1200.64 963.99C1200.64 963.09 1199.91 962.36 1199.01 962.36C1198.11 962.36 1197.38 963.09 1197.38 963.99C1197.38 964.89 1198.11 965.62 1199.01 965.62Z" fill="white"/>
<path d="M1232.03 918.78C1232.93 918.78 1233.66 918.05 1233.66 917.15C1233.66 916.25 1232.93 915.52 1232.03 915.52C1231.13 915.52 1230.4 916.25 1230.4 917.15C1230.4 918.05 1231.13 918.78 1232.03 918.78Z" fill="white"/>
<path d="M1239.92 886.53C1240.82 886.53 1241.55 885.8 1241.55 884.9C1241.55 884 1240.82 883.27 1239.92 883.27C1239.02 883.27 1238.29 884 1238.29 884.9C1238.29 885.8 1239.02 886.53 1239.92 886.53Z" fill="white"/>
<path d="M1228.41 854.82C1229.31 854.82 1230.04 854.09 1230.04 853.19C1230.04 852.29 1229.31 851.56 1228.41 851.56C1227.51 851.56 1226.78 852.29 1226.78 853.19C1226.78 854.09 1227.51 854.82 1228.41 854.82Z" fill="white"/>
<path d="M1204.93 912.9C1205.83 912.9 1206.56 912.17 1206.56 911.27C1206.56 910.37 1205.83 909.64 1204.93 909.64C1204.03 909.64 1203.3 910.37 1203.3 911.27C1203.3 912.17 1204.03 912.9 1204.93 912.9Z" fill="white"/>
<path d="M1209.56 881.11C1210.46 881.11 1211.19 880.38 1211.19 879.48C1211.19 878.58 1210.46 877.85 1209.56 877.85C1208.66 877.85 1207.93 878.58 1207.93 879.48C1207.93 880.38 1208.66 881.11 1209.56 881.11Z" fill="white"/>
<path d="M1205.06 850.02C1205.96 850.02 1206.69 849.29 1206.69 848.39C1206.69 847.49 1205.96 846.76 1205.06 846.76C1204.16 846.76 1203.43 847.49 1203.43 848.39C1203.43 849.29 1204.16 850.02 1205.06 850.02Z" fill="white"/>
<path d="M1182.43 876.77C1183.33 876.77 1184.06 876.04 1184.06 875.14C1184.06 874.24 1183.33 873.51 1182.43 873.51C1181.53 873.51 1180.8 874.24 1180.8 875.14C1180.8 876.04 1181.53 876.77 1182.43 876.77Z" fill="white"/>
<path d="M1160.23 870.13C1161.13 870.13 1161.86 869.4 1161.86 868.5C1161.86 867.6 1161.13 866.87 1160.23 866.87C1159.33 866.87 1158.6 867.6 1158.6 868.5C1158.6 869.4 1159.33 870.13 1160.23 870.13Z" fill="white"/>
<path d="M1152.12 846.64C1153.02 846.64 1153.75 845.91 1153.75 845.01C1153.75 844.11 1153.02 843.38 1152.12 843.38C1151.22 843.38 1150.49 844.11 1150.49 845.01C1150.49 845.91 1151.22 846.64 1152.12 846.64Z" fill="white"/>
<path d="M1225.29 824.54C1226.19 824.54 1226.92 823.81 1226.92 822.91C1226.92 822.01 1226.19 821.28 1225.29 821.28C1224.39 821.28 1223.66 822.01 1223.66 822.91C1223.66 823.81 1224.39 824.54 1225.29 824.54Z" fill="white"/>
<path d="M1255.18 856.45C1256.08 856.45 1256.81 855.72 1256.81 854.82C1256.81 853.92 1256.08 853.19 1255.18 853.19C1254.28 853.19 1253.55 853.92 1253.55 854.82C1253.55 855.72 1254.28 856.45 1255.18 856.45Z" fill="white"/>
<path d="M1269.32 826.17C1270.22 826.17 1270.95 825.44 1270.95 824.54C1270.95 823.64 1270.22 822.91 1269.32 822.91C1268.42 822.91 1267.69 823.64 1267.69 824.54C1267.69 825.44 1268.42 826.17 1269.32 826.17Z" fill="white"/>
<path d="M1288.73 846.64C1289.63 846.64 1290.36 845.91 1290.36 845.01C1290.36 844.11 1289.63 843.38 1288.73 843.38C1287.83 843.38 1287.1 844.11 1287.1 845.01C1287.1 845.91 1287.83 846.64 1288.73 846.64Z" fill="white"/>
<path d="M1175.45 945.28C1176.35 945.28 1177.08 944.55 1177.08 943.65C1177.08 942.75 1176.35 942.02 1175.45 942.02C1174.55 942.02 1173.82 942.75 1173.82 943.65C1173.82 944.55 1174.55 945.28 1175.45 945.28Z" fill="white"/>
<path d="M1248.83 942.02C1249.73 942.02 1250.46 941.29 1250.46 940.39C1250.46 939.49 1249.73 938.76 1248.83 938.76C1247.93 938.76 1247.2 939.49 1247.2 940.39C1247.2 941.29 1247.93 942.02 1248.83 942.02Z" fill="white"/>
<path opacity="0.15" d="M1203.38 981.85C1209.29 985.158 1215.52 987.858 1221.97 989.91C1223.23 990.315 1224.58 990.263 1225.8 989.763C1227.02 989.264 1228.03 988.349 1228.64 987.18L1269.32 921.72L1263.32 884.91C1263.24 884.525 1263.04 884.174 1262.75 883.9C1262.47 883.626 1262.11 883.443 1261.72 883.372C1261.34 883.302 1260.94 883.347 1260.57 883.504C1260.21 883.66 1259.9 883.919 1259.69 884.25L1203.38 981.85Z" fill="black"/>
<g class="mask-in-svg" style="display: block;">
<path d="M1223.91 776.65L1243.21 758.79L1249.41 770.71L1237.91 786.8L1223.91 776.65ZM1243.33 760.4L1225.33 776.4L1237.5 785.23L1248.3 770.91L1243.33 760.4Z" class="change-color-in-svg-3" fill="#00BC7D" style="fill: rgb(40, 63, 255);"/>
<path d="M1202.25 776.09C1202.25 776.09 1205.89 800.21 1223.91 797.86L1237.91 786.8L1227 773.94L1202.25 776.09Z" class="change-color-in-svg-3" fill="#00BC7D" style="fill: rgb(40, 63, 255);"/>
<path opacity="0.6" d="M1234.66 789.44L1234.1 790.08L1229.53 776.82L1230.75 777.95L1234.66 789.44Z" fill="white"/>
<path opacity="0.6" d="M1230.7 792.75L1230.14 793.39L1223.19 774.45L1223.96 774.35L1230.7 792.75Z" fill="white"/>
<path opacity="0.6" d="M1225.28 796.88L1224.71 797.52L1216.52 774.87L1217.28 774.77L1225.28 796.88Z" fill="white"/>
<path opacity="0.6" d="M1219.15 798.09C1218.86 798.09 1218.58 798.01 1218.3 797.95L1210 775.41L1210.76 775.31L1219.15 798.09Z" fill="white"/>
<path opacity="0.6" d="M1211.74 794.58C1211.26 794.217 1210.79 793.822 1210.36 793.4L1203.17 776L1204.24 775.94L1211.74 794.58Z" fill="white"/>
</g>
<path d="M1242.19 760.64C1242.16 760.54 1242.11 760.447 1242.04 760.368C1241.97 760.288 1241.89 760.224 1241.8 760.179C1241.7 760.134 1241.6 760.109 1241.5 760.105C1241.39 760.102 1241.29 760.121 1241.19 760.16L1205.59 771.8L1203.92 766.3C1203.89 766.205 1203.84 766.117 1203.78 766.041C1203.72 765.964 1203.64 765.901 1203.55 765.854C1203.47 765.808 1203.37 765.779 1203.27 765.77C1203.17 765.76 1203.07 765.771 1202.98 765.8C1202.79 765.86 1202.63 765.992 1202.54 766.168C1202.44 766.344 1202.42 766.549 1202.48 766.74L1206.1 778.74C1206.15 778.893 1206.24 779.027 1206.37 779.122C1206.5 779.217 1206.66 779.269 1206.82 779.27C1206.89 779.28 1206.97 779.28 1207.04 779.27C1207.14 779.241 1207.22 779.194 1207.3 779.132C1207.38 779.069 1207.44 778.991 1207.49 778.904C1207.53 778.817 1207.56 778.721 1207.57 778.622C1207.58 778.524 1207.57 778.425 1207.54 778.33L1206.03 773.33L1241.66 761.67C1241.77 761.645 1241.87 761.597 1241.96 761.529C1242.04 761.461 1242.11 761.376 1242.16 761.278C1242.21 761.18 1242.24 761.072 1242.25 760.962C1242.25 760.852 1242.23 760.742 1242.19 760.64V760.64Z" fill="white"/>
<path d="M1247 772.59C1247 772.59 1255.87 768.48 1252.92 759.06C1249.97 749.64 1238.7 753.99 1241.99 763.27L1246.05 773.14L1247 772.59Z" fill="#FC9D9D"/>
<path opacity="0.3" d="M1247.82 756.08C1247.29 755.992 1246.76 756.015 1246.24 756.147C1245.72 756.28 1245.24 756.519 1244.82 756.85C1244.45 757.211 1244.16 757.646 1243.97 758.127C1243.77 758.607 1243.68 759.123 1243.7 759.64C1243.65 760.968 1243.95 762.285 1244.57 763.46L1245.05 764.39C1245.38 765.09 1246.65 764.63 1246.23 763.84L1245.74 762.84C1245.25 761.863 1244.99 760.791 1244.96 759.7C1244.94 759.354 1245 759.008 1245.12 758.683C1245.24 758.358 1245.42 758.061 1245.66 757.81C1245.94 757.601 1246.27 757.452 1246.61 757.373C1246.96 757.293 1247.31 757.286 1247.66 757.35C1247.74 757.358 1247.83 757.35 1247.91 757.326C1247.98 757.301 1248.06 757.261 1248.12 757.208C1248.18 757.155 1248.24 757.09 1248.27 757.016C1248.31 756.943 1248.33 756.862 1248.34 756.78C1248.36 756.619 1248.32 756.456 1248.22 756.325C1248.12 756.195 1247.98 756.107 1247.82 756.08V756.08Z" fill="black"/>
<path d="M1248 770.81C1249.07 770.81 1249.94 769.941 1249.94 768.87C1249.94 767.799 1249.07 766.93 1248 766.93C1246.93 766.93 1246.06 767.799 1246.06 768.87C1246.06 769.941 1246.93 770.81 1248 770.81Z" class="change-color-in-svg-3" fill="#00BC7D" style="fill: rgb(40, 63, 255);"/>
<path opacity="0.15" d="M1248.63 767.06C1248.89 767.333 1249.07 767.677 1249.14 768.05C1249.2 768.423 1249.16 768.807 1249.01 769.154C1248.86 769.502 1248.61 769.797 1248.29 770.002C1247.97 770.208 1247.6 770.315 1247.22 770.31C1247 770.302 1246.79 770.262 1246.59 770.19C1246.79 770.413 1247.04 770.587 1247.31 770.698C1247.59 770.81 1247.89 770.855 1248.18 770.832C1248.48 770.808 1248.77 770.716 1249.03 770.562C1249.28 770.409 1249.5 770.198 1249.66 769.947C1249.82 769.695 1249.92 769.41 1249.95 769.114C1249.98 768.817 1249.95 768.517 1249.84 768.238C1249.74 767.958 1249.57 767.706 1249.35 767.502C1249.14 767.297 1248.88 767.146 1248.59 767.06H1248.63Z" fill="black"/>
<path d="M825.71 438.7C825.82 437.07 825.88 435.43 825.88 433.77C825.872 416.746 819.973 400.249 809.184 387.08C798.395 373.911 783.382 364.881 766.692 361.524C750.002 358.166 732.665 360.687 717.623 368.659C702.581 376.632 690.761 389.564 684.17 405.26C679.027 403.592 673.578 403.082 668.214 403.765C662.851 404.448 657.704 406.308 653.143 409.211C648.581 412.115 644.718 415.991 641.829 420.561C638.94 425.132 637.096 430.284 636.43 435.65C623.52 438.041 611.97 445.169 604.046 455.637C596.121 466.105 592.394 479.156 593.596 492.23C594.798 505.304 600.843 517.457 610.544 526.304C620.244 535.151 632.901 540.054 646.03 540.05H805.73C817.923 540.048 829.738 535.814 839.157 528.071C848.576 520.328 855.015 509.556 857.376 497.593C859.736 485.631 857.872 473.22 852.1 462.479C846.329 451.738 837.008 443.334 825.73 438.7H825.71Z" class="change-color-in-svg-3" fill="#00BC7D" style="fill: rgb(40, 63, 255);"/>
<g opacity="0.2">
<path opacity="0.2" d="M825.71 438.7C825.82 437.07 825.88 435.43 825.88 433.77C825.872 416.746 819.973 400.249 809.184 387.08C798.395 373.911 783.382 364.881 766.692 361.524C750.002 358.166 732.665 360.687 717.623 368.659C702.581 376.632 690.761 389.564 684.17 405.26C679.027 403.592 673.578 403.082 668.214 403.765C662.851 404.448 657.704 406.308 653.143 409.211C648.581 412.115 644.718 415.991 641.829 420.561C638.94 425.132 637.096 430.284 636.43 435.65C623.52 438.041 611.97 445.169 604.046 455.637C596.121 466.105 592.394 479.156 593.596 492.23C594.798 505.304 600.843 517.457 610.544 526.304C620.244 535.151 632.901 540.054 646.03 540.05H805.73C817.923 540.048 829.738 535.814 839.157 528.071C848.576 520.328 855.015 509.556 857.376 497.593C859.736 485.631 857.872 473.22 852.1 462.479C846.329 451.738 837.008 443.334 825.73 438.7H825.71Z" fill="white"/>
</g>
<path d="M825.711 438.7C825.821 437.07 825.88 435.43 825.88 433.77C825.88 414.221 818.115 395.472 804.291 381.649C790.468 367.826 771.72 360.06 752.17 360.06C749.182 360.062 746.197 360.243 743.23 360.6C761.124 362.752 777.608 371.385 789.567 384.868C801.526 398.351 808.13 415.748 808.13 433.77C808.13 435.43 808.071 437.07 807.961 438.7C819.239 443.334 828.559 451.738 834.331 462.479C840.102 473.22 841.967 485.631 839.606 497.593C837.245 509.556 830.806 520.328 821.387 528.071C811.968 535.814 800.154 540.048 787.961 540.05H805.711C817.904 540.048 829.718 535.814 839.137 528.071C848.556 520.328 854.995 509.556 857.356 497.593C859.717 485.631 857.852 473.22 852.081 462.479C846.309 451.738 836.989 443.334 825.711 438.7V438.7Z" class="change-color-in-svg-3" fill="#00BC7D" style="fill: rgb(40, 63, 255);"/>
</svg>