<svg width="500" height="500" viewBox="0 0 500 500" fill="none" xmlns="http://www.w3.org/2000/svg">
<path d="M409.38 341.43C399.58 331.32 393.83 290.17 403.38 282.15H452C461.55 290.15 455.8 331.3 446 341.42L445.73 341.69L445.39 342.03C445.12 342.3 444.82 342.56 444.51 342.82L444.27 343.01C444.03 343.2 443.8 343.39 443.53 343.57C443.126 343.867 442.705 344.14 442.27 344.39C434.21 349.1 421.14 349.1 413.08 344.39C412.642 344.14 412.218 343.867 411.81 343.57C411.56 343.4 411.34 343.22 411.12 343.04L410.83 342.81C410.539 342.555 410.262 342.285 410 342L409.61 341.62L409.38 341.43Z" fill="#0088CC"/>
<g opacity="0.7">
<path opacity="0.7" d="M409.38 341.43C399.58 331.32 393.83 290.17 403.38 282.15H452C461.55 290.15 455.8 331.3 446 341.42L445.73 341.69L445.39 342.03C445.12 342.3 444.82 342.56 444.51 342.82L444.27 343.01C444.03 343.2 443.8 343.39 443.53 343.57C443.126 343.867 442.705 344.14 442.27 344.39C434.21 349.1 421.14 349.1 413.08 344.39C412.642 344.14 412.218 343.867 411.81 343.57C411.56 343.4 411.34 343.22 411.12 343.04L410.83 342.81C410.539 342.555 410.262 342.285 410 342L409.61 341.62L409.38 341.43Z" fill="white"/>
</g>
<path d="M447.78 278.92C458.88 285.4 458.88 295.92 447.78 302.38C436.68 308.84 418.7 308.86 407.61 302.38C396.52 295.9 396.51 285.38 407.61 278.92C418.71 272.46 436.69 272.45 447.78 278.92Z" fill="#0088CC"/>
<g opacity="0.85">
<path opacity="0.85" d="M447.78 278.92C458.88 285.4 458.88 295.92 447.78 302.38C436.68 308.84 418.7 308.86 407.61 302.38C396.52 295.9 396.51 285.38 407.61 278.92C418.71 272.46 436.69 272.45 447.78 278.92Z" fill="white"/>
</g>
<path d="M442.45 282C450.59 286.76 450.59 294.47 442.45 299.23C434.31 303.99 421.09 303.98 412.94 299.23C404.79 294.48 404.79 286.76 412.94 282C421.09 277.24 434.3 277.28 442.45 282Z" fill="#0088CC"/>
<g opacity="0.75">
<path opacity="0.75" d="M442.45 282C450.59 286.76 450.59 294.47 442.45 299.23C434.31 303.99 421.09 303.98 412.94 299.23C404.79 294.48 404.79 286.76 412.94 282C421.09 277.24 434.3 277.28 442.45 282Z" fill="white"/>
</g>
<path d="M412.94 290.21C421.09 285.46 434.3 285.46 442.45 290.21C444.424 291.297 446.099 292.853 447.33 294.74C446.099 296.627 444.424 298.183 442.45 299.27C434.3 304.02 421.09 304.02 412.94 299.27C410.967 298.183 409.291 296.627 408.06 294.74C409.291 292.853 410.967 291.297 412.94 290.21Z" fill="#FAFAFA"/>
<path d="M428.81 288.73C429.892 288.922 430.984 289.059 432.08 289.14C436.16 289.32 441.17 287.29 445.66 285.3C448.66 283.99 452.66 282.21 454.53 279.14C455.47 277.63 455.83 275.54 454.95 274.14C454.07 272.74 451.87 272.23 451.45 270.43C454.59 268.34 458.62 268.23 461.3 265.43C463.22 263.235 464.491 260.547 464.97 257.67C465.34 255.96 465.34 253.62 464.44 252.29C463.37 250.72 461.2 250.85 459.34 251.05C458.86 251.135 458.367 251.107 457.9 250.97C457.662 250.884 457.457 250.727 457.314 250.519C457.17 250.31 457.096 250.063 457.1 249.81C457.162 249.485 457.299 249.179 457.5 248.917C457.702 248.654 457.962 248.443 458.26 248.3C459.41 247.55 460.64 246.96 461.75 246.14C462.94 245.345 463.858 244.203 464.38 242.87C464.81 241.225 464.765 239.491 464.25 237.87C463.661 235.161 462.909 232.489 462 229.87C461.78 229.24 460.15 222.87 460.38 222.81C453.87 222.99 447.18 225.38 441.13 228.48C437.75 230.21 432.94 233.34 431.96 237.72C431.725 238.937 431.763 240.19 432.07 241.39C432.232 241.915 432.426 242.429 432.65 242.93C432.77 243.25 433.26 244.48 432.43 244.07C432.246 243.962 432.094 243.807 431.99 243.62L428.78 239C428.512 238.509 428.1 238.111 427.6 237.86C426.52 237.46 423.96 238.69 421.51 241.86C419.954 244.065 419.084 246.682 419.01 249.38C418.75 253.61 420.01 257.6 421.16 261.48L418.26 258.48C414.87 255.01 414.26 263.19 414.36 264.89C414.68 269.36 416.47 275.96 418.72 279.51C421.34 283.63 424.43 287.08 428.81 288.73Z" fill="#0088CC"/>
<path opacity="0.3" d="M428.81 288.73C429.892 288.922 430.984 289.059 432.08 289.14C436.16 289.32 441.17 287.29 445.66 285.3C448.66 283.99 452.66 282.21 454.53 279.14C455.47 277.63 455.83 275.54 454.95 274.14C454.07 272.74 451.87 272.23 451.45 270.43C454.59 268.34 458.62 268.23 461.3 265.43C463.22 263.235 464.491 260.547 464.97 257.67C465.34 255.96 465.34 253.62 464.44 252.29C463.37 250.72 461.2 250.85 459.34 251.05C458.86 251.135 458.367 251.107 457.9 250.97C457.662 250.884 457.457 250.727 457.314 250.519C457.17 250.31 457.096 250.063 457.1 249.81C457.162 249.485 457.299 249.179 457.5 248.917C457.702 248.654 457.962 248.443 458.26 248.3C459.41 247.55 460.64 246.96 461.75 246.14C462.94 245.345 463.858 244.203 464.38 242.87C464.81 241.225 464.765 239.491 464.25 237.87C463.661 235.161 462.909 232.489 462 229.87C461.78 229.24 460.15 222.87 460.38 222.81C453.87 222.99 447.18 225.38 441.13 228.48C437.75 230.21 432.94 233.34 431.96 237.72C431.725 238.937 431.763 240.19 432.07 241.39C432.232 241.915 432.426 242.429 432.65 242.93C432.77 243.25 433.26 244.48 432.43 244.07C432.246 243.962 432.094 243.807 431.99 243.62L428.78 239C428.512 238.509 428.1 238.111 427.6 237.86C426.52 237.46 423.96 238.69 421.51 241.86C419.954 244.065 419.084 246.682 419.01 249.38C418.75 253.61 420.01 257.6 421.16 261.48L418.26 258.48C414.87 255.01 414.26 263.19 414.36 264.89C414.68 269.36 416.47 275.96 418.72 279.51C421.34 283.63 424.43 287.08 428.81 288.73Z" fill="white"/>
<path d="M433.43 266.79C432.311 260.221 429.75 253.981 425.93 248.52L425.85 248.39C425.779 248.269 425.754 248.127 425.779 247.989C425.805 247.851 425.88 247.727 425.99 247.64C426.037 247.596 426.093 247.563 426.154 247.543C426.215 247.522 426.28 247.516 426.344 247.524C426.408 247.531 426.469 247.553 426.524 247.587C426.578 247.621 426.625 247.666 426.66 247.72L426.74 247.84C430.303 252.986 432.799 258.794 434.08 264.92C439.72 248.92 448.99 232.69 454.37 227.64C454.416 227.589 454.472 227.548 454.535 227.52C454.598 227.491 454.666 227.477 454.735 227.477C454.804 227.477 454.872 227.491 454.935 227.52C454.998 227.548 455.054 227.589 455.1 227.64C455.18 227.766 455.214 227.915 455.196 228.063C455.178 228.211 455.108 228.348 455 228.45C449.69 233.45 440.54 249.45 435 265.24C444.38 257.93 453.79 258.71 453.89 258.72C453.956 258.729 454.018 258.752 454.075 258.787C454.131 258.822 454.179 258.868 454.217 258.923C454.254 258.977 454.28 259.039 454.293 259.104C454.305 259.169 454.305 259.235 454.29 259.3C454.272 259.395 454.233 259.484 454.176 259.562C454.119 259.64 454.045 259.704 453.96 259.75C453.881 259.771 453.799 259.771 453.72 259.75C453.63 259.75 443.81 258.92 434.39 266.96C431.89 274.43 430.26 281.75 430.31 287.68C430.311 287.788 430.284 287.895 430.234 287.991C430.183 288.087 430.11 288.169 430.02 288.23C429.953 288.271 429.878 288.299 429.8 288.31C429.73 288.316 429.66 288.307 429.594 288.283C429.528 288.259 429.468 288.221 429.419 288.171C429.369 288.122 429.331 288.062 429.307 287.996C429.283 287.93 429.274 287.86 429.28 287.79C429.22 281.84 430.88 274.4 433.43 266.79Z" fill="white"/>
<path d="M429.12 296.72C428.83 296.86 426.54 297.38 426.22 297.44C422.58 298.06 418.05 297.01 413.97 295.92C411.28 295.21 407.66 294.23 405.86 291.92C405.381 291.383 405.073 290.716 404.976 290.004C404.878 289.291 404.994 288.566 405.31 287.92C406.1 286.6 407.99 286.01 408.31 284.49C405.44 283.17 401.83 283.56 399.31 281.59C397.537 280.063 396.297 278.01 395.77 275.73C395.297 274.266 395.405 272.677 396.07 271.29C396.96 269.89 398.91 269.75 400.57 269.69C401.012 269.697 401.45 269.615 401.86 269.45C402.057 269.367 402.225 269.227 402.344 269.05C402.463 268.872 402.528 268.664 402.53 268.45C402.48 267.92 401.94 267.58 401.45 267.36C400.39 266.89 399.28 266.56 398.25 266.03C397.194 265.542 396.332 264.715 395.8 263.68C395.385 262.362 395.385 260.948 395.8 259.63C396.235 257.336 396.813 255.072 397.53 252.85C397.71 252.32 398.95 246.91 398.74 246.93C404.55 246.31 410.6 247.46 416.11 249.26C419.18 250.26 423.58 252.26 424.6 255.69C424.852 256.674 424.852 257.706 424.6 258.69C424.477 259.14 424.323 259.581 424.14 260.01C424.05 260.28 423.65 261.34 424.38 260.91C424.536 260.802 424.663 260.658 424.75 260.49L427.46 256.32C427.69 255.882 428.036 255.515 428.46 255.26C429.41 254.8 431.74 255.5 434.03 257.78C435.489 259.382 436.367 261.429 436.52 263.59C436.89 266.98 435.94 270.37 435 273.66L437.49 270.9C440.4 267.68 441.24 274.25 441.19 275.65C440.95 279.972 439.791 284.192 437.79 288.03C435.61 291.7 433 294.87 429.12 296.72Z" fill="#0088CC"/>
<path opacity="0.5" d="M429.12 296.72C428.83 296.86 426.54 297.38 426.22 297.44C422.58 298.06 418.05 297.01 413.97 295.92C411.28 295.21 407.66 294.23 405.86 291.92C405.381 291.383 405.073 290.716 404.976 290.004C404.878 289.291 404.994 288.566 405.31 287.92C406.1 286.6 407.99 286.01 408.31 284.49C405.44 283.17 401.83 283.56 399.31 281.59C397.537 280.063 396.297 278.01 395.77 275.73C395.297 274.266 395.405 272.677 396.07 271.29C396.96 269.89 398.91 269.75 400.57 269.69C401.012 269.697 401.45 269.615 401.86 269.45C402.057 269.367 402.225 269.227 402.344 269.05C402.463 268.872 402.528 268.664 402.53 268.45C402.48 267.92 401.94 267.58 401.45 267.36C400.39 266.89 399.28 266.56 398.25 266.03C397.194 265.542 396.332 264.715 395.8 263.68C395.385 262.362 395.385 260.948 395.8 259.63C396.235 257.336 396.813 255.072 397.53 252.85C397.71 252.32 398.95 246.91 398.74 246.93C404.55 246.31 410.6 247.46 416.11 249.26C419.18 250.26 423.58 252.26 424.6 255.69C424.852 256.674 424.852 257.706 424.6 258.69C424.477 259.14 424.323 259.581 424.14 260.01C424.05 260.28 423.65 261.34 424.38 260.91C424.536 260.802 424.663 260.658 424.75 260.49L427.46 256.32C427.69 255.882 428.036 255.515 428.46 255.26C429.41 254.8 431.74 255.5 434.03 257.78C435.489 259.382 436.367 261.429 436.52 263.59C436.89 266.98 435.94 270.37 435 273.66L437.49 270.9C440.4 267.68 441.24 274.25 441.19 275.65C440.95 279.972 439.791 284.192 437.79 288.03C435.61 291.7 433 294.87 429.12 296.72Z" fill="white"/>
<path d="M424.26 279.45C425.104 273.828 427.177 268.461 430.33 263.73L430.4 263.62C430.459 263.52 430.476 263.402 430.448 263.289C430.42 263.177 430.349 263.08 430.25 263.02C430.201 262.991 430.148 262.972 430.092 262.964C430.036 262.956 429.979 262.959 429.924 262.973C429.869 262.987 429.818 263.011 429.772 263.045C429.727 263.079 429.689 263.122 429.66 263.17L429.59 263.28C426.632 267.74 424.592 272.744 423.59 278C418.01 265.69 409.19 253.59 404.23 250.13C404.181 250.085 404.123 250.05 404.059 250.029C403.996 250.008 403.929 250.001 403.863 250.008C403.796 250.015 403.732 250.036 403.674 250.069C403.617 250.103 403.567 250.149 403.528 250.203C403.489 250.258 403.463 250.32 403.45 250.385C403.437 250.451 403.438 250.518 403.454 250.583C403.469 250.648 403.498 250.709 403.539 250.762C403.58 250.815 403.631 250.859 403.69 250.89C408.59 254.31 417.3 266.26 422.78 278.41C417.588 275.511 411.576 274.431 405.7 275.34C405.604 275.361 405.519 275.414 405.457 275.491C405.396 275.567 405.362 275.662 405.362 275.76C405.362 275.858 405.396 275.953 405.457 276.03C405.519 276.106 405.604 276.159 405.7 276.18C405.769 276.195 405.841 276.195 405.91 276.18C411.979 275.237 418.186 276.504 423.4 279.75C425.89 285.53 427.59 291.28 427.74 296.1C427.745 296.188 427.774 296.272 427.823 296.344C427.872 296.416 427.94 296.474 428.02 296.51C428.086 296.525 428.154 296.525 428.22 296.51C428.281 296.509 428.342 296.495 428.398 296.47C428.454 296.445 428.504 296.41 428.546 296.365C428.588 296.32 428.621 296.267 428.642 296.21C428.663 296.153 428.673 296.091 428.67 296.03C428.52 291.17 426.79 285.33 424.26 279.45Z" fill="white"/>
<path d="M241.35 364.21L231.65 283.27L223.72 282.87L237.35 364.2C237.384 364.349 237.448 364.489 237.54 364.611C237.631 364.734 237.747 364.835 237.88 364.91C238.308 365.154 238.787 365.293 239.278 365.317C239.77 365.342 240.26 365.25 240.71 365.05C240.881 364.981 241.029 364.866 241.138 364.717C241.248 364.569 241.314 364.394 241.33 364.21H241.35Z" fill="#263238"/>
<path d="M231.65 283.27L223.72 282.87L226.05 298.22C227.674 297.632 229.246 296.909 230.75 296.06C231.604 295.677 232.33 295.055 232.84 294.27L231.65 283.27Z" fill="#263238"/>
<path d="M126.33 271.4H118.39L106.84 347.83C106.847 348.014 106.905 348.193 107.007 348.347C107.11 348.5 107.253 348.623 107.42 348.7C107.859 348.921 108.344 349.037 108.835 349.037C109.327 349.037 109.811 348.921 110.25 348.7C110.387 348.634 110.508 348.539 110.605 348.421C110.702 348.304 110.772 348.167 110.81 348.02V348.02L126.33 271.4Z" fill="#37474F"/>
<path d="M118.39 271.4L115.17 292.73C117.052 294.2 119.095 295.451 121.26 296.46L126.33 271.4H118.39Z" fill="#263238"/>
<path d="M188.32 391.34L180.86 309L172.94 308.6L184.33 391.29C184.364 391.439 184.428 391.579 184.52 391.701C184.611 391.824 184.727 391.925 184.86 392C185.286 392.243 185.763 392.383 186.253 392.407C186.743 392.432 187.232 392.34 187.68 392.14C187.851 392.071 187.999 391.956 188.108 391.807C188.218 391.659 188.284 391.483 188.3 391.3L188.32 391.34Z" fill="#37474F"/>
<path d="M181.84 320.89L180.84 309.04L172.92 308.64L174.53 321.42C176.31 322 179.53 321.63 181.84 320.89Z" fill="#263238"/>
<path d="M169.64 246.22H161.7L150.16 322.65C150.166 322.833 150.222 323.011 150.323 323.165C150.423 323.318 150.564 323.441 150.73 323.52C151.169 323.741 151.653 323.857 152.145 323.857C152.636 323.857 153.121 323.741 153.56 323.52C153.696 323.452 153.816 323.357 153.912 323.24C154.009 323.122 154.08 322.986 154.12 322.84V322.84L169.64 246.22Z" fill="#263238"/>
<path d="M103.48 183.75C101.687 188.194 100.617 192.897 100.31 197.68C99.41 208.36 103.02 242.94 105.19 258.41C108.33 284.25 112.19 284.3 117.78 288.62C127.41 296.06 155.11 310.62 164.25 314.25C180.83 320.77 194.39 310.71 204.49 305.72C213.754 301.035 222.697 295.74 231.26 289.87C233.78 288.03 235.09 286.17 235.06 284.22C235.06 283.44 235.06 280.27 235.06 279.45C235.06 276.95 232.86 274.28 228.22 271.27C219.66 265.72 188.71 247.67 176.72 241.02C176.714 240.997 176.702 240.976 176.684 240.96C176.666 240.944 176.644 240.933 176.62 240.93C167.39 235.33 161.84 197.25 155.45 176.99C155.32 176.56 155.18 176.14 155.04 175.73C154.9 175.32 154.81 175.1 154.71 174.79C154.3 173.69 153.89 172.68 153.45 171.79" fill="#0088CC"/>
<path d="M235.07 279.44C235.07 276.94 232.87 274.27 228.23 271.26C219.67 265.71 188.72 247.66 176.73 241.01C176.724 240.987 176.712 240.966 176.694 240.95C176.676 240.934 176.654 240.923 176.63 240.92C167.4 235.32 161.85 197.24 155.46 176.98C155.079 175.714 154.631 174.469 154.12 173.25C154.12 173.16 154.04 173.07 154.01 172.98L153.64 172.16L153.46 171.75C152.452 169.44 151.005 167.348 149.2 165.59C148.572 165.009 147.869 164.514 147.11 164.12C146.11 163.53 143.89 162.32 143.34 162C137.08 158.25 128.85 162.75 118.61 168.36C112.24 171.86 106.8 176.01 103.49 183.75C101.697 188.195 100.627 192.897 100.32 197.68C99.42 208.36 103.03 242.94 105.2 258.41C108.34 284.25 112.2 284.3 117.79 288.62C127.42 296.06 155.12 310.62 164.26 314.25C180.84 320.77 194.4 310.71 204.5 305.72C213.764 301.035 222.707 295.74 231.27 289.87C233.79 288.03 235.1 286.17 235.07 284.22C235.06 283.43 235.07 280.26 235.07 279.44Z" fill="#0088CC"/>
<path opacity="0.25" d="M235.07 279.44C235.07 276.94 232.87 274.27 228.23 271.26C219.67 265.71 188.72 247.66 176.73 241.01C176.724 240.987 176.712 240.966 176.694 240.95C176.676 240.934 176.654 240.923 176.63 240.92C167.4 235.32 161.85 197.24 155.46 176.98C155.079 175.714 154.631 174.469 154.12 173.25C154.12 173.16 154.04 173.07 154.01 172.98L153.64 172.16L153.46 171.75C152.452 169.44 151.005 167.348 149.2 165.59C148.572 165.009 147.869 164.514 147.11 164.12C146.11 163.53 143.89 162.32 143.34 162C137.08 158.25 128.85 162.75 118.61 168.36C112.24 171.86 106.8 176.01 103.49 183.75C101.697 188.195 100.627 192.897 100.32 197.68C99.42 208.36 103.03 242.94 105.2 258.41C108.34 284.25 112.2 284.3 117.79 288.62C127.42 296.06 155.12 310.62 164.26 314.25C180.84 320.77 194.4 310.71 204.5 305.72C213.764 301.035 222.707 295.74 231.27 289.87C233.79 288.03 235.1 286.17 235.07 284.22C235.06 283.43 235.07 280.26 235.07 279.44Z" fill="white"/>
<path d="M204.49 300.91C213.753 296.219 222.696 290.921 231.26 285.05C237 280.88 236.47 276.61 228.26 271.26C216.82 263.84 170.17 237.37 170.17 237.37C170.17 237.37 111.17 272.17 113.74 278.6C116.31 285.03 152.74 304.91 164.27 309.43C180.84 316 194.39 305.9 204.49 300.91Z" fill="#0088CC"/>
<path opacity="0.6" d="M204.49 300.91C213.753 296.219 222.696 290.921 231.26 285.05C237 280.88 236.47 276.61 228.26 271.26C216.82 263.84 170.17 237.37 170.17 237.37C170.17 237.37 111.17 272.17 113.74 278.6C116.31 285.03 152.74 304.91 164.27 309.43C180.84 316 194.39 305.9 204.49 300.91Z" fill="white"/>
<path d="M147.1 164.12C140.89 160.86 132.82 165.29 122.84 170.76C116.45 174.26 111 178.41 107.7 186.18L103.48 183.75C106.79 176.01 112.23 171.86 118.6 168.36C128.84 162.75 137.07 158.25 143.33 162C143.88 162.32 146.06 163.53 147.1 164.12Z" fill="#0088CC"/>
<path opacity="0.5" d="M147.1 164.12C140.89 160.86 132.82 165.29 122.84 170.76C116.45 174.26 111 178.41 107.7 186.18L103.48 183.75C106.79 176.01 112.23 171.86 118.6 168.36C128.84 162.75 137.07 158.25 143.33 162C143.88 162.32 146.06 163.53 147.1 164.12Z" fill="white"/>
<path d="M155.46 177C155.33 176.57 153.19 169.14 149.19 165.61C147.327 163.93 144.908 163 142.4 163C136.98 163 130.47 166.59 122.84 170.76C122.21 171.11 121.58 171.47 120.96 171.84C120.72 171.97 120.48 172.11 120.25 172.26C120.02 172.41 119.68 172.61 119.4 172.79C119.12 172.97 118.99 173.05 118.79 173.19C117.443 174.077 116.157 175.052 114.94 176.11C114.75 176.28 114.56 176.45 114.37 176.64C113.598 177.349 112.87 178.103 112.19 178.9C112.06 179.04 111.94 179.19 111.82 179.33C111.7 179.47 111.52 179.69 111.39 179.87L110.97 180.43C110.83 180.61 110.7 180.79 110.56 180.99C110.012 181.777 109.504 182.591 109.04 183.43C108.98 183.54 108.91 183.65 108.86 183.76C108.81 183.87 108.62 184.21 108.5 184.45C108.38 184.69 108.17 185.13 108.01 185.45C106.024 190.081 104.854 195.02 104.55 200.05C103.07 217.6 109.08 275.59 115.11 280.59C115.11 280.59 114.19 274.91 126.32 267.28C134.57 262.09 140.32 257.73 149.17 253.41C170.62 242.87 176.63 240.9 176.63 240.9C167.4 235.32 161.85 197.24 155.46 177Z" fill="#0088CC"/>
<path opacity="0.4" d="M155.46 177C155.33 176.57 153.19 169.14 149.19 165.61C147.327 163.93 144.908 163 142.4 163C136.98 163 130.47 166.59 122.84 170.76C122.21 171.11 121.58 171.47 120.96 171.84C120.72 171.97 120.48 172.11 120.25 172.26C120.02 172.41 119.68 172.61 119.4 172.79C119.12 172.97 118.99 173.05 118.79 173.19C117.443 174.077 116.157 175.052 114.94 176.11C114.75 176.28 114.56 176.45 114.37 176.64C113.598 177.349 112.87 178.103 112.19 178.9C112.06 179.04 111.94 179.19 111.82 179.33C111.7 179.47 111.52 179.69 111.39 179.87L110.97 180.43C110.83 180.61 110.7 180.79 110.56 180.99C110.012 181.777 109.504 182.591 109.04 183.43C108.98 183.54 108.91 183.65 108.86 183.76C108.81 183.87 108.62 184.21 108.5 184.45C108.38 184.69 108.17 185.13 108.01 185.45C106.024 190.081 104.854 195.02 104.55 200.05C103.07 217.6 109.08 275.59 115.11 280.59C115.11 280.59 114.19 274.91 126.32 267.28C134.57 262.09 140.32 257.73 149.17 253.41C170.62 242.87 176.63 240.9 176.63 240.9C167.4 235.32 161.85 197.24 155.46 177Z" fill="white"/>
<path opacity="0.1" d="M235.06 284.21C235.06 286.21 233.78 288.02 231.26 289.86C222.7 295.728 213.76 301.023 204.5 305.71C199.24 308.31 193.05 312.27 185.99 314.55C169.07 304.64 139.83 287.29 132.65 281.55C128.614 278.192 125.747 273.64 124.46 268.55C123.053 262.586 122.587 256.438 123.08 250.33C116.99 247.99 116.01 241.13 115.17 232.58C112.94 210 112.82 182.31 118.79 173.22C118.99 173.08 119.19 172.94 119.4 172.81L120.25 172.29C120.48 172.14 120.71 172 120.95 171.87C121.57 171.497 122.2 171.137 122.84 170.79C130.47 166.59 137 163 142.4 163C144.713 163 146.958 163.782 148.77 165.22L149.18 165.57C150.582 166.892 151.752 168.44 152.64 170.15C152.78 170.4 152.91 170.66 153.04 170.91C153.073 170.964 153.099 171.021 153.12 171.08C153.24 171.3 153.34 171.52 153.45 171.74L153.57 171.99L153.64 172.14L153.82 172.56C154.04 173.06 154.24 173.56 154.41 173.97L154.54 174.27C154.67 174.63 154.79 174.95 154.89 175.27L154.99 175.54L155.08 175.81C155.08 175.88 155.08 175.96 155.16 176.03L155.23 176.25L155.31 176.51C155.31 176.58 155.31 176.64 155.36 176.69C155.399 176.785 155.433 176.881 155.46 176.98C161.85 197.25 167.4 235.33 176.63 240.92C176.656 240.926 176.679 240.94 176.697 240.959C176.715 240.979 176.727 241.004 176.73 241.03C188.73 247.67 219.67 265.71 228.23 271.27C232.87 274.27 235.06 276.96 235.07 279.45C235.07 280.26 235.05 283.43 235.06 284.21Z" fill="black"/>
<path d="M215.63 344.71L216.54 372.71C216.54 372.71 213.77 378.65 207.26 379.14C200.75 379.63 199.71 373.09 199.71 373.09L193.71 342.87L215.63 344.71Z" fill="#FFA8A7"/>
<path d="M198.53 385.22C198.371 386.111 198.446 387.028 198.75 387.88C199.25 389.09 202.64 391.32 204.38 392.21C206.12 393.1 207.46 394.46 208.98 397.12C211.06 400.77 214.2 404.7 218.18 406.59C223.512 408.966 229.442 409.664 235.18 408.59C242.33 407.41 242.97 403.21 242.97 403.21C242.97 403.21 243.4 399.26 241.64 398.61C239.88 397.96 198.53 385.22 198.53 385.22Z" fill="#263238"/>
<path d="M197.62 380.33C197.562 382.007 197.873 383.676 198.53 385.22C200.59 388.16 205.53 389.22 208.35 393.22C211.17 397.22 214.48 403.41 223.8 405.4C233.12 407.39 240.25 404.52 242.01 401.88C243.77 399.24 242.23 396.72 236.29 393.4C229.98 389.88 222.56 380.62 222.56 380.61C220.12 377.44 219.08 373.26 217.74 369.55C217.6 369.18 217.39 368.76 217.01 368.75C216.63 368.74 216.33 369.3 216.09 369.69C215.645 370.266 215.005 370.661 214.29 370.8C213.48 371.079 212.656 371.312 211.82 371.5C210.149 371.873 208.442 372.057 206.73 372.05C206.449 372.008 206.162 372.024 205.887 372.096C205.612 372.168 205.354 372.295 205.13 372.47C204.982 372.672 204.878 372.903 204.823 373.147C204.768 373.391 204.763 373.644 204.81 373.89C204.85 374.521 204.93 375.149 205.05 375.77C205.125 376.072 205.125 376.388 205.05 376.69C204.963 376.901 204.815 377.081 204.624 377.206C204.433 377.331 204.208 377.395 203.98 377.39C203.524 377.373 203.081 377.231 202.7 376.98C201.946 376.604 201.285 376.064 200.766 375.399C200.247 374.735 199.883 373.963 199.7 373.14C199.7 373.14 199.35 371.4 199.35 371.32C199.099 371.462 198.881 371.654 198.709 371.885C198.537 372.115 198.414 372.379 198.35 372.66C198.17 373.38 198.23 374.15 198.11 374.88C197.818 376.683 197.654 378.504 197.62 380.33Z" fill="#0088CC"/>
<path opacity="0.3" d="M197.62 380.33C197.562 382.007 197.873 383.676 198.53 385.22C200.59 388.16 205.53 389.22 208.35 393.22C211.17 397.22 214.48 403.41 223.8 405.4C233.12 407.39 240.25 404.52 242.01 401.88C243.77 399.24 242.23 396.72 236.29 393.4C229.98 389.88 222.56 380.62 222.56 380.61C220.12 377.44 219.08 373.26 217.74 369.55C217.6 369.18 217.39 368.76 217.01 368.75C216.63 368.74 216.33 369.3 216.09 369.69C215.645 370.266 215.005 370.661 214.29 370.8C213.48 371.079 212.656 371.312 211.82 371.5C210.149 371.873 208.442 372.057 206.73 372.05C206.449 372.008 206.162 372.024 205.887 372.096C205.612 372.168 205.354 372.295 205.13 372.47C204.982 372.672 204.878 372.903 204.823 373.147C204.768 373.391 204.763 373.644 204.81 373.89C204.85 374.521 204.93 375.149 205.05 375.77C205.125 376.072 205.125 376.388 205.05 376.69C204.963 376.901 204.815 377.081 204.624 377.206C204.433 377.331 204.208 377.395 203.98 377.39C203.524 377.373 203.081 377.231 202.7 376.98C201.946 376.604 201.285 376.064 200.766 375.399C200.247 374.735 199.883 373.963 199.7 373.14L199.35 371.32C199.099 371.462 198.881 371.654 198.709 371.885C198.537 372.115 198.414 372.379 198.35 372.66C198.17 373.38 198.23 374.15 198.11 374.88C197.818 376.683 197.654 378.504 197.62 380.33Z" fill="black"/>
<path d="M255.73 319.89L259.9 359.2C259.9 359.2 254.21 364.97 249.49 364.31C248.22 364.207 247.002 363.76 245.968 363.016C244.934 362.273 244.122 361.261 243.62 360.09L232 322.38L255.73 319.89Z" fill="#FFA8A7"/>
<path d="M243.63 371.19C243.575 372.092 243.75 372.994 244.14 373.81C244.77 374.96 248.38 376.81 250.21 377.51C252.04 378.21 253.52 379.41 255.31 381.89C257.77 385.3 261.31 388.89 265.48 390.32C271.046 392.106 277.024 392.159 282.62 390.47C289.62 388.47 289.78 384.28 289.78 384.28C289.78 384.28 289.78 380.28 287.96 379.85C286.14 379.42 243.63 371.19 243.63 371.19Z" fill="#263238"/>
<path d="M242.21 366.43C242.329 368.101 242.814 369.726 243.63 371.19C246 373.89 251.03 374.38 254.26 378.07C257.49 381.76 261.46 387.54 270.94 388.51C280.42 389.48 287.19 385.85 288.66 383.04C290.13 380.23 288.33 377.89 282.06 375.23C275.41 372.41 267.06 364 267.06 364C264.29 361.1 262.81 357.07 261.06 353.51C260.89 353.17 260.63 352.77 260.25 352.8C259.87 352.83 259.64 353.42 259.44 353.8C259.058 354.418 258.465 354.876 257.77 355.09C256.998 355.471 256.203 355.805 255.39 356.09C253.772 356.65 252.094 357.019 250.39 357.19C250.105 357.178 249.821 357.224 249.554 357.325C249.288 357.427 249.045 357.582 248.84 357.78C248.718 357.998 248.639 358.239 248.61 358.488C248.581 358.737 248.601 358.989 248.67 359.23C248.78 359.852 248.93 360.467 249.12 361.07C249.236 361.358 249.281 361.671 249.25 361.98C249.185 362.201 249.055 362.398 248.876 362.544C248.698 362.69 248.48 362.779 248.25 362.8C247.793 362.831 247.336 362.734 246.93 362.52C245.3 361.78 243.87 360.84 243.34 359.11C243.34 359.11 243.07 358.2 242.79 357.36C242.591 357.522 242.432 357.726 242.322 357.958C242.213 358.19 242.158 358.444 242.16 358.7C242.06 359.43 242.16 360.19 242.16 360.93C242.037 362.762 242.053 364.601 242.21 366.43V366.43Z" fill="#0088CC"/>
<path opacity="0.3" d="M242.21 366.43C242.329 368.101 242.814 369.726 243.63 371.19C246 373.89 251.03 374.38 254.26 378.07C257.49 381.76 261.46 387.54 270.94 388.51C280.42 389.48 287.19 385.85 288.66 383.04C290.13 380.23 288.33 377.89 282.06 375.23C275.41 372.41 267.06 364 267.06 364C264.29 361.1 262.81 357.07 261.06 353.51C260.89 353.17 260.63 352.77 260.25 352.8C259.87 352.83 259.64 353.42 259.44 353.8C259.058 354.418 258.465 354.876 257.77 355.09C256.998 355.471 256.203 355.805 255.39 356.09C253.772 356.65 252.094 357.019 250.39 357.19C250.105 357.178 249.821 357.224 249.554 357.325C249.288 357.427 249.045 357.582 248.84 357.78C248.718 357.998 248.639 358.239 248.61 358.488C248.581 358.737 248.601 358.989 248.67 359.23C248.78 359.852 248.93 360.467 249.12 361.07C249.236 361.358 249.281 361.671 249.25 361.98C249.185 362.201 249.055 362.398 248.876 362.544C248.698 362.69 248.48 362.779 248.25 362.8C247.793 362.831 247.336 362.734 246.93 362.52C245.3 361.78 243.87 360.84 243.34 359.11C243.34 359.11 243.07 358.2 242.79 357.36C242.591 357.522 242.432 357.726 242.322 357.958C242.213 358.19 242.158 358.444 242.16 358.7C242.06 359.43 242.16 360.19 242.16 360.93C242.037 362.762 242.053 364.601 242.21 366.43V366.43Z" fill="black"/>
<path d="M127.29 240L150.23 237.48L194.66 239.88C194.66 239.88 221.34 256.94 240.71 270.56C246.34 274.56 252.3 278.86 253.29 287.15C254.69 298.92 258.48 340.67 258.48 340.67C254.6 344.96 244.69 346.67 238.61 345.54C236.75 340.72 232.21 325.87 230.05 319.25C227.882 312.228 226.346 305.026 225.46 297.73L197.21 280C203.43 286.33 205.47 288.39 208.73 291.68C211.59 294.57 213.48 298.21 214.32 307.57C215.99 326.13 216.11 351.57 216.32 357.26C213.98 360.53 204.51 364.84 197.01 361.07C194.45 351.13 193.3 346.27 191.08 337.01C186.8 319.11 188.33 313.14 187.48 309.27C177.139 304.054 167.103 298.255 157.42 291.9C150.75 287.52 141.42 282.75 136.71 277.82C127.87 268.62 127.88 255.17 127.29 240Z" fill="#37474F"/>
<path d="M197.21 280L181.21 261.89C181.21 261.89 189.72 259.02 194.21 247.98C194.21 247.98 193.21 258.45 186.94 263.05L194.41 273.17L225.41 297.71L197.21 280Z" fill="#263238"/>
<path d="M215.91 402C216.19 397.52 219.91 392.85 227 391.34C234.09 389.83 237.76 392.94 239.43 394.17C241.1 395.4 245.77 399.66 241.43 403.24C237.09 406.82 231.92 407.09 226.52 406.36C221.12 405.63 217.4 403.75 215.91 402Z" fill="#FAFAFA"/>
<path d="M262.69 386C262.63 381.51 266.32 375.61 273.25 373.58C280.18 371.55 283.79 374.74 285.54 375.84C287.29 376.94 292.28 380.84 288.25 384.74C284.22 388.64 279.05 389.24 273.59 389.32C269.93 389.33 264.3 387.61 262.69 386Z" fill="#FAFAFA"/>
<path d="M195 160.63C190.72 156.38 184.83 152.53 181 152.08C177.796 151.642 174.544 151.679 171.35 152.19L186.18 185.19C186.18 185.19 207 202 217.32 209.26L220.63 186C220.63 186 202.19 167.81 195 160.63Z" fill="#FFA8A7"/>
<path d="M188.26 154.26C183.46 150.74 178.58 150.37 170.89 151.26L183.64 184.47L198.9 195.3C198.9 195.3 198.8 191.47 201.65 186.16C203.822 182.073 207.336 178.859 211.6 177.06C211.6 177.06 193.06 157.79 188.26 154.26Z" fill="#0088CC"/>
<path opacity="0.2" d="M188.26 154.26C183.46 150.74 178.58 150.37 170.89 151.26L183.64 184.47L198.9 195.3C198.9 195.3 198.8 191.47 201.65 186.16C203.822 182.073 207.336 178.859 211.6 177.06C211.6 177.06 193.06 157.79 188.26 154.26Z" fill="black"/>
<path d="M189.84 178.75C190.54 161.15 180.3 152.59 170.84 151.28C170.84 151.28 166.98 151.82 163.23 152.54C155.84 153.95 140.05 158.62 133.44 162.35C127.81 165.52 127.27 169.25 126.28 178.5C125.57 185.1 125.11 189.98 125.28 210.01C125.37 224.66 127.14 239.67 127.52 249.78C140.32 258.78 181.07 257.59 195.82 240.59C190.45 231.19 187.21 224.35 187.46 215.33C187.9 199.19 189.49 187.64 189.84 178.75Z" fill="#0088CC"/>
<path d="M193.15 105.57C193.15 105.47 193.15 105.37 193.1 105.27C192.58 103.08 190.1 105.44 188.69 105.35C188.87 104.57 189.69 104.04 189.99 103.35C190.425 102.399 190.715 101.387 190.85 100.35C191.118 98.8189 191.063 97.2488 190.69 95.74C189.44 96.2 188.3 96.92 187.03 97.37C184.982 98.0517 182.826 98.35 180.67 98.25C175.905 98.0915 171.154 97.6575 166.44 96.95C163.315 96.475 160.135 96.475 157.01 96.95C154.235 97.3875 151.608 98.4888 149.35 100.16C146.35 102.67 145.35 104.9 145.28 109.38C142.38 111.13 141.72 114.59 141.64 118.48C141.54 123.29 144 127.71 145.97 131.96C145.97 131.96 150.97 142.75 152.13 144.87C153.49 147.32 154.69 149.38 154.69 149.38L153.87 140.29C157.17 139.88 159.87 140.8 162.96 139.51C165.882 138.295 168.698 136.84 171.38 135.16C174.185 133.412 176.883 131.499 179.46 129.43C180.014 128.912 180.609 128.441 181.24 128.02C181.72 127.76 182.18 127.76 182.59 127.38C183.43 126.59 183.69 125.11 184.12 124.09C184.332 123.321 184.61 122.571 184.95 121.85C185.33 121.28 186.11 121.04 186.7 120.69C188.497 119.668 189.859 118.025 190.53 116.07C191.02 114.69 191.29 112.36 190.33 111.07C191.44 109.44 193.45 107.72 193.15 105.57Z" fill="#455A64"/>
<path d="M160.79 112.32C160.89 115.16 159.41 121.5 154.92 123.87C155.561 126.489 155.663 129.211 155.22 131.87C155.134 132.574 154.91 133.253 154.56 133.87C154.387 134.167 154.15 134.423 153.866 134.618C153.583 134.814 153.26 134.944 152.92 135C151.99 135.1 151.59 134.55 151.28 133.84C150.837 132.924 150.333 132.038 149.77 131.19C149.527 130.822 149.238 130.486 148.91 130.19C147.46 128.94 143.23 127.5 141.46 132.01C139.63 136.68 143.9 141.61 147.3 142.38C151.82 143.38 153.05 140.16 153.05 140.16L150.66 159.16C152.46 163.96 162.42 170.59 169.66 169.39C176.9 168.19 173.1 162.19 170.55 158.8L171.9 152.8C171.9 152.8 178.4 153.3 182.22 152.42C185.22 151.72 187.57 148.82 188.65 144.2C190.65 135.39 189.85 123.03 188.54 117.59C187.23 112.15 185.94 111.28 184.92 110.05C184.6 111.66 182.78 113.63 177.98 114.63C171.1 116 165.31 114 160.79 112.32Z" fill="#FFA8A7"/>
<path d="M171.86 152.73C166.55 151.9 161.86 150.73 158.99 148.92C156.87 147.61 155.19 143.86 154.7 142.54C154.7 142.54 154.53 147.54 157.31 150.44C161.25 154.61 171.25 155.44 171.25 155.44L171.86 152.73Z" fill="#F28F8F"/>
<path d="M168 121.64L163.31 123.87C163.023 123.228 162.996 122.499 163.234 121.837C163.473 121.175 163.959 120.631 164.59 120.32C164.899 120.174 165.235 120.092 165.577 120.079C165.919 120.067 166.26 120.124 166.579 120.247C166.898 120.371 167.188 120.558 167.433 120.797C167.677 121.037 167.87 121.324 168 121.64V121.64Z" fill="#455A64"/>
<path d="M168.63 140L175.29 142.46C175.148 142.908 174.917 143.323 174.611 143.679C174.306 144.036 173.931 144.327 173.51 144.535C173.088 144.743 172.63 144.864 172.161 144.891C171.692 144.918 171.222 144.849 170.78 144.69C169.885 144.338 169.161 143.653 168.76 142.778C168.359 141.904 168.312 140.908 168.63 140V140Z" fill="#B16668"/>
<path d="M172.58 144.81C172.541 143.981 172.177 143.202 171.567 142.64C170.956 142.078 170.149 141.78 169.32 141.81C169.048 141.823 168.779 141.874 168.52 141.96C168.638 142.563 168.908 143.126 169.303 143.597C169.698 144.067 170.206 144.43 170.78 144.65C171.354 144.866 171.977 144.921 172.58 144.81V144.81Z" fill="#F28F8F"/>
<path d="M186.32 123.39L181.87 120.92C182.023 120.628 182.233 120.37 182.488 120.16C182.743 119.951 183.037 119.795 183.353 119.702C183.669 119.609 184.001 119.58 184.329 119.617C184.656 119.655 184.973 119.758 185.26 119.92C185.858 120.242 186.304 120.787 186.503 121.437C186.701 122.087 186.636 122.788 186.32 123.39V123.39Z" fill="#455A64"/>
<path d="M175.21 138.51L182.19 136.22L174.3 123.39L175.21 138.51Z" fill="#F28F8F"/>
<path d="M181.29 127.35C181.29 127.746 181.407 128.132 181.627 128.461C181.847 128.79 182.159 129.046 182.525 129.198C182.89 129.349 183.292 129.389 183.68 129.312C184.068 129.234 184.425 129.044 184.704 128.764C184.984 128.484 185.174 128.128 185.252 127.74C185.329 127.352 185.289 126.95 185.138 126.585C184.986 126.219 184.73 125.907 184.401 125.687C184.072 125.467 183.686 125.35 183.29 125.35C182.76 125.35 182.251 125.561 181.876 125.936C181.501 126.311 181.29 126.82 181.29 127.35Z" fill="#263238"/>
<path d="M165.53 127.77C165.53 128.163 165.646 128.548 165.864 128.876C166.082 129.204 166.391 129.46 166.754 129.613C167.116 129.765 167.516 129.808 167.902 129.734C168.289 129.661 168.645 129.476 168.927 129.201C169.208 128.926 169.403 128.575 169.485 128.19C169.568 127.805 169.535 127.405 169.392 127.039C169.248 126.672 168.999 126.357 168.677 126.131C168.355 125.905 167.973 125.78 167.58 125.77C167.045 125.77 166.531 125.979 166.148 126.353C165.765 126.726 165.543 127.235 165.53 127.77Z" fill="#263238"/>
<path d="M221.08 343.98V446.98L217.64 444.99V341.99L221.08 343.98Z" fill="#263238"/>
<path d="M221.08 343.98V446.98L224.52 444.99V341.99L221.08 343.98Z" fill="#37474F"/>
<path d="M123.8 287.72V390.72L120.36 388.73V285.73L123.8 287.72Z" fill="#263238"/>
<path d="M123.8 287.72V390.72L127.24 388.73V285.73L123.8 287.72Z" fill="#37474F"/>
<path d="M387.74 247.76V350.76L384.3 348.77V245.78L387.74 247.76Z" fill="#263238"/>
<path d="M387.74 247.76V350.76L391.18 348.77V245.78L387.74 247.76Z" fill="#37474F"/>
<path d="M221.08 337.85V350.11L120.36 291.86V279.6L221.08 337.85Z" fill="#37474F"/>
<path d="M221.08 350.11L391.19 251.91V239.65L221.08 337.85V350.11Z" fill="#455A64"/>
<path d="M221.63 335.56L116.35 274.77L289.83 174.94L395.12 235.73L221.63 335.56Z" fill="#0088CC"/>
<g opacity="0.8">
<path opacity="0.8" d="M221.63 335.56L116.35 274.77L289.83 174.94L395.12 235.73L221.63 335.56Z" fill="white"/>
</g>
<path d="M116.35 274.75V283.4L221.63 344.17V335.54L116.35 274.75Z" fill="#0088CC"/>
<g opacity="0.5">
<path opacity="0.5" d="M116.35 274.75V283.4L221.63 344.17V335.54L116.35 274.75Z" fill="white"/>
</g>
<path d="M221.63 344.17L395.12 244.43V235.71L221.63 335.54V344.17Z" fill="#0088CC"/>
<g opacity="0.65">
<path opacity="0.65" d="M221.63 344.17L395.12 244.43V235.71L221.63 335.54V344.17Z" fill="white"/>
</g>
<path d="M220.63 186C219.497 190.768 219.079 195.679 219.39 200.57C219.39 200.57 215.81 191.47 218.18 183.57L220.63 186Z" fill="#F28F8F"/>
<path d="M256.69 128.31C256.75 127.31 256 127.07 255.21 127.11C254.034 127.205 252.915 127.655 252 128.4C250.605 129.678 249.308 131.058 248.12 132.53C246.12 134.6 242.92 137.98 240.12 138.74C239.54 138.89 238.3 139.04 238.85 138.09C239.621 136.888 240.29 135.624 240.85 134.31C241.142 133.654 241.293 132.943 241.293 132.225C241.293 131.507 241.142 130.796 240.85 130.14C240.666 129.744 240.342 129.431 239.94 129.26C239.36 129.06 239.11 129.38 238.83 129.78C238.518 130.182 238.185 130.566 237.83 130.93C237.11 131.7 236.39 132.48 235.68 133.26C231.55 137.83 227.57 142.91 226.22 149.06C226.02 149.95 225.28 156.73 224.64 160.62C224.23 164.11 220.64 186 220.64 186L217.33 209.26C226.68 215.8 232.01 212.54 233.55 209.88C236.11 205.48 238.43 203.55 238.73 177.29C238.78 174.86 238.73 172.43 238.78 170C238.762 166.877 239.02 163.758 239.55 160.68C240.22 157.58 242.63 156.63 244.18 155.54C246.371 154.107 248.354 152.377 250.07 150.4C251.641 148.74 252.986 146.881 254.07 144.87C254.701 143.943 255.131 142.894 255.33 141.79C255.163 140.884 255.053 139.969 255 139.05C255.12 137.97 255.74 136.97 255.74 135.89C255.64 135.045 255.435 134.215 255.13 133.42C254.78 132.11 255.33 131.11 255.97 130C256.34 129.501 256.587 128.922 256.69 128.31V128.31Z" fill="#FFA8A7"/>
<path d="M237.78 142.29C237.62 145.84 235.56 150.46 234.02 152.1C235.582 150.963 236.816 149.435 237.6 147.67C238.63 144.87 238.35 143.52 237.78 142.29Z" fill="#F28F8F"/>
<path opacity="0.2" d="M298.7 249.86L255.4 224.86C255.021 224.643 254.592 224.53 254.155 224.53C253.718 224.53 253.289 224.643 252.91 224.86L177.78 268.25C177.697 268.299 177.628 268.368 177.58 268.451C177.533 268.535 177.507 268.629 177.507 268.725C177.507 268.821 177.533 268.916 177.58 268.999C177.628 269.082 177.697 269.152 177.78 269.2L221.49 294.45L298.7 249.86Z" fill="black"/>
<path d="M295.47 244.6V245.6C295.471 246.303 295.287 246.994 294.936 247.603C294.584 248.213 294.079 248.719 293.47 249.07L223.47 289.47C222.86 289.815 222.171 289.997 221.47 289.997C220.769 289.997 220.08 289.815 219.47 289.47L181.32 267.47C180.713 267.119 180.208 266.615 179.857 266.008C179.506 265.4 179.321 264.712 179.32 264.01V262.66C179.318 262.749 179.34 262.837 179.384 262.915C179.428 262.992 179.492 263.056 179.57 263.1L221.46 287.3L295.47 244.6Z" fill="#37474F"/>
<path d="M295.47 244.59L253.98 220.59C253.617 220.379 253.205 220.268 252.785 220.268C252.365 220.268 251.953 220.379 251.59 220.59L179.59 262.16C179.509 262.206 179.442 262.273 179.395 262.354C179.348 262.435 179.323 262.527 179.323 262.62C179.323 262.713 179.348 262.805 179.395 262.886C179.442 262.967 179.509 263.034 179.59 263.08L221.47 287.26L295.47 244.59Z" fill="#455A64"/>
<path d="M221.11 283.79L198.73 270.88L264.17 233.1L286.67 245.94L221.11 283.79Z" fill="#37474F"/>
<path d="M286.67 245.94L285.81 246.43L264.17 234.08L199.59 271.37L198.73 270.88L264.17 233.09L286.67 245.94Z" fill="#263238"/>
<path d="M210.11 247.88L210.52 248.12L221.49 254.45L241 243.19L241.4 242.96L230.02 236.38L210.11 247.88Z" fill="#263238"/>
<path d="M210.52 248.12L221.49 254.45L241 243.19L230.02 236.85L210.52 248.12Z" fill="#37474F"/>
<path d="M221.49 287.31V290C222.192 290.002 222.881 289.819 223.49 289.47L293.49 249.07C294.099 248.719 294.604 248.213 294.956 247.603C295.307 246.994 295.491 246.303 295.49 245.6V244.6L221.49 287.31Z" fill="#263238"/>
<path d="M184 257.53C184 257.53 185 258.04 186.57 258.67C188.01 259.23 189.29 260.37 192.71 261.48C196.77 262.79 202.01 261.39 205.55 261.25C209.09 261.11 215.08 262.85 218.35 264.25C221.62 265.65 225.63 260.63 227.27 261.25C228.91 261.87 231.79 260.6 228.81 257.56C225.83 254.52 221.52 250.31 217.86 249.03C217.023 248.692 216.165 248.411 215.29 248.19C216.568 248.042 217.834 247.808 219.08 247.49C220.336 247.13 221.459 246.411 222.31 245.42C222.63 245.01 222.87 244.36 222.47 244.02C222.322 243.901 222.14 243.831 221.95 243.82C219.19 243.7 217.03 243.24 214.52 243.02C213.404 242.835 212.266 242.835 211.15 243.02C210.15 243.28 209.09 243.57 208.07 243.9C203.48 245.41 197.3 245.31 193.84 245.24C192.42 245.24 189.09 244.66 189.09 244.66C188.25 244.58 187.4 245.88 185.84 249.22C183.32 254.49 184 257.53 184 257.53Z" fill="#FFA8A7"/>
<path d="M213.74 246.21C212.041 246.109 210.339 246.357 208.74 246.94C210.959 247.088 213.151 247.504 215.27 248.18C216.548 248.032 217.814 247.798 219.06 247.48C220.164 247.153 221.17 246.559 221.99 245.75C220 247.07 216.12 246.48 213.74 246.21Z" fill="#F28F8F"/>
<path d="M189.63 260.27C185.17 257.96 162.84 255.34 154.49 253.09C149.489 251.787 144.564 250.205 139.74 248.35C136.48 247.08 134.46 245.24 132.47 237.51C130.48 229.78 122 197.86 121.08 188.37C120.16 178.88 121.16 173.89 124.53 169.47C127 166.23 133.63 163 133.63 163C133.63 163 141.54 166.95 144.39 178.34C147.24 189.73 147.09 195.97 147.09 195.97L155.16 230.58L172.57 237.86C180.57 241.18 187.48 244.4 191.04 244.96C194.6 245.52 189.63 260.27 189.63 260.27Z" fill="#FFA8A7"/>
<path d="M133.9 162.12C126.8 165.6 123.16 168.79 121.19 174.47C119.22 180.15 120.28 188.28 121.65 195.47C123.02 202.66 126.2 215.87 126.2 215.87C126.2 215.87 129.84 216.93 139.39 214.5C148.94 212.07 150.62 208.59 150.62 208.59L147.81 194.4C147.81 194.4 147.9 167.59 133.9 162.12Z" fill="#0088CC"/>
<path opacity="0.2" d="M133.9 162.12C126.8 165.6 123.16 168.79 121.19 174.47C119.22 180.15 120.28 188.28 121.65 195.47C123.02 202.66 126.2 215.87 126.2 215.87C126.2 215.87 129.84 216.93 139.39 214.5C148.94 212.07 150.62 208.59 150.62 208.59L147.81 194.4C147.81 194.4 147.9 167.59 133.9 162.12Z" fill="black"/>
<path d="M222.62 287.9C223.281 288.156 223.99 288.26 224.697 288.204C225.403 288.149 226.087 287.935 226.7 287.58L296.38 247.36C296.983 247.009 297.502 246.53 297.9 245.956C298.297 245.382 298.564 244.728 298.68 244.04L306.31 198.55C306.35 198.295 306.37 198.038 306.37 197.78C306.372 197.154 306.249 196.533 306.008 195.955C305.768 195.376 305.415 194.851 304.97 194.41L232.56 236.22C232.115 236.48 231.732 236.833 231.439 237.257C231.145 237.68 230.948 238.162 230.86 238.67L222.62 287.9Z" fill="#37474F"/>
<path d="M221.49 287.31L221.97 287.58C222.178 287.703 222.396 287.81 222.62 287.9L230.86 238.67C230.947 238.162 231.145 237.68 231.439 237.257C231.732 236.833 232.115 236.48 232.56 236.22L305 194.41C304.699 194.123 304.363 193.874 304 193.67L231.44 235.56C230.995 235.819 230.611 236.173 230.318 236.596C230.024 237.019 229.827 237.502 229.74 238.01L221.49 287.31Z" fill="#455A64"/>
<path d="M231.53 237.15L230.41 236.5C230.071 236.942 229.844 237.461 229.75 238.01L221.49 287.31L221.97 287.58C222.178 287.703 222.396 287.81 222.62 287.9L230.86 238.67C230.962 238.118 231.191 237.598 231.53 237.15V237.15Z" fill="#263238"/>
<path d="M261.86 245.91C262.37 242.91 265.51 238.82 268.86 236.91C272.21 235 274.55 235.86 274.04 238.91C273.53 241.96 270.38 246 267.04 247.91C263.7 249.82 261.35 249 261.86 245.91Z" fill="#0088CC"/>
<path d="M59.21 400.64C59.21 391.91 71.79 384.83 87.32 384.83C102.85 384.83 115.43 391.91 115.43 400.64V402.71C115.43 411.44 102.85 418.52 87.32 418.52C71.79 418.52 59.21 411.44 59.21 402.71V400.64Z" fill="#0088CC"/>
<path opacity="0.6" d="M59.21 400.64C59.21 391.91 71.79 384.83 87.32 384.83C102.85 384.83 115.43 391.91 115.43 400.64V402.71C115.43 411.44 102.85 418.52 87.32 418.52C71.79 418.52 59.21 411.44 59.21 402.71V400.64Z" fill="white"/>
<path opacity="0.1" d="M59.21 400.64C59.21 391.91 71.79 384.83 87.32 384.83C102.85 384.83 115.43 391.91 115.43 400.64V402.71C115.43 411.44 102.85 418.52 87.32 418.52C71.79 418.52 59.21 411.44 59.21 402.71V400.64Z" fill="black"/>
<path d="M59.21 400.64C59.21 409.37 71.79 416.44 87.32 416.44C102.85 416.44 115.43 409.37 115.43 400.64C115.43 391.91 102.85 384.83 87.32 384.83C71.79 384.83 59.21 391.91 59.21 400.64Z" fill="#0088CC"/>
<path opacity="0.75" d="M59.21 400.64C59.21 409.37 71.79 416.44 87.32 416.44C102.85 416.44 115.43 409.37 115.43 400.64C115.43 391.91 102.85 384.83 87.32 384.83C71.79 384.83 59.21 391.91 59.21 400.64Z" fill="white"/>
<path opacity="0.05" d="M59.21 400.64C59.21 409.37 71.79 416.44 87.32 416.44C102.85 416.44 115.43 409.37 115.43 400.64C115.43 391.91 102.85 384.83 87.32 384.83C71.79 384.83 59.21 391.91 59.21 400.64Z" fill="black"/>
<path d="M113.42 355.1C113.565 355.102 113.705 355.051 113.815 354.957C113.926 354.864 113.998 354.733 114.02 354.59L117.68 327.77C117.691 327.692 117.687 327.612 117.668 327.536C117.648 327.459 117.614 327.387 117.566 327.324C117.519 327.261 117.459 327.208 117.391 327.168C117.323 327.127 117.248 327.101 117.17 327.09C117.013 327.07 116.854 327.112 116.727 327.207C116.6 327.302 116.515 327.443 116.49 327.6L112.83 354.41C112.807 354.568 112.846 354.728 112.94 354.857C113.033 354.986 113.173 355.073 113.33 355.1H113.42Z" fill="#FAFAFA"/>
<path d="M107.51 361.36C107.657 361.358 107.799 361.302 107.908 361.203C108.017 361.103 108.085 360.967 108.1 360.82L111.71 326.27C111.716 326.118 111.664 325.97 111.565 325.855C111.466 325.74 111.326 325.667 111.175 325.65C111.025 325.634 110.873 325.675 110.751 325.766C110.63 325.857 110.547 325.991 110.52 326.14L106.91 360.7C106.893 360.858 106.939 361.016 107.039 361.139C107.138 361.263 107.282 361.342 107.44 361.36H107.51Z" fill="#FAFAFA"/>
<path d="M100.17 364.91C100.322 364.91 100.469 364.853 100.581 364.749C100.692 364.645 100.76 364.502 100.77 364.35L103.45 322C103.458 321.84 103.403 321.683 103.296 321.563C103.19 321.443 103.04 321.37 102.88 321.36C102.801 321.352 102.721 321.36 102.646 321.384C102.57 321.408 102.501 321.448 102.441 321.501C102.382 321.554 102.334 321.618 102.301 321.69C102.268 321.762 102.251 321.841 102.25 321.92L99.57 364.24C99.5646 364.319 99.5748 364.398 99.6 364.473C99.6252 364.548 99.665 364.617 99.7171 364.676C99.7691 364.736 99.8324 364.784 99.9032 364.819C99.9741 364.854 100.051 364.875 100.13 364.88L100.17 364.91Z" fill="#FAFAFA"/>
<path d="M91.73 366.67C91.8857 366.67 92.0354 366.61 92.1473 366.501C92.2593 366.393 92.3248 366.246 92.33 366.09L93.21 320.09C93.2101 319.932 93.1485 319.779 93.0384 319.666C92.9283 319.552 92.7783 319.485 92.62 319.48C92.5394 319.471 92.4578 319.48 92.381 319.506C92.3042 319.532 92.2342 319.575 92.1759 319.631C92.1176 319.688 92.0725 319.756 92.0438 319.832C92.0151 319.908 92.0036 319.989 92.01 320.07L91.13 366.07C91.1286 366.149 91.1429 366.227 91.1718 366.3C91.2007 366.374 91.2438 366.441 91.2986 366.497C91.3534 366.554 91.4188 366.599 91.4911 366.631C91.5634 366.662 91.6412 366.679 91.72 366.68L91.73 366.67Z" fill="#FAFAFA"/>
<path d="M60.5201 355.1C60.3765 355.101 60.2374 355.05 60.1288 354.956C60.0202 354.863 59.9495 354.732 59.9301 354.59L56.2701 327.77C56.2471 327.614 56.2867 327.455 56.3803 327.327C56.4739 327.2 56.614 327.115 56.7701 327.09C56.9275 327.07 57.0866 327.112 57.2135 327.207C57.3405 327.302 57.4253 327.443 57.4501 327.6L61.1201 354.41C61.143 354.569 61.1024 354.731 61.0069 354.86C60.9114 354.989 60.7688 355.075 60.6101 355.1H60.5201Z" fill="#FAFAFA"/>
<path d="M66.44 361.36C66.2907 361.361 66.1465 361.306 66.0356 361.206C65.9246 361.106 65.8549 360.968 65.84 360.82L62.23 326.27C62.2131 326.112 62.2594 325.954 62.3587 325.831C62.4581 325.707 62.6023 325.628 62.76 325.61C62.8383 325.6 62.9178 325.606 62.9937 325.628C63.0696 325.649 63.1405 325.686 63.202 325.735C63.2635 325.785 63.3145 325.846 63.352 325.916C63.3894 325.985 63.4125 326.061 63.42 326.14L67 360.7C67.014 360.859 66.9654 361.017 66.8644 361.14C66.7635 361.263 66.6183 361.342 66.46 361.36H66.44Z" fill="#FAFAFA"/>
<path d="M73.78 364.91C73.6268 364.913 73.4786 364.856 73.3666 364.751C73.2547 364.647 73.1877 364.503 73.18 364.35L70.5 322C70.4945 321.921 70.5047 321.842 70.5299 321.767C70.5552 321.692 70.595 321.623 70.647 321.564C70.699 321.504 70.7623 321.456 70.8332 321.421C70.904 321.386 70.9811 321.365 71.06 321.36C71.1393 321.352 71.2196 321.36 71.2957 321.384C71.3718 321.408 71.4421 321.448 71.5021 321.5C71.5622 321.553 71.6108 321.617 71.6448 321.69C71.6789 321.762 71.6976 321.84 71.7 321.92L74.37 364.24C74.3754 364.319 74.3652 364.398 74.34 364.473C74.3147 364.548 74.2749 364.617 74.2229 364.676C74.1709 364.736 74.1076 364.784 74.0368 364.819C73.9659 364.854 73.8888 364.875 73.81 364.88L73.78 364.91Z" fill="#FAFAFA"/>
<path d="M82.2101 366.67C82.0544 366.67 81.9047 366.61 81.7927 366.501C81.6808 366.393 81.6153 366.246 81.6101 366.09L80.7401 320.09C80.7374 320.012 80.7504 319.934 80.7782 319.86C80.806 319.787 80.8482 319.72 80.9022 319.663C80.9562 319.607 81.0209 319.561 81.0927 319.53C81.1644 319.498 81.2417 319.481 81.3201 319.48C81.4011 319.471 81.4831 319.48 81.5603 319.506C81.6375 319.532 81.7081 319.575 81.7671 319.631C81.8262 319.687 81.8722 319.756 81.9021 319.831C81.932 319.907 81.9449 319.989 81.9401 320.07L82.8101 366.07C82.8128 366.148 82.7998 366.226 82.772 366.3C82.7441 366.373 82.702 366.44 82.648 366.497C82.594 366.553 82.5292 366.599 82.4575 366.63C82.3857 366.662 82.3084 366.679 82.2301 366.68L82.2101 366.67Z" fill="#FAFAFA"/>
<path d="M113.4 372.94C111.88 371.07 109.83 369.3 109.32 366.83C108.93 364.95 109 362.83 107.88 361.3C107.015 360.332 106.042 359.466 104.98 358.72C103.641 357.472 102.736 355.828 102.398 354.029C102.059 352.23 102.305 350.369 103.1 348.72C101.38 348.07 99.4299 348.94 98.0399 350.14C96.6499 351.34 95.5399 352.88 94.0399 353.95C92.0399 355.41 89.4199 355.85 87.0999 356.81C84.7799 357.77 82.4799 359.64 82.4099 362.15C82.3499 364.45 84.1399 366.98 82.7699 368.83C80.6599 371.67 75.1799 369.04 75.3999 374.14C75.4899 376.08 76.1699 377.05 74.1699 378.42C72.1699 379.79 69.2799 379.05 67.1699 380.48C66.127 381.353 65.3364 382.489 64.8799 383.77C64.2099 385.23 63.5399 386.69 63.0099 388.21C61.5366 392.169 61.3857 396.498 62.5799 400.55C63.1499 402.3 64.1099 404.86 65.9499 405.44C68.4399 406.23 70.7599 405.44 73.0199 407.29C73.9299 408.04 74.5999 409.03 75.4799 409.8C77.1557 411.144 79.2525 411.852 81.3999 411.8C83.1099 411.8 84.7599 411.17 86.3999 411.14C87.5315 411.237 88.6448 411.486 89.7099 411.88C92.1699 412.46 95.2599 412.45 97.1099 410.45C98.4399 409.02 98.9099 406.75 100.65 405.86C102.39 404.97 104.65 406.03 106.72 405.97C110.17 405.89 112.72 402.46 113.27 399.05C113.82 395.64 112.94 392.2 112.52 388.77C111.95 384.24 115.24 380.88 115.08 376.71C114.946 375.304 114.356 373.98 113.4 372.94V372.94Z" fill="#FAFAFA"/>
<path d="M113.4 372.94C112.77 372.17 112.05 371.41 111.4 370.61C110.73 372.77 109.23 374.61 108.4 376.69C107.4 379.2 107.4 381.99 107.34 384.69C107.34 387.63 107.34 390.58 107.34 393.53C107.398 394.067 107.26 394.607 106.95 395.05C106.25 395.81 104.95 395.23 104.25 394.47C103.55 393.71 102.84 392.73 101.81 392.71C100.59 392.71 99.5999 394.08 98.3999 393.84C97.1999 393.6 96.9499 392.14 97.3999 391.13C97.96 390.177 98.6924 389.336 99.5599 388.65C99.9891 388.303 100.325 387.854 100.536 387.344C100.747 386.834 100.828 386.279 100.77 385.73C97.4199 385.3 94.4999 387.87 92.0999 390.25C91.0399 391.25 89.8899 392.76 90.5099 394.11C90.9799 395.11 92.2899 395.55 92.8499 396.54C93.1129 397.138 93.1568 397.81 92.9739 398.437C92.791 399.064 92.3931 399.607 91.8499 399.97C90.6872 400.684 89.3629 401.094 87.9999 401.16C87.1094 401.345 86.1904 401.345 85.2999 401.16C84.8552 401.067 84.4478 400.845 84.1293 400.521C83.8107 400.197 83.5952 399.786 83.5099 399.34C83.4299 398.43 84.3699 397.5 85.2199 397.83C83.6499 396.68 81.9499 395.49 80.0099 395.44C78.0699 395.39 76.0099 397.08 76.3999 398.98L68.6699 398.81C69.7299 397.28 68.4799 395.24 67.1699 393.92C66.3147 393.176 65.5823 392.302 64.9999 391.33C64.7127 390.834 64.5698 390.268 64.5874 389.696C64.6051 389.123 64.7826 388.567 65.0999 388.09C65.7599 387.25 67.0499 386.82 67.2099 385.76C67.2214 385.332 67.0747 384.915 66.798 384.589C66.5213 384.262 66.1339 384.049 65.7099 383.99C65.412 383.94 65.1078 383.94 64.8099 383.99C64.1699 385.39 63.5299 386.79 63.0299 388.24C61.5566 392.199 61.4057 396.528 62.5999 400.58C63.1699 402.33 64.1299 404.89 65.9699 405.47C68.4599 406.26 70.7799 405.47 73.0399 407.32C73.9499 408.07 74.6199 409.06 75.4999 409.83C77.1758 411.174 79.2725 411.882 81.4199 411.83C83.1299 411.83 84.7799 411.2 86.4199 411.17C87.5515 411.267 88.6649 411.516 89.7299 411.91C92.1899 412.49 95.2799 412.48 97.1299 410.48C98.4599 409.05 98.9299 406.78 100.67 405.89C102.41 405 104.67 406.06 106.74 406C110.19 405.92 112.74 402.49 113.29 399.08C113.84 395.67 112.96 392.23 112.54 388.8C111.97 384.27 115.26 380.91 115.1 376.74C114.967 375.321 114.369 373.985 113.4 372.94V372.94Z" fill="#EBEBEB"/>
<path d="M75 383.07C75.2356 383.402 75.396 383.782 75.4703 384.183C75.5445 384.583 75.5308 384.995 75.43 385.39C75.291 385.778 75.1807 386.176 75.1 386.58C75.0664 386.785 75.1035 386.996 75.2052 387.178C75.3069 387.36 75.4673 387.501 75.66 387.58C75.999 387.609 76.337 387.513 76.61 387.31C77.3845 386.817 78.3132 386.624 79.22 386.77C79.6719 386.86 80.0746 387.114 80.3498 387.483C80.6251 387.853 80.7535 388.311 80.71 388.77C81.0265 388.214 81.1929 387.585 81.1929 386.945C81.1929 386.305 81.0265 385.676 80.71 385.12C80.5396 384.854 80.3182 384.625 80.0587 384.445C79.7992 384.266 79.5066 384.139 79.198 384.073C78.8893 384.007 78.5706 384.003 78.2603 384.061C77.9499 384.119 77.6542 384.237 77.39 384.41C77.5257 383.898 77.4694 383.354 77.2318 382.881C76.9942 382.407 76.5916 382.037 76.1 381.84C75.6398 381.66 75.1473 381.577 74.6535 381.596C74.1596 381.614 73.675 381.735 73.23 381.95C73.9197 382.136 74.5369 382.526 75 383.07V383.07Z" fill="#EBEBEB"/>
<path d="M87.7601 374.9C87.4401 375.12 87.0701 375.26 86.7601 375.51C86.594 375.613 86.4618 375.763 86.3801 375.941C86.2983 376.119 86.2705 376.317 86.3001 376.51C86.9901 376.4 87.6001 376.98 87.9801 377.56C88.2769 378.197 88.7398 378.743 89.3201 379.14C89.8301 379.39 90.47 379.35 90.92 379.69C91.58 380.21 91.4701 381.22 91.2901 382.04L94.56 379.85C94.7585 379.728 94.9372 379.576 95.09 379.4C95.2664 379.107 95.3302 378.76 95.2695 378.423C95.2088 378.086 95.0277 377.783 94.7601 377.57C94.2067 377.163 93.5369 376.946 92.85 376.95C92.178 376.948 91.5078 376.878 90.85 376.74C90.7656 376.725 90.6861 376.69 90.6181 376.638C90.5502 376.586 90.496 376.518 90.4601 376.44C90.3801 376.18 90.7001 375.97 90.9601 375.87L94.1101 374.68C94.1582 374.634 94.1965 374.579 94.2226 374.518C94.2488 374.457 94.2623 374.391 94.2623 374.325C94.2623 374.259 94.2488 374.193 94.2226 374.132C94.1965 374.071 94.1582 374.016 94.1101 373.97C93.8991 373.809 93.6449 373.715 93.38 373.7C91.3828 373.224 89.3544 372.89 87.31 372.7C87.33 373.55 89.3501 373.81 87.7601 374.9Z" fill="#EBEBEB"/>
<path d="M95.5601 361.76C93.8701 361.5 91.8801 362.38 91.5601 364.04C92.9501 364.13 94.0201 365.27 94.9301 366.34L96.3301 368C96.8351 368.493 97.2008 369.11 97.3901 369.79C97.5101 370.43 97.3901 371.16 97.7301 371.69C98.0149 372.005 98.3875 372.228 98.8001 372.33C99.2032 372.539 99.6508 372.649 100.105 372.649C100.559 372.649 101.007 372.539 101.41 372.33C101.693 372.074 101.893 371.739 101.984 371.368C102.075 370.997 102.053 370.608 101.92 370.25C101.629 369.54 101.201 368.894 100.66 368.35C102.214 368.022 103.83 368.169 105.3 368.77C105.635 368.974 106.038 369.039 106.42 368.95C106.56 368.876 106.682 368.773 106.777 368.647C106.872 368.52 106.938 368.375 106.97 368.22C107.067 367.714 107.016 367.191 106.823 366.714C106.629 366.237 106.302 365.825 105.88 365.53C105.015 364.96 103.995 364.671 102.96 364.7C100 364.72 98.4101 362.2 95.5601 361.76Z" fill="#EBEBEB"/>
<path d="M114 402.17L121.33 352.05C121.341 351.972 121.337 351.892 121.318 351.816C121.298 351.739 121.264 351.667 121.216 351.604C121.169 351.541 121.11 351.488 121.042 351.448C120.974 351.407 120.898 351.381 120.82 351.37C120.663 351.35 120.504 351.392 120.377 351.487C120.25 351.582 120.165 351.723 120.14 351.88L112.83 402C112.807 402.156 112.847 402.315 112.94 402.443C113.034 402.57 113.174 402.655 113.33 402.68H113.42C113.566 402.679 113.706 402.626 113.816 402.531C113.926 402.436 113.999 402.304 114.02 402.16" fill="#FAFAFA"/>
<path d="M107.51 408.94C107.656 408.939 107.796 408.884 107.905 408.786C108.014 408.689 108.083 408.555 108.1 408.41L113.34 358.29C113.357 358.132 113.311 357.974 113.211 357.851C113.112 357.727 112.968 357.648 112.81 357.63C112.732 357.62 112.652 357.626 112.576 357.648C112.5 357.669 112.43 357.706 112.368 357.755C112.306 357.805 112.255 357.866 112.218 357.936C112.181 358.005 112.157 358.081 112.15 358.16L106.91 408.28C106.9 408.358 106.906 408.438 106.928 408.514C106.949 408.59 106.986 408.66 107.035 408.722C107.085 408.784 107.146 408.835 107.216 408.872C107.285 408.909 107.361 408.933 107.44 408.94H107.51Z" fill="#FAFAFA"/>
<path d="M100.17 412.5C100.323 412.498 100.47 412.438 100.581 412.332C100.693 412.227 100.76 412.083 100.77 411.93L103.91 361.81C103.915 361.732 103.905 361.653 103.88 361.579C103.854 361.505 103.814 361.436 103.762 361.377C103.71 361.319 103.647 361.271 103.576 361.237C103.505 361.203 103.428 361.184 103.35 361.18C103.271 361.172 103.19 361.18 103.114 361.204C103.038 361.228 102.968 361.268 102.908 361.32C102.848 361.373 102.799 361.437 102.765 361.51C102.731 361.582 102.712 361.66 102.71 361.74L99.5699 411.86C99.5616 412.019 99.6155 412.174 99.72 412.294C99.8246 412.413 99.9716 412.487 100.13 412.5H100.17Z" fill="#FAFAFA"/>
<path d="M91.7299 414.26C91.8873 414.26 92.0384 414.198 92.1507 414.088C92.2629 413.977 92.3273 413.827 92.3299 413.67L93.3299 363.55C93.3312 363.471 93.317 363.393 93.2881 363.32C93.2592 363.246 93.2161 363.179 93.1613 363.123C93.1065 363.066 93.0411 363.021 92.9688 362.989C92.8965 362.958 92.8187 362.941 92.7399 362.94C92.6593 362.931 92.5777 362.94 92.5009 362.966C92.4242 362.992 92.3541 363.035 92.2958 363.091C92.2375 363.148 92.1924 363.216 92.1637 363.292C92.1351 363.368 92.1235 363.449 92.1299 363.53L91.0799 413.65C91.0786 413.729 91.0928 413.807 91.1217 413.88C91.1507 413.954 91.1938 414.021 91.2486 414.077C91.3033 414.134 91.3688 414.179 91.4411 414.211C91.5134 414.242 91.5911 414.259 91.6699 414.26H91.7299Z" fill="#FAFAFA"/>
<path d="M82.9101 414.26C82.9889 414.259 83.0667 414.242 83.139 414.21C83.2113 414.179 83.2767 414.134 83.3315 414.077C83.3862 414.021 83.4293 413.954 83.4583 413.88C83.4872 413.807 83.5014 413.729 83.5001 413.65L82.4501 363.53C82.4475 363.373 82.3831 363.222 82.2709 363.112C82.1586 363.002 82.0075 362.94 81.8501 362.94V362.94C81.7713 362.941 81.6935 362.958 81.6212 362.989C81.5489 363.021 81.4835 363.066 81.4287 363.123C81.3739 363.179 81.3309 363.246 81.3019 363.32C81.273 363.393 81.2588 363.471 81.2601 363.55L82.2601 413.67C82.2612 413.752 82.2792 413.833 82.313 413.909C82.3469 413.984 82.3958 414.051 82.4568 414.106C82.5178 414.162 82.5895 414.204 82.6675 414.23C82.7454 414.257 82.828 414.267 82.9101 414.26V414.26Z" fill="#FAFAFA"/>
<path d="M74.4699 412.5C74.6282 412.487 74.7752 412.413 74.8798 412.294C74.9844 412.174 75.0382 412.019 75.0299 411.86L71.8899 361.74C71.8907 361.659 71.874 361.579 71.841 361.506C71.808 361.432 71.7595 361.366 71.6987 361.313C71.6379 361.26 71.5663 361.22 71.4888 361.197C71.4113 361.174 71.3298 361.169 71.2499 361.18C71.1715 361.184 71.0946 361.203 71.0238 361.237C70.953 361.271 70.8897 361.319 70.8375 361.377C70.7854 361.436 70.7454 361.505 70.7201 361.579C70.6947 361.653 70.6845 361.732 70.6899 361.81L73.8299 411.93C73.8402 412.09 73.9131 412.24 74.0329 412.346C74.1527 412.453 74.3097 412.508 74.4699 412.5Z" fill="#FAFAFA"/>
<path d="M67.1299 408.94H67.1999C67.2785 408.933 67.3548 408.909 67.4242 408.872C67.4937 408.835 67.555 408.784 67.6044 408.722C67.6538 408.661 67.6904 408.59 67.712 408.514C67.7335 408.438 67.7396 408.358 67.7299 408.28L62.4899 358.16C62.4838 358.081 62.4616 358.004 62.4246 357.934C62.3876 357.864 62.3366 357.802 62.2747 357.752C62.2129 357.702 62.1415 357.666 62.065 357.645C61.9885 357.624 61.9084 357.619 61.8299 357.63C61.7513 357.637 61.675 357.661 61.6055 357.698C61.5361 357.735 61.4748 357.786 61.4254 357.848C61.376 357.91 61.3394 357.98 61.3178 358.056C61.2963 358.132 61.2902 358.212 61.2999 358.29L66.5399 408.41C66.5569 408.555 66.6262 408.689 66.7348 408.786C66.8435 408.884 66.9839 408.939 67.1299 408.94V408.94Z" fill="#FAFAFA"/>
<path d="M61.2201 402.69H61.3001C61.3783 402.679 61.4536 402.653 61.5215 402.612C61.5895 402.572 61.6489 402.519 61.6963 402.456C61.7437 402.393 61.7781 402.321 61.7976 402.244C61.8172 402.168 61.8214 402.088 61.8101 402.01L54.4801 351.89C54.4554 351.733 54.3705 351.592 54.2436 351.497C54.1166 351.402 53.9575 351.36 53.8001 351.38C53.7219 351.391 53.6467 351.417 53.5787 351.458C53.5107 351.498 53.4513 351.551 53.4039 351.614C53.3566 351.677 53.3221 351.749 53.3026 351.826C53.283 351.902 53.2788 351.982 53.2901 352.06L60.6201 402.18C60.6437 402.322 60.717 402.451 60.8268 402.545C60.9366 402.638 61.076 402.69 61.2201 402.69V402.69Z" fill="#FAFAFA"/>
<path d="M48.21 342.23C48.6145 344.208 49.4175 346.083 50.57 347.74C52.8901 351.022 55.9356 353.726 59.47 355.64C74.84 364.51 99.79 364.51 115.18 355.64C118.71 353.723 121.751 351.02 124.07 347.74C125.21 346.076 126.012 344.204 126.43 342.23V342.23C127.8 335.55 124.04 328.59 115.17 323.47C99.78 314.58 74.83 314.58 59.46 323.47C50.59 328.59 46.84 335.55 48.21 342.23ZM64.1 353C59.15 350.13 56.1 346.59 54.99 342.89C56.09 338.89 59.13 335.1 64.1 332.01C76.92 324.07 97.71 324.07 110.53 332.01C115.53 335.1 118.53 338.92 119.64 342.9C118.52 346.6 115.47 350.14 110.52 353C97.71 360.35 76.92 360.35 64.1 353Z" fill="#0088CC"/>
<path opacity="0.75" d="M48.21 342.23C48.6145 344.208 49.4175 346.083 50.57 347.74C52.8901 351.022 55.9356 353.726 59.47 355.64C74.84 364.51 99.79 364.51 115.18 355.64C118.71 353.723 121.751 351.02 124.07 347.74C125.21 346.076 126.012 344.204 126.43 342.23V342.23C127.8 335.55 124.04 328.59 115.17 323.47C99.78 314.58 74.83 314.58 59.46 323.47C50.59 328.59 46.84 335.55 48.21 342.23ZM64.1 353C59.15 350.13 56.1 346.59 54.99 342.89C56.09 338.89 59.13 335.1 64.1 332.01C76.92 324.07 97.71 324.07 110.53 332.01C115.53 335.1 118.53 338.92 119.64 342.9C118.52 346.6 115.47 350.14 110.52 353C97.71 360.35 76.92 360.35 64.1 353Z" fill="white"/>
<path d="M50.5699 347.73C52.8883 351.01 55.93 353.713 59.4599 355.63C74.8499 364.51 99.7899 364.51 115.18 355.63C118.71 353.713 121.752 351.01 124.07 347.73C125.217 346.074 126.016 344.203 126.42 342.23V342.23L124.68 349.18C123.88 354.01 120.28 358.72 113.85 362.43C99.1899 370.88 75.4299 370.88 60.7699 362.43C54.4299 358.77 50.8299 354.12 49.9799 349.35L49.8899 348.73L48.1899 342.23C48.6052 344.205 49.4147 346.075 50.5699 347.73Z" fill="#0088CC"/>
<path opacity="0.6" d="M50.5699 347.73C52.8883 351.01 55.93 353.713 59.4599 355.63C74.8499 364.51 99.7899 364.51 115.18 355.63C118.71 353.713 121.752 351.01 124.07 347.73C125.217 346.074 126.016 344.203 126.42 342.23V342.23L124.68 349.18C123.88 354.01 120.28 358.72 113.85 362.43C99.1899 370.88 75.4299 370.88 60.7699 362.43C54.4299 358.77 50.8299 354.12 49.9799 349.35L49.8899 348.73L48.1899 342.23C48.6052 344.205 49.4147 346.075 50.5699 347.73Z" fill="white"/>
<path d="M54.6599 341.47C54.7499 341.93 54.8599 342.38 54.9899 342.84C56.0899 338.84 59.1299 335.05 64.0999 331.96C76.9199 324.02 97.7099 324.02 110.53 331.96C115.53 335.05 118.53 338.87 119.64 342.85C119.788 342.396 119.902 341.931 119.98 341.46C120.98 336 117.78 330.34 110.52 326.14C97.7099 318.74 76.9199 318.74 64.0999 326.14C56.8499 330.34 53.6999 336 54.6599 341.47Z" fill="#0088CC"/>
<path opacity="0.6" d="M54.6599 341.47C54.7499 341.93 54.8599 342.38 54.9899 342.84C56.0899 338.84 59.1299 335.05 64.0999 331.96C76.9199 324.02 97.7099 324.02 110.53 331.96C115.53 335.05 118.53 338.87 119.64 342.85C119.788 342.396 119.902 341.931 119.98 341.46C120.98 336 117.78 330.34 110.52 326.14C97.7099 318.74 76.9199 318.74 64.0999 326.14C56.8499 330.34 53.6999 336 54.6599 341.47Z" fill="white"/>
<path d="M265 64.2199C265.013 64.0865 264.991 63.9519 264.937 63.8293C264.883 63.7067 264.798 63.6001 264.69 63.5199V63.5199L262.63 62.3299C262.505 62.2732 262.366 62.2508 262.229 62.2648C262.092 62.2789 261.961 62.3289 261.85 62.4099L230.25 80.6299L229.4 77.7899C229.334 77.5337 229.168 77.3144 228.94 77.1799V77.1799L226.87 75.9999C226.718 75.9122 226.546 75.866 226.37 75.866C226.195 75.866 226.022 75.9122 225.87 75.9999L212.29 83.8399C211.969 84.0491 211.702 84.3311 211.511 84.6631C211.32 84.995 211.21 85.3674 211.19 85.7499V131C211.176 131.133 211.196 131.266 211.249 131.389C211.301 131.512 211.384 131.619 211.49 131.7V131.7L213.54 132.89C213.663 132.937 213.796 132.953 213.926 132.938C214.057 132.922 214.182 132.875 214.29 132.8L263.86 104.18C264.182 103.971 264.451 103.69 264.644 103.358C264.836 103.026 264.948 102.653 264.97 102.27L265 64.2199Z" fill="#0088CC"/>
<g opacity="0.5">
<path opacity="0.5" d="M228.92 77.1499C228.768 77.0622 228.596 77.016 228.42 77.016C228.244 77.016 228.072 77.0622 227.92 77.1499L214.35 84.9999C214.03 85.2089 213.763 85.4897 213.57 85.8199L211.5 84.6299C211.684 84.2907 211.953 84.0048 212.28 83.7999L225.86 75.9999C226.012 75.9122 226.184 75.866 226.36 75.866C226.536 75.866 226.708 75.9122 226.86 75.9999V75.9999L228.92 77.1499Z" fill="white"/>
<path opacity="0.5" d="M264.64 63.4799C264.52 63.4423 264.393 63.4318 264.269 63.4491C264.144 63.4664 264.025 63.5111 263.92 63.5799L232 81.9999C231.868 82.0776 231.72 82.124 231.568 82.1355C231.415 82.147 231.262 82.1234 231.12 82.0664C230.978 82.0094 230.851 81.9206 230.749 81.8068C230.646 81.693 230.572 81.5572 230.53 81.41L230.28 80.5899L261.88 62.3699C262.025 62.2735 262.196 62.2214 262.37 62.2199C262.471 62.2171 262.571 62.2413 262.66 62.2899V62.2899L264.64 63.4799Z" fill="white"/>
</g>
<path opacity="0.2" d="M213.4 132.78L213.51 132.9L211.51 131.74C211.429 131.688 211.364 131.615 211.32 131.53C211.314 131.487 211.314 131.443 211.32 131.4C211.278 131.285 211.258 131.163 211.26 131.04V85.7399C211.255 85.6967 211.255 85.6531 211.26 85.6099C211.26 85.5199 211.26 85.4299 211.26 85.3299V85.1999C211.306 85.0592 211.363 84.9222 211.43 84.7899C211.43 84.7399 211.43 84.6999 211.5 84.6599L213.57 85.8499C213.373 86.1802 213.263 86.5553 213.25 86.9399V132.22C213.245 132.286 213.245 132.353 213.25 132.42C213.245 132.453 213.245 132.487 213.25 132.52C213.25 132.52 213.25 132.52 213.25 132.58V132.65C213.292 132.702 213.342 132.746 213.4 132.78Z" fill="black"/>
<path d="M248.75 92.76C248.75 99.58 244.61 107.49 239.49 110.45C234.37 113.41 230.24 110.26 230.24 103.45C230.24 96.64 234.38 88.72 239.49 85.77C244.6 82.82 248.75 86 248.75 92.76Z" fill="#FAFAFA"/>
<path d="M244.54 92.43L240.15 89.11H240.05C239.973 89.0673 239.893 89.0306 239.81 89H239.62H239.49C239.45 88.9954 239.41 88.9954 239.37 89C239.333 88.9949 239.296 88.9949 239.26 89C239.234 88.9943 239.206 88.9943 239.18 89C239.097 89.0286 239.016 89.0655 238.94 89.11L238.79 89.21C238.722 89.2762 238.661 89.35 238.61 89.43C238.61 89.43 238.55 89.48 238.53 89.52L234.14 97.91C234.006 98.166 233.98 98.4645 234.066 98.7402C234.152 99.0158 234.344 99.2459 234.6 99.38C234.758 99.4594 234.933 99.5005 235.11 99.5C235.314 99.508 235.517 99.4577 235.694 99.3551C235.871 99.2524 236.015 99.1015 236.11 98.92L238.45 94.45V106.29C238.476 106.56 238.601 106.81 238.802 106.992C239.003 107.175 239.264 107.276 239.535 107.276C239.806 107.276 240.067 107.175 240.268 106.992C240.469 106.81 240.594 106.56 240.62 106.29V92.16L243.27 94.16C243.382 94.2629 243.514 94.3412 243.658 94.39C243.802 94.4389 243.954 94.4571 244.105 94.4435C244.257 94.4299 244.403 94.3849 244.536 94.3112C244.669 94.2376 244.785 94.137 244.877 94.0159C244.969 93.8948 245.034 93.7558 245.069 93.6079C245.104 93.4601 245.107 93.3065 245.079 93.1572C245.051 93.0079 244.993 92.8661 244.907 92.7408C244.821 92.6156 244.709 92.5097 244.58 92.43H244.54Z" fill="#0088CC"/>
<path d="M279.44 53.38L276.57 64.52C276.289 64.3211 275.974 64.1753 275.64 64.09C275.066 63.9449 274.461 63.9733 273.902 64.1715C273.344 64.3697 272.857 64.7288 272.502 65.2036C272.148 65.6784 271.941 66.2476 271.91 66.8394C271.879 67.4311 272.023 68.019 272.325 68.5287C272.627 69.0385 273.074 69.4473 273.608 69.7036C274.142 69.9599 274.741 70.0522 275.327 69.9689C275.914 69.8856 276.463 69.6304 276.905 69.2355C277.347 68.8406 277.662 68.3237 277.81 67.75L280.39 57.75L291.12 57.7L288.58 67.6C288.297 67.4044 287.983 67.2589 287.65 67.17C287.076 67.0255 286.472 67.0542 285.914 67.2524C285.356 67.4506 284.869 67.8095 284.515 68.2838C284.161 68.7581 283.954 69.3267 283.923 69.9179C283.891 70.5092 284.034 71.0966 284.336 71.6062C284.637 72.1159 285.083 72.525 285.616 72.782C286.149 73.039 286.747 73.1324 287.333 73.0505C287.92 72.9686 288.469 72.7149 288.911 72.3216C289.354 71.9282 289.67 71.4127 289.82 70.84V70.84L294.06 54.31L279.44 53.38Z" fill="#0088CC"/>
<path opacity="0.45" d="M279.44 53.38L276.57 64.52C276.289 64.3211 275.974 64.1753 275.64 64.09C275.066 63.9449 274.461 63.9733 273.902 64.1715C273.344 64.3697 272.857 64.7288 272.502 65.2036C272.148 65.6784 271.941 66.2476 271.91 66.8394C271.879 67.4311 272.023 68.019 272.325 68.5287C272.627 69.0385 273.074 69.4473 273.608 69.7036C274.142 69.9599 274.741 70.0522 275.327 69.9689C275.914 69.8856 276.463 69.6304 276.905 69.2355C277.347 68.8406 277.662 68.3237 277.81 67.75L280.39 57.75L291.12 57.7L288.58 67.6C288.297 67.4044 287.983 67.2589 287.65 67.17C287.076 67.0255 286.472 67.0542 285.914 67.2524C285.356 67.4506 284.869 67.8095 284.515 68.2838C284.161 68.7581 283.954 69.3267 283.923 69.9179C283.891 70.5092 284.034 71.0966 284.336 71.6062C284.637 72.1159 285.083 72.525 285.616 72.782C286.149 73.039 286.747 73.1324 287.333 73.0505C287.92 72.9686 288.469 72.7149 288.911 72.3216C289.354 71.9282 289.67 71.4127 289.82 70.84V70.84L294.06 54.31L279.44 53.38Z" fill="white"/>
<path d="M238.62 40.3101L235.74 51.4501C235.455 51.2572 235.141 51.112 234.81 51.0201C234.236 50.8795 233.632 50.9118 233.076 51.113C232.52 51.3143 232.036 51.6755 231.684 52.1511C231.333 52.6268 231.13 53.1958 231.101 53.7865C231.071 54.3773 231.218 54.9634 231.521 55.4713C231.824 55.9793 232.27 56.3862 232.804 56.6411C233.338 56.896 233.935 56.9875 234.52 56.904C235.106 56.8205 235.654 56.5658 236.095 56.1719C236.536 55.778 236.851 55.2624 237 54.6901L239.58 44.6901L250.31 44.6401L247.77 54.5401C247.488 54.3432 247.173 54.1977 246.84 54.1101C246.266 53.9643 245.663 53.9915 245.104 54.1881C244.546 54.3848 244.058 54.7422 243.703 55.2154C243.347 55.6886 243.14 56.2563 243.106 56.8472C243.072 57.4382 243.214 58.0258 243.514 58.5363C243.814 59.0467 244.258 59.4571 244.79 59.7158C245.322 59.9746 245.919 60.07 246.506 59.9903C247.092 59.9105 247.642 59.659 248.086 59.2675C248.53 58.876 248.848 58.362 249 57.7901V57.7901L253.24 41.2601L238.62 40.3101Z" fill="#0088CC"/>
<path opacity="0.7" d="M238.62 40.3101L235.74 51.4501C235.455 51.2572 235.141 51.112 234.81 51.0201C234.236 50.8795 233.632 50.9118 233.076 51.113C232.52 51.3143 232.036 51.6755 231.684 52.1511C231.333 52.6268 231.13 53.1958 231.101 53.7865C231.071 54.3773 231.218 54.9634 231.521 55.4713C231.824 55.9793 232.27 56.3862 232.804 56.6411C233.338 56.896 233.935 56.9875 234.52 56.904C235.106 56.8205 235.654 56.5658 236.095 56.1719C236.536 55.778 236.851 55.2624 237 54.6901L239.58 44.6901L250.31 44.6401L247.77 54.5401C247.488 54.3432 247.173 54.1977 246.84 54.1101C246.266 53.9643 245.663 53.9915 245.104 54.1881C244.546 54.3848 244.058 54.7422 243.703 55.2154C243.347 55.6886 243.14 56.2563 243.106 56.8472C243.072 57.4382 243.214 58.0258 243.514 58.5363C243.814 59.0467 244.258 59.4571 244.79 59.7158C245.322 59.9746 245.919 60.07 246.506 59.9903C247.092 59.9105 247.642 59.659 248.086 59.2675C248.53 58.876 248.848 58.362 249 57.7901V57.7901L253.24 41.2601L238.62 40.3101Z" fill="white"/>
<path d="M265.47 32.72C265.837 32.1911 266.31 31.7449 266.86 31.41C267.604 30.9767 268.401 30.6407 269.23 30.41C270.342 30.1369 271.423 29.755 272.46 29.27C272.979 29.0241 273.444 28.6759 273.825 28.2463C274.206 27.8168 274.497 27.3146 274.68 26.77C274.127 27.153 273.495 27.406 272.83 27.51C271.24 27.75 269.41 26.97 267.83 26.89C265.44 26.76 263.74 27.82 261.9 29.57C262.9 31.4 263.9 33.26 264.9 35.1C265.69 36.55 266.48 37.99 267.26 39.44C267.34 39.58 268.26 41.44 268.26 41.44C267.624 41.4678 267.002 41.6387 266.44 41.94C265.826 42.2761 265.324 42.787 265 43.408C264.676 44.029 264.543 44.7322 264.619 45.4286C264.695 46.125 264.975 46.7834 265.425 47.3202C265.876 47.8571 266.475 48.2483 267.147 48.4445C267.82 48.6406 268.535 48.6328 269.203 48.4221C269.871 48.2113 270.462 47.8071 270.9 47.2606C271.338 46.7141 271.605 46.0498 271.665 45.3519C271.726 44.654 271.578 43.9538 271.24 43.34L265.47 32.72Z" fill="#0088CC"/>
<path opacity="0.2" d="M265.47 32.72C265.837 32.1911 266.31 31.7449 266.86 31.41C267.604 30.9767 268.401 30.6407 269.23 30.41C270.342 30.1369 271.423 29.755 272.46 29.27C272.979 29.0241 273.444 28.6759 273.825 28.2463C274.206 27.8168 274.497 27.3146 274.68 26.77C274.127 27.153 273.495 27.406 272.83 27.51C271.24 27.75 269.41 26.97 267.83 26.89C265.44 26.76 263.74 27.82 261.9 29.57C262.9 31.4 263.9 33.26 264.9 35.1C265.69 36.55 266.48 37.99 267.26 39.44C267.34 39.58 268.26 41.44 268.26 41.44C267.624 41.4678 267.002 41.6387 266.44 41.94C265.826 42.2761 265.324 42.787 265 43.408C264.676 44.029 264.543 44.7322 264.619 45.4286C264.695 46.125 264.975 46.7834 265.425 47.3202C265.876 47.8571 266.475 48.2483 267.147 48.4445C267.82 48.6406 268.535 48.6328 269.203 48.4221C269.871 48.2113 270.462 47.8071 270.9 47.2606C271.338 46.7141 271.605 46.0498 271.665 45.3519C271.726 44.654 271.578 43.9538 271.24 43.34L265.47 32.72Z" fill="white"/>
<path d="M291.88 80.47C289.582 91.6975 290.986 103.367 295.88 113.73C295.88 113.73 321.51 107.73 334.74 108.93C329.837 99.1035 328.633 87.8406 331.35 77.2C321 74.71 300.86 75.35 291.88 80.47Z" fill="#F5F5F5"/>
<path d="M297.41 110.72C293.651 101.715 292.534 91.8262 294.19 82.2099C301.99 78.4499 318.01 77.5299 328.19 79.2099C326.47 88.2676 327.344 97.627 330.71 106.21C319.19 106.22 303.12 109.48 297.41 110.72Z" fill="#0088CC"/>
<path opacity="0.7" d="M297.41 110.72C293.651 101.715 292.534 91.8262 294.19 82.2099C301.99 78.4499 318.01 77.5299 328.19 79.2099C326.47 88.2676 327.344 97.627 330.71 106.21C319.19 106.22 303.12 109.48 297.41 110.72Z" fill="white"/>
<path opacity="0.7" d="M317.11 83.9999C316.468 83.8653 315.799 83.9822 315.241 84.3264C314.683 84.6707 314.278 85.216 314.11 85.8499C314.053 86.1621 314.06 86.4826 314.131 86.7919C314.202 87.1012 314.335 87.3928 314.522 87.6491C314.709 87.9054 314.946 88.121 315.219 88.2827C315.492 88.4444 315.795 88.549 316.11 88.5899C316.752 88.7296 317.424 88.6149 317.983 88.2699C318.542 87.9249 318.946 87.3765 319.11 86.7399C319.167 86.4278 319.16 86.1073 319.089 85.798C319.018 85.4887 318.885 85.197 318.698 84.9407C318.511 84.6845 318.274 84.4689 318.001 84.3072C317.728 84.1454 317.425 84.0409 317.11 83.9999V83.9999Z" fill="white"/>
<path opacity="0.7" d="M296 103.12L305.27 90.12L321.57 101.66L316.1 96L319.98 92.1L327.59 99.58C328.03 101.48 328.577 103.353 329.23 105.19C318.4 105.47 304.47 108.19 298.04 109.56C297.201 107.467 296.519 105.314 296 103.12V103.12Z" fill="white"/>
<path opacity="0.2" d="M291.48 99.4399C292.231 104.4 293.728 109.218 295.92 113.73C295.92 113.73 300.42 112.73 306.62 111.55C303.965 106.922 302.214 101.832 301.46 96.5499C298.054 97.215 294.714 98.1821 291.48 99.4399V99.4399Z" fill="black"/>
<path d="M264.24 114C266.564 125.233 272.47 135.409 281.07 143C281.07 143 302.27 127.41 314.89 123.26C306.505 116.166 300.953 106.291 299.25 95.4399C288.7 97.2499 270.46 105.77 264.24 114Z" fill="#F5F5F5"/>
<path d="M281.25 139.63C274.232 132.839 269.29 124.193 267 114.7C272.69 108.18 287 101 297.09 98.53C299.085 107.515 303.569 115.756 310.03 122.31C299.49 126.9 286 136.24 281.25 139.63Z" fill="#0088CC"/>
<path opacity="0.7" d="M281.25 139.63C274.232 132.839 269.29 124.193 267 114.7C272.69 108.18 287 101 297.09 98.53C299.085 107.515 303.569 115.756 310.03 122.31C299.49 126.9 286 136.24 281.25 139.63Z" fill="white"/>
<path opacity="0.7" d="M288.81 107.3C288.174 107.438 287.614 107.811 287.243 108.346C286.871 108.88 286.717 109.536 286.81 110.18C286.882 110.489 287.016 110.779 287.203 111.035C287.391 111.29 287.628 111.505 287.901 111.666C288.174 111.826 288.477 111.93 288.792 111.97C289.106 112.011 289.425 111.987 289.73 111.9C290.371 111.771 290.937 111.399 291.31 110.863C291.683 110.326 291.833 109.665 291.73 109.02C291.658 108.711 291.524 108.42 291.337 108.165C291.149 107.91 290.912 107.695 290.639 107.534C290.365 107.373 290.063 107.27 289.748 107.229C289.434 107.189 289.115 107.213 288.81 107.3V107.3Z" fill="white"/>
<path opacity="0.7" d="M276.91 133.22L280.31 117.65L299.84 121.82L292.6 118.7L294.6 113.58L304.55 117.45C305.697 119.025 306.936 120.531 308.26 121.96C298.42 126.49 286.7 134.48 281.32 138.28C279.728 136.704 278.254 135.012 276.91 133.22Z" fill="white"/>
<path d="M334.55 181.08C324.49 181.08 314.55 175.94 311.01 172.47C303.406 162.859 298.813 151.214 297.81 139C299.88 139.2 301.95 139.3 303.98 139.3C319.35 139.3 329.33 133.48 331.98 131.7C335.4 153.26 352.55 166.53 355.51 168.7C352.25 173.65 346.51 177.64 338.51 180.55C338.12 180.7 337.72 180.83 337.32 180.95C336.4 181.043 335.475 181.086 334.55 181.08V181.08Z" fill="#FAFAFA"/>
<path d="M331.63 132.63C335.23 153.04 350.93 165.91 354.82 168.82C351.58 173.47 346.06 177.24 338.37 180.03C338 180.17 337.63 180.29 337.25 180.41C336.353 180.499 335.452 180.543 334.55 180.54C324.69 180.54 314.96 175.54 311.44 172.13C304.056 162.777 299.54 151.485 298.44 139.62C300.31 139.78 302.18 139.86 304.01 139.86C318.58 139.86 328.16 134.86 331.66 132.63H331.63ZM332.46 130.78C332.46 130.78 322.1 138.78 304.01 138.78C301.752 138.776 299.495 138.652 297.25 138.41C298.174 150.976 302.846 162.976 310.66 172.86C314.42 176.54 324.57 181.63 334.58 181.63C335.556 181.632 336.53 181.578 337.5 181.47C337.92 181.35 338.35 181.2 338.77 181.05C345.42 178.64 352.47 174.74 356.33 168.55C356.33 168.55 335.84 154.84 332.46 130.78V130.78Z" fill="#E0E0E0"/>
<path d="M330.61 137.4L334.22 148.22C331.248 150.905 327.544 152.646 323.58 153.22L320.29 141.91C323.988 141.085 327.492 139.553 330.61 137.4V137.4Z" fill="#0088CC"/>
<path opacity="0.7" d="M330.61 137.4L334.22 148.22C331.248 150.905 327.544 152.646 323.58 153.22L320.29 141.91C323.988 141.085 327.492 139.553 330.61 137.4V137.4Z" fill="white"/>
<path d="M304.12 144.27C308.997 144.318 313.865 143.842 318.64 142.85" stroke="#E0E0E0" stroke-width="0.812789" stroke-linecap="round" stroke-linejoin="round"/>
<path d="M305.43 150C310.333 149.953 315.218 149.383 320 148.3" stroke="#E0E0E0" stroke-width="0.812789" stroke-linecap="round" stroke-linejoin="round"/>
<path d="M307.54 155.7C312.261 155.541 316.952 154.895 321.54 153.77" stroke="#E0E0E0" stroke-width="0.812789" stroke-linecap="round" stroke-linejoin="round"/>
<path d="M310.34 161.16C321.13 160.44 329.9 158.03 336 153.39" stroke="#E0E0E0" stroke-width="0.812789" stroke-linecap="round" stroke-linejoin="round"/>
<path d="M313.72 166.31C324.49 165.36 333.2 162.76 339.21 157.98" stroke="#E0E0E0" stroke-width="0.812789" stroke-linecap="round" stroke-linejoin="round"/>
<path d="M317.55 171.05C328.31 169.86 336.97 167.05 342.87 162.16" stroke="#E0E0E0" stroke-width="0.812789" stroke-linecap="round" stroke-linejoin="round"/>
<path d="M321.73 175.26C332.47 173.85 341.07 170.86 346.87 165.83" stroke="#E0E0E0" stroke-width="0.812789" stroke-linecap="round" stroke-linejoin="round"/>
<path d="M326.14 178.86C336.86 177.21 345.41 174.04 351.14 168.86" stroke="#E0E0E0" stroke-width="0.812789" stroke-linecap="round" stroke-linejoin="round"/>
<path d="M337.47 181.47C332.11 181.72 328.47 176.47 328 172.86C324.77 174.86 316.63 176.22 310.63 172.86C316 178.79 331.3 182.9 337.47 181.47Z" fill="#EBEBEB"/>
<path opacity="0.7" d="M330.37 138.75C327.555 140.5 324.509 141.847 321.32 142.75L321.98 145.24C321.98 145.24 321.98 144.01 322.64 143.8C324.32 143.25 325.88 142.62 325.88 142.62C325.88 142.62 327.55 147.55 327.77 148.62C327.842 148.856 327.865 149.105 327.839 149.35C327.813 149.596 327.739 149.834 327.619 150.05C327.5 150.266 327.339 150.456 327.145 150.609C326.951 150.762 326.728 150.875 326.49 150.94L326.72 151.43C328.272 150.858 329.755 150.114 331.14 149.21L330.95 148.82C330.95 148.82 329.25 149.48 328.75 148.21C328.25 146.94 326.82 142.21 326.82 142.21C326.82 142.21 329.08 141.08 329.62 140.77C329.924 140.618 330.275 140.588 330.601 140.687C330.926 140.785 331.201 141.005 331.37 141.3L330.37 138.75Z" fill="white"/>
<path d="M401.88 153.81C398.197 142.816 391.05 133.311 381.51 126.72C381.51 126.72 362.07 144.91 349.89 150.58C359.148 156.716 365.892 165.976 368.89 176.67C379.3 173.57 396.6 162.84 401.88 153.81Z" fill="#F5F5F5"/>
<path d="M381.73 130.1C389.589 136.088 395.58 144.191 399 153.46C394.06 160.69 380.49 169.61 370.7 173.28C367.609 164.512 362.113 156.791 354.84 151C364.92 145.07 377.35 134.08 381.73 130.1Z" fill="#0088CC"/>
<path opacity="0.7" d="M381.73 130.1C389.589 136.088 395.58 144.191 399 153.46C394.06 160.69 380.49 169.61 370.7 173.28C367.609 164.512 362.113 156.791 354.84 151C364.92 145.07 377.35 134.08 381.73 130.1Z" fill="white"/>
<path opacity="0.7" d="M377.93 159.38C376.461 155.986 374.109 153.048 371.12 150.87C375.426 149.919 379.503 148.132 383.12 145.61C383.12 145.61 384.23 151.46 377.93 159.38Z" fill="white"/>
<path d="M310.07 229.88C309.969 229.882 309.87 229.856 309.784 229.805C309.697 229.754 309.626 229.679 309.58 229.59C309.541 229.525 309.515 229.454 309.505 229.379C309.494 229.304 309.499 229.228 309.519 229.155C309.538 229.082 309.573 229.014 309.619 228.955C309.666 228.896 309.724 228.846 309.79 228.81L311.05 228.08C311.183 228.004 311.34 227.985 311.487 228.025C311.634 228.065 311.759 228.162 311.835 228.295C311.911 228.428 311.93 228.585 311.89 228.732C311.85 228.879 311.753 229.004 311.62 229.08L310.36 229.81C310.271 229.857 310.171 229.881 310.07 229.88V229.88Z" fill="#455A64"/>
<path d="M315.47 226.76C315.369 226.762 315.27 226.736 315.184 226.685C315.097 226.633 315.027 226.559 314.98 226.47C314.941 226.406 314.916 226.335 314.906 226.261C314.895 226.187 314.9 226.112 314.92 226.04C314.939 225.968 314.973 225.9 315.02 225.842C315.066 225.784 315.124 225.735 315.19 225.7L317.67 224.26C317.803 224.184 317.96 224.164 318.107 224.205C318.254 224.245 318.379 224.342 318.455 224.475C318.531 224.607 318.55 224.765 318.51 224.912C318.47 225.059 318.373 225.184 318.24 225.26L315.76 226.69C315.671 226.737 315.571 226.761 315.47 226.76V226.76ZM322.08 222.94C321.981 222.939 321.884 222.912 321.799 222.863C321.713 222.814 321.641 222.744 321.59 222.66C321.552 222.595 321.528 222.523 321.518 222.449C321.508 222.374 321.513 222.299 321.533 222.226C321.552 222.154 321.586 222.086 321.632 222.026C321.678 221.967 321.735 221.917 321.8 221.88L324.28 220.45C324.346 220.412 324.418 220.388 324.493 220.379C324.568 220.369 324.644 220.375 324.717 220.395C324.79 220.415 324.858 220.449 324.918 220.495C324.978 220.542 325.028 220.599 325.065 220.665C325.102 220.731 325.127 220.803 325.136 220.878C325.145 220.953 325.14 221.029 325.12 221.102C325.1 221.175 325.066 221.243 325.02 221.303C324.973 221.362 324.916 221.412 324.85 221.45L322.37 222.88C322.281 222.928 322.18 222.949 322.08 222.94V222.94ZM328.7 219.12C328.575 219.12 328.454 219.078 328.355 219.003C328.256 218.927 328.184 218.821 328.151 218.7C328.118 218.58 328.126 218.452 328.173 218.336C328.219 218.221 328.303 218.124 328.41 218.06L330.89 216.63C330.956 216.592 331.028 216.568 331.103 216.559C331.178 216.549 331.254 216.555 331.327 216.575C331.4 216.595 331.468 216.629 331.528 216.675C331.588 216.722 331.638 216.779 331.675 216.845C331.712 216.911 331.737 216.983 331.746 217.058C331.755 217.133 331.75 217.209 331.73 217.282C331.71 217.355 331.676 217.423 331.63 217.483C331.583 217.542 331.526 217.592 331.46 217.63L329 219.05C328.908 219.1 328.804 219.124 328.7 219.12V219.12ZM335.31 215.31C335.183 215.311 335.059 215.27 334.958 215.193C334.857 215.116 334.784 215.007 334.752 214.884C334.72 214.761 334.73 214.631 334.78 214.514C334.831 214.397 334.918 214.301 335.03 214.24L337.51 212.81C337.575 212.771 337.646 212.745 337.721 212.735C337.796 212.724 337.872 212.729 337.945 212.749C338.018 212.768 338.086 212.802 338.145 212.849C338.204 212.896 338.254 212.954 338.29 213.02C338.363 213.152 338.382 213.307 338.343 213.452C338.304 213.598 338.21 213.723 338.08 213.8L335.6 215.23C335.512 215.281 335.412 215.308 335.31 215.31V215.31ZM341.92 211.49C341.82 211.487 341.723 211.459 341.638 211.408C341.552 211.357 341.481 211.286 341.43 211.2C341.392 211.135 341.368 211.063 341.358 210.989C341.348 210.914 341.353 210.839 341.373 210.766C341.392 210.694 341.426 210.626 341.472 210.566C341.518 210.507 341.575 210.457 341.64 210.42L344.12 208.99C344.253 208.914 344.41 208.894 344.557 208.935C344.704 208.975 344.829 209.072 344.905 209.205C344.981 209.337 345 209.495 344.96 209.642C344.92 209.789 344.823 209.914 344.69 209.99L342.21 211.42C342.121 211.467 342.021 211.491 341.92 211.49V211.49ZM348.54 207.67C348.438 207.67 348.338 207.644 348.251 207.593C348.163 207.542 348.09 207.468 348.04 207.38C347.967 207.248 347.948 207.093 347.987 206.947C348.026 206.802 348.12 206.677 348.25 206.6L350.73 205.17C350.795 205.132 350.867 205.108 350.941 205.098C351.016 205.088 351.091 205.093 351.164 205.113C351.236 205.132 351.304 205.166 351.363 205.212C351.423 205.258 351.473 205.315 351.51 205.38C351.549 205.444 351.574 205.516 351.585 205.591C351.595 205.666 351.591 205.742 351.571 205.815C351.552 205.887 351.517 205.956 351.471 206.015C351.424 206.074 351.366 206.124 351.3 206.16L348.82 207.59C348.735 207.639 348.638 207.667 348.54 207.67V207.67ZM355.15 203.85C355.051 203.852 354.953 203.827 354.866 203.777C354.78 203.728 354.709 203.656 354.66 203.57C354.621 203.505 354.596 203.433 354.585 203.359C354.574 203.284 354.579 203.208 354.599 203.135C354.618 203.062 354.653 202.994 354.699 202.935C354.746 202.875 354.804 202.826 354.87 202.79L357.35 201.35C357.483 201.274 357.64 201.254 357.787 201.295C357.934 201.335 358.059 201.432 358.135 201.565C358.211 201.697 358.23 201.855 358.19 202.002C358.15 202.149 358.053 202.274 357.92 202.35L355.43 203.78C355.347 203.833 355.248 203.857 355.15 203.85V203.85ZM361.76 200.03C361.636 200.027 361.516 199.985 361.419 199.908C361.321 199.832 361.252 199.725 361.22 199.606C361.188 199.486 361.197 199.359 361.243 199.244C361.29 199.129 361.373 199.033 361.48 198.97L363.96 197.54C364.093 197.464 364.25 197.444 364.397 197.485C364.544 197.525 364.669 197.622 364.745 197.755C364.821 197.887 364.84 198.045 364.8 198.192C364.76 198.339 364.663 198.464 364.53 198.54L362.05 200C361.955 200.024 361.855 200.024 361.76 200V200.03ZM368.38 196.21C368.255 196.21 368.134 196.168 368.035 196.093C367.936 196.017 367.864 195.911 367.831 195.79C367.798 195.67 367.806 195.542 367.853 195.426C367.899 195.311 367.983 195.214 368.09 195.15L370.57 193.72C370.703 193.644 370.86 193.624 371.007 193.665C371.154 193.705 371.279 193.802 371.355 193.935C371.431 194.067 371.45 194.225 371.41 194.372C371.37 194.519 371.273 194.644 371.14 194.72L368.66 196.15C368.573 196.193 368.477 196.214 368.38 196.21V196.21ZM375 192.4C374.9 192.4 374.802 192.373 374.715 192.322C374.629 192.271 374.558 192.198 374.51 192.11C374.433 191.98 374.411 191.825 374.449 191.678C374.486 191.532 374.58 191.407 374.71 191.33L377.2 189.9C377.264 189.863 377.335 189.838 377.409 189.829C377.482 189.819 377.557 189.824 377.629 189.844C377.701 189.863 377.768 189.897 377.826 189.942C377.885 189.988 377.934 190.045 377.97 190.11C378.047 190.24 378.069 190.395 378.031 190.541C377.994 190.687 377.9 190.813 377.77 190.89L375.28 192.32C375.196 192.372 375.099 192.399 375 192.4V192.4ZM381.61 188.58C381.51 188.58 381.412 188.553 381.325 188.502C381.239 188.451 381.168 188.378 381.12 188.29C381.081 188.225 381.056 188.153 381.045 188.079C381.035 188.004 381.039 187.928 381.059 187.855C381.078 187.782 381.113 187.714 381.159 187.655C381.206 187.595 381.264 187.546 381.33 187.51L383.81 186.08C383.875 186.042 383.947 186.018 384.021 186.008C384.096 185.998 384.171 186.003 384.244 186.023C384.316 186.042 384.384 186.076 384.443 186.122C384.503 186.168 384.553 186.225 384.59 186.29C384.663 186.422 384.682 186.577 384.643 186.722C384.604 186.868 384.51 186.993 384.38 187.07L381.9 188.5C381.809 188.552 381.705 188.58 381.6 188.58H381.61ZM388.23 184.76C388.128 184.76 388.028 184.734 387.941 184.683C387.853 184.632 387.78 184.558 387.73 184.47C387.693 184.406 387.668 184.335 387.659 184.261C387.649 184.187 387.654 184.113 387.674 184.041C387.693 183.969 387.727 183.902 387.773 183.844C387.818 183.785 387.875 183.736 387.94 183.7L390.42 182.26C390.552 182.187 390.707 182.168 390.853 182.207C390.998 182.246 391.123 182.34 391.2 182.47C391.238 182.535 391.262 182.607 391.272 182.681C391.282 182.755 391.277 182.831 391.257 182.903C391.237 182.976 391.204 183.044 391.158 183.103C391.112 183.163 391.055 183.213 390.99 183.25L388.51 184.68C388.424 184.736 388.323 184.764 388.22 184.76H388.23ZM394.84 180.94C394.741 180.942 394.643 180.917 394.556 180.868C394.47 180.818 394.399 180.746 394.35 180.66C394.273 180.53 394.251 180.375 394.289 180.228C394.326 180.082 394.42 179.957 394.55 179.88L397.03 178.45C397.163 178.374 397.32 178.354 397.467 178.395C397.614 178.435 397.739 178.532 397.815 178.665C397.891 178.797 397.91 178.955 397.87 179.102C397.83 179.249 397.733 179.374 397.6 179.45L395.12 180.89C395.03 180.933 394.929 180.95 394.83 180.94H394.84ZM401.45 177.12C401.326 177.117 401.206 177.075 401.109 176.998C401.011 176.922 400.942 176.815 400.91 176.696C400.878 176.576 400.887 176.449 400.933 176.334C400.98 176.219 401.063 176.123 401.17 176.06L403.65 174.63C403.715 174.591 403.786 174.565 403.861 174.555C403.936 174.544 404.012 174.549 404.085 174.569C404.158 174.588 404.226 174.622 404.285 174.669C404.344 174.716 404.394 174.774 404.43 174.84C404.503 174.972 404.522 175.127 404.483 175.272C404.444 175.418 404.35 175.543 404.22 175.62L401.74 177.05C401.648 177.099 401.544 177.124 401.44 177.12H401.45Z" fill="#455A64"/>
<path d="M408.06 173.31C407.959 173.308 407.86 173.281 407.772 173.23C407.685 173.179 407.611 173.107 407.56 173.02C407.522 172.955 407.498 172.883 407.488 172.809C407.478 172.734 407.483 172.659 407.503 172.586C407.523 172.514 407.556 172.446 407.602 172.386C407.648 172.327 407.705 172.277 407.77 172.24L408.77 171.67V170.54C408.773 170.389 408.833 170.246 408.94 170.14C409.046 170.033 409.19 169.972 409.34 169.97C409.491 169.97 409.636 170.03 409.743 170.137C409.85 170.244 409.91 170.389 409.91 170.54V172C409.911 172.1 409.885 172.199 409.836 172.287C409.787 172.374 409.716 172.448 409.63 172.5L408.36 173.23C408.269 173.282 408.165 173.31 408.06 173.31V173.31Z" fill="#455A64"/>
<path d="M409.32 166C409.169 166 409.024 165.94 408.917 165.833C408.81 165.726 408.75 165.581 408.75 165.43V162.43C408.75 162.279 408.81 162.134 408.917 162.027C409.024 161.92 409.169 161.86 409.32 161.86C409.395 161.859 409.47 161.872 409.54 161.901C409.61 161.929 409.673 161.971 409.726 162.024C409.779 162.077 409.821 162.14 409.849 162.21C409.878 162.28 409.891 162.355 409.89 162.43V165.43C409.891 165.505 409.878 165.58 409.849 165.65C409.821 165.719 409.779 165.783 409.726 165.836C409.673 165.889 409.61 165.931 409.54 165.959C409.47 165.987 409.395 166.001 409.32 166V166ZM409.32 157.89C409.17 157.887 409.026 157.826 408.92 157.72C408.813 157.614 408.753 157.47 408.75 157.32V154.32C408.75 154.169 408.81 154.024 408.917 153.917C409.024 153.81 409.169 153.75 409.32 153.75C409.395 153.749 409.47 153.762 409.54 153.791C409.61 153.819 409.673 153.861 409.726 153.914C409.779 153.967 409.821 154.03 409.849 154.1C409.878 154.17 409.891 154.245 409.89 154.32V157.32C409.896 157.398 409.885 157.476 409.859 157.55C409.832 157.624 409.791 157.692 409.738 157.749C409.684 157.806 409.62 157.852 409.548 157.883C409.476 157.914 409.398 157.93 409.32 157.93V157.89ZM409.32 149.78C409.17 149.777 409.026 149.716 408.92 149.61C408.813 149.504 408.753 149.36 408.75 149.21V146.21C408.75 146.058 408.81 145.912 408.916 145.803C409.023 145.695 409.168 145.633 409.32 145.63C409.396 145.63 409.471 145.645 409.54 145.674C409.61 145.704 409.674 145.746 409.727 145.8C409.78 145.854 409.821 145.918 409.85 145.989C409.878 146.059 409.891 146.134 409.89 146.21V149.21C409.896 149.288 409.885 149.366 409.859 149.44C409.832 149.514 409.791 149.582 409.738 149.639C409.684 149.696 409.62 149.742 409.548 149.773C409.476 149.804 409.398 149.82 409.32 149.82V149.78ZM409.32 141.67C409.17 141.667 409.026 141.606 408.92 141.5C408.813 141.394 408.753 141.25 408.75 141.1V138.1C408.753 137.95 408.813 137.806 408.92 137.7C409.026 137.593 409.17 137.532 409.32 137.53C409.471 137.53 409.616 137.59 409.723 137.697C409.83 137.804 409.89 137.949 409.89 138.1V141.1C409.896 141.178 409.885 141.256 409.859 141.33C409.832 141.404 409.791 141.472 409.738 141.529C409.684 141.586 409.62 141.632 409.548 141.663C409.476 141.694 409.398 141.71 409.32 141.71V141.67ZM409.32 133.55C409.169 133.55 409.024 133.49 408.917 133.383C408.81 133.276 408.75 133.131 408.75 132.98V129.98C408.753 129.83 408.813 129.686 408.92 129.58C409.026 129.473 409.17 129.412 409.32 129.41C409.471 129.41 409.616 129.47 409.723 129.577C409.83 129.684 409.89 129.829 409.89 129.98V132.98C409.897 133.058 409.887 133.137 409.862 133.212C409.836 133.287 409.795 133.355 409.741 133.412C409.688 133.47 409.622 133.516 409.55 133.546C409.477 133.577 409.399 133.592 409.32 133.59V133.55ZM409.32 125.44C409.169 125.44 409.024 125.38 408.917 125.273C408.81 125.166 408.75 125.021 408.75 124.87V121.87C408.75 121.719 408.81 121.574 408.917 121.467C409.024 121.36 409.169 121.3 409.32 121.3C409.395 121.299 409.47 121.312 409.54 121.341C409.61 121.369 409.673 121.411 409.726 121.464C409.779 121.517 409.821 121.58 409.849 121.65C409.878 121.72 409.891 121.795 409.89 121.87V124.87C409.897 124.948 409.887 125.027 409.862 125.102C409.836 125.177 409.795 125.245 409.741 125.302C409.688 125.36 409.622 125.406 409.55 125.436C409.477 125.467 409.399 125.482 409.32 125.48V125.44ZM409.32 117.33C409.17 117.327 409.026 117.266 408.92 117.16C408.813 117.054 408.753 116.91 408.75 116.76V113.76C408.75 113.609 408.81 113.464 408.917 113.357C409.024 113.25 409.169 113.19 409.32 113.19C409.395 113.189 409.47 113.202 409.54 113.231C409.61 113.259 409.673 113.301 409.726 113.354C409.779 113.407 409.821 113.47 409.849 113.54C409.878 113.61 409.891 113.685 409.89 113.76V116.76C409.896 116.838 409.885 116.916 409.859 116.99C409.832 117.064 409.791 117.132 409.738 117.189C409.684 117.246 409.62 117.292 409.548 117.323C409.476 117.354 409.398 117.37 409.32 117.37V117.33Z" fill="#455A64"/>
<path d="M409.32 109.26C409.17 109.257 409.026 109.196 408.92 109.09C408.813 108.984 408.753 108.84 408.75 108.69V107.22C408.753 107.07 408.813 106.926 408.92 106.82C409.026 106.713 409.17 106.652 409.32 106.65C409.471 106.65 409.616 106.71 409.723 106.817C409.83 106.924 409.89 107.069 409.89 107.22V108.69C409.89 108.841 409.83 108.986 409.723 109.093C409.616 109.2 409.471 109.26 409.32 109.26Z" fill="#455A64"/>
<path opacity="0.8" d="M445.41 63.3599L445.18 63.2299L445.04 63.1399L439.89 60.1399C439.89 60.0199 439.89 59.8999 439.89 59.7799C439.89 53.4699 437.76 49.0399 434.42 47.1799L424.53 41.4699C421.81 39.8999 418.27 40.0499 414.39 42.2899C412.591 43.351 410.946 44.6531 409.5 46.1599C408.864 45.5046 408.145 44.9363 407.36 44.4699V44.4699L397.82 38.9999C394.32 36.6799 389.64 36.7299 384.48 39.6999C373.66 45.9499 364.88 62.6999 364.88 77.1499C364.875 78.7473 364.999 80.3424 365.25 81.9199L363.89 82.6999C357.01 86.6999 351.43 97.3399 351.43 106.52C351.43 111.59 353.13 115.21 355.82 116.76L365.82 122.54C367.99 123.78 370.82 123.69 373.87 121.91L392 111.45L440.3 83.5699C444.44 81.1799 447.79 74.7799 447.79 69.2699C447.8 66.3899 446.87 64.3299 445.41 63.3599Z" fill="#0088CC"/>
<path opacity="0.2" d="M445.41 63.3599L445.18 63.2299L445.04 63.1399L439.89 60.1399C439.89 60.0199 439.89 59.8999 439.89 59.7799C439.89 53.4699 437.76 49.0399 434.42 47.1799L424.53 41.4699C421.81 39.8999 418.27 40.0499 414.39 42.2899C412.591 43.351 410.946 44.6531 409.5 46.1599C408.864 45.5046 408.145 44.9363 407.36 44.4699V44.4699L397.82 38.9999C394.32 36.6799 389.64 36.7299 384.48 39.6999C373.66 45.9499 364.88 62.6999 364.88 77.1499C364.875 78.7473 364.999 80.3424 365.25 81.9199L363.89 82.6999C357.01 86.6999 351.43 97.3399 351.43 106.52C351.43 111.59 353.13 115.21 355.82 116.76L365.82 122.54C367.99 123.78 370.82 123.69 373.87 121.91L392 111.45L440.3 83.5699C444.44 81.1799 447.79 74.7799 447.79 69.2699C447.8 66.3899 446.87 64.3299 445.41 63.3599Z" fill="white"/>
<path opacity="0.35" d="M434.43 47.2C431.73 45.69 428.22 45.86 424.43 48.08C422.533 49.2029 420.806 50.5901 419.3 52.2L410.23 46.93L409.34 46.42L409.56 46.19C411.011 44.6859 412.655 43.3812 414.45 42.31C418.33 40.08 421.87 39.93 424.59 41.5L434.43 47.2Z" fill="white"/>
<path opacity="0.8" d="M409.52 46.1899C409.756 46.4245 409.98 46.6715 410.19 46.9299L409.3 46.4199L409.52 46.1899Z" fill="white"/>
<path opacity="0.35" d="M407.14 44.36C403.73 42.46 399.31 42.68 394.48 45.47C389.65 48.26 385.08 53.31 381.64 59.27L371.64 53.52C375.07 47.52 379.56 42.52 384.47 39.71C389.62 36.71 394.31 36.71 397.81 39.01L407.14 44.36Z" fill="white"/>
<path opacity="0.35" d="M375.23 87.6999L373.88 88.4699C369.22 91.1699 365.14 96.9399 363.01 103.24L353.01 97.4799C354.589 92.6053 357.379 88.2113 361.12 84.7099L365.23 81.9399L375.23 87.6999Z" fill="white"/>
<path d="M440.31 63.6199L439.6 64.0299C439.793 62.6281 439.894 61.215 439.9 59.7999C439.9 48.3799 432.95 43.1299 424.39 48.0799C420.39 50.3699 416.79 54.4599 414.05 59.3199C413.66 45.5699 405.05 39.3199 394.47 45.4699C383.65 51.7199 374.87 68.4699 374.87 82.9199C374.867 84.5201 374.987 86.1182 375.23 87.6999L373.88 88.4699C367 92.4699 361.41 103.12 361.41 112.3C361.41 121.48 367 125.9 373.88 121.92L392 111.45L440.3 83.5699C444.44 81.1799 447.79 74.7799 447.79 69.2699C447.8 63.7699 444.45 61.2299 440.31 63.6199Z" fill="#0088CC"/>
<path opacity="0.7" d="M440.31 63.6199L439.6 64.0299C439.793 62.6281 439.894 61.215 439.9 59.7999C439.9 48.3799 432.95 43.1299 424.39 48.0799C420.39 50.3699 416.79 54.4599 414.05 59.3199C413.66 45.5699 405.05 39.3199 394.47 45.4699C383.65 51.7199 374.87 68.4699 374.87 82.9199C374.867 84.5201 374.987 86.1182 375.23 87.6999L373.88 88.4699C367 92.4699 361.41 103.12 361.41 112.3C361.41 121.48 367 125.9 373.88 121.92L392 111.45L440.3 83.5699C444.44 81.1799 447.79 74.7799 447.79 69.2699C447.8 63.7699 444.45 61.2299 440.31 63.6199Z" fill="white"/>
<path opacity="0.7" d="M369 120.83C365.93 120.83 364 117.48 364 112.3C364 104.08 369.12 94.1899 375.19 90.6899L376.54 89.9099C376.987 89.6518 377.346 89.2643 377.569 88.7985C377.792 88.3327 377.869 87.8103 377.79 87.2999C377.565 85.8508 377.455 84.3863 377.46 82.9199C377.46 69.3199 385.67 53.5199 395.78 47.6799C397.734 46.4548 399.975 45.7651 402.28 45.6799C407.74 45.6799 411.28 50.9299 411.52 59.3899C411.532 59.9502 411.729 60.4909 412.079 60.9284C412.429 61.3658 412.914 61.6756 413.458 61.8099C414.002 61.9443 414.576 61.8956 415.089 61.6714C415.603 61.4473 416.028 61.0602 416.3 60.5699V60.5699C418.93 55.9199 422.3 52.2699 425.7 50.2899C427.165 49.3631 428.848 48.8388 430.58 48.7699C434.71 48.7699 437.37 53.0999 437.37 59.7699C437.366 61.0711 437.276 62.3707 437.1 63.6599V63.6599C437.035 64.1335 437.104 64.6158 437.3 65.0518C437.496 65.4877 437.811 65.8599 438.208 66.1258C438.605 66.3916 439.069 66.5405 439.547 66.5554C440.025 66.5702 440.497 66.4505 440.91 66.2099L441.62 65.7999C442.129 65.4786 442.71 65.2896 443.31 65.2499C444.67 65.2499 445.31 67.2499 445.31 69.2499C445.31 73.8599 442.47 79.3899 439.11 81.3399L372.6 119.71C371.525 120.389 370.291 120.775 369.02 120.83H369Z" fill="white"/>
</svg>
