<svg id="Layer_1" data-name="Layer 1" xmlns="http://www.w3.org/2000/svg" viewBox="0 0 589.19 112.34"><defs><style>.cls-1,.cls-2{fill:#fff;}.cls-2{font-size:90.65px;font-family:PlusJakartaSans-Bold, Plus Jakarta Sans;font-weight:700;letter-spacing:-0.1em;}.cls-3{letter-spacing:-0.02em;}.cls-4{letter-spacing:-0.02em;}.cls-5{letter-spacing:0em;}.cls-6{letter-spacing:0em;}.cls-7{letter-spacing:-0.02em;}.cls-8{letter-spacing:-0.05em;}.cls-9{letter-spacing:-0.01em;}</style></defs><path class="cls-1" d="M87.46,51.09,63.54,67.69a5.29,5.29,0,0,0-2.22,5l1,7.82a1.32,1.32,0,0,0,2.49.42L68,74.32a7.53,7.53,0,0,1,1.47-2L89.13,53.11A1.32,1.32,0,0,0,87.46,51.09Z"/><path class="cls-1" d="M134.85,42.43A52.22,52.22,0,0,0,37.28,28.49a41.8,41.8,0,0,0,4.53,83.35h90.6a34.74,34.74,0,0,0,2.44-69.41ZM111.23,38,97.84,85.52a3.79,3.79,0,0,1-5.38,2.35L77.9,80.42a3.8,3.8,0,0,0-4.44.72L65.75,89a3.8,3.8,0,0,1-6.42-1.85L55.74,70.79a3.82,3.82,0,0,0-1.92-2.54l-7.7-4.12a3.79,3.79,0,0,1,.38-6.87l59.67-23.81A3.79,3.79,0,0,1,111.23,38Z"/><text class="cls-2" transform="translate(194.36 86.81)">T<tspan class="cls-3" x="40.4" y="0">el</tspan><tspan class="cls-4" x="115.08" y="0">e</tspan><tspan class="cls-5" x="168.9" y="0">D</tspan><tspan class="cls-6" x="235.66" y="0">r</tspan><tspan class="cls-7" x="269.97" y="0">i</tspan><tspan class="cls-8" x="296.2" y="0">v</tspan><tspan class="cls-9" x="342.7" y="0">e</tspan></text></svg>