<svg xmlns="http://www.w3.org/2000/svg" viewBox="0 0 167.25 111.5"><defs><style>.cls-1{fill:#fff;}</style></defs><g id="Layer_2" data-name="Layer 2"><g id="Layer_1-2" data-name="Layer 1"><path class="cls-1" d="M87.46,50.75,63.54,67.36a5.27,5.27,0,0,0-2.22,5l1,7.82a1.32,1.32,0,0,0,2.49.42L68,74a7.53,7.53,0,0,1,1.47-2L89.13,52.77A1.32,1.32,0,0,0,87.46,50.75Z"/><path class="cls-1" d="M134.85,42.09A52.22,52.22,0,0,0,37.28,28.15a41.8,41.8,0,0,0,4.53,83.35h90.6a34.74,34.74,0,0,0,2.44-69.41Zm-23.62-4.43L97.84,85.19a3.79,3.79,0,0,1-5.38,2.34L77.9,80.08a3.81,3.81,0,0,0-4.44.72l-7.71,7.87a3.8,3.8,0,0,1-6.42-1.84L55.74,70.45a3.8,3.8,0,0,0-1.92-2.53l-7.7-4.12a3.79,3.79,0,0,1,.38-6.87l59.67-23.82A3.79,3.79,0,0,1,111.23,37.66Z"/></g></g></svg>