<svg xmlns="http://www.w3.org/2000/svg" xmlns:xlink="http://www.w3.org/1999/xlink" viewBox="0 0 360 360"><defs><style>.cls-1{fill:#fff;}.cls-2{fill:url(#linear-gradient);}.cls-3{fill:url(#linear-gradient-2);}</style><linearGradient id="linear-gradient" x1="168.64" y1="184.87" x2="176.99" y2="197.02" gradientUnits="userSpaceOnUse"><stop offset="0" stop-color="#2aabee"/><stop offset="0.87" stop-color="#229ed9"/></linearGradient><linearGradient id="linear-gradient-2" x1="137.02" y1="136.05" x2="231.81" y2="273.85" xlink:href="#linear-gradient"/></defs><g id="Layer_2" data-name="Layer 2"><g id="Layer_1-2" data-name="Layer 1"><rect class="cls-1" width="360" height="360"/><path class="cls-2" d="M183.83,175l-23.91,16.61a5.25,5.25,0,0,0-2.22,5l1,7.82a1.31,1.31,0,0,0,2.48.42l3.25-6.59a7.32,7.32,0,0,1,1.47-2L185.5,177A1.31,1.31,0,0,0,183.83,175Z"/><path class="cls-3" d="M231.22,166.34a52.21,52.21,0,0,0-97.56-13.94,41.8,41.8,0,0,0,4.53,83.35h90.59a34.74,34.74,0,0,0,2.44-69.41Zm-23.62-4.43-13.38,47.53a3.79,3.79,0,0,1-5.38,2.34l-14.57-7.45a3.8,3.8,0,0,0-4.43.72l-7.72,7.87a3.79,3.79,0,0,1-6.41-1.84l-3.6-16.38a3.81,3.81,0,0,0-1.91-2.53l-7.71-4.12a3.79,3.79,0,0,1,.39-6.87l59.66-23.82A3.79,3.79,0,0,1,207.6,161.91Z"/></g></g></svg>