<svg id="Layer_1" data-name="Layer 1" xmlns="http://www.w3.org/2000/svg" xmlns:xlink="http://www.w3.org/1999/xlink" viewBox="0 0 589.19 112.34"><defs><style>.cls-1{font-size:90.65px;fill:#252525;font-family:PlusJakartaSans-Bold, Plus Jakarta Sans;font-weight:700;letter-spacing:-0.1em;}.cls-2{letter-spacing:-0.02em;}.cls-3{letter-spacing:-0.02em;}.cls-4{letter-spacing:0em;}.cls-5{letter-spacing:0em;}.cls-6{letter-spacing:-0.02em;}.cls-7{letter-spacing:-0.05em;}.cls-8{letter-spacing:-0.01em;}.cls-9{fill:url(#linear-gradient);}.cls-10{fill:url(#linear-gradient-2);}</style><linearGradient id="linear-gradient" x1="72.14" y1="60.96" x2="80.5" y2="73.11" gradientUnits="userSpaceOnUse"><stop offset="0" stop-color="#2aabee"/><stop offset="0.87" stop-color="#229ed9"/></linearGradient><linearGradient id="linear-gradient-2" x1="40.52" y1="12.13" x2="135.31" y2="149.93" xlink:href="#linear-gradient"/></defs><text class="cls-1" transform="translate(194.23 86.81)">T<tspan class="cls-2" x="40.4" y="0">el</tspan><tspan class="cls-3" x="115.08" y="0">e</tspan><tspan class="cls-4" x="168.9" y="0">D</tspan><tspan class="cls-5" x="235.66" y="0">r</tspan><tspan class="cls-6" x="269.97" y="0">i</tspan><tspan class="cls-7" x="296.2" y="0">v</tspan><tspan class="cls-8" x="342.7" y="0">e</tspan></text><path class="cls-9" d="M87.33,51.09,63.42,67.69a5.27,5.27,0,0,0-2.22,5l1,7.82a1.31,1.31,0,0,0,2.48.42l3.25-6.59a7.53,7.53,0,0,1,1.47-2L89,53.11A1.31,1.31,0,0,0,87.33,51.09Z"/><path class="cls-10" d="M134.72,42.43A52.21,52.21,0,0,0,37.16,28.49a41.8,41.8,0,0,0,4.53,83.35h90.59a34.74,34.74,0,0,0,2.44-69.41ZM111.1,38,97.72,85.52a3.79,3.79,0,0,1-5.38,2.35L77.77,80.42a3.79,3.79,0,0,0-4.43.72L65.63,89a3.8,3.8,0,0,1-6.42-1.85l-3.6-16.37a3.83,3.83,0,0,0-1.91-2.54L46,64.13a3.8,3.8,0,0,1,.39-6.87L106,33.45A3.79,3.79,0,0,1,111.1,38Z"/></svg>